<?xml version="1.0" encoding="UTF-8"?>
<svg id="a" data-name="Layer 1" xmlns="http://www.w3.org/2000/svg" viewBox="0 0 833.36 750">
  <path d="M133.7,52.84c7.71-2.71,15.42-5.41,23.13-8.12-.19,7.15-.39,14.31-.59,21.46-3.03-1.67-6.05-3.36-9.06-5.04-2.29-1.28-4.59-2.57-6.87-3.87-3.79-2.16-7.21,3.69-3.42,5.84,5.84,3.32,11.71,6.58,17.61,9.79.51.28,1.02.55,1.53.82-.12,4.46-.24,8.93-.37,13.39-.21,7.55-.41,15.11-.62,22.66-.09,3.44,4.6,4.49,6.31,1.71,5.54-9.03,11.08-18.06,16.62-27.09,2.47,1.07,4.94,2.12,7.39,3.21,8.74,3.85,17.48,7.71,26.23,11.56,1.4.62,2.95.62,4.1-.53,1.06-1.06,1.29-2.8.53-4.1-7.22-12.39-14.45-24.78-21.67-37.17,2.96-4.83,5.92-9.66,8.88-14.48,4.01-6.53,8.01-13.07,12.02-19.6,1.48-2.41-1-5.96-3.82-4.97-11.03,3.87-22.05,7.74-33.08,11.62-.94-1.62-1.88-3.23-2.82-4.85-3.86-6.62-7.71-13.23-11.57-19.85-1.72-2.95-6.22-1.6-6.31,1.71-.28,10.18-.56,20.36-.83,30.54-8.37,2.94-16.75,5.88-25.12,8.82-1.72.61-2.87,2.31-2.36,4.16.46,1.67,2.43,2.97,4.16,2.36ZM163.66,42.32c3.95-1.39,7.9-2.78,11.86-4.16,3.72,6.38,7.43,12.75,11.15,19.13-3.8,6.19-7.59,12.38-11.39,18.57-1.26-.57-2.53-1.14-3.78-1.74-2.9-1.37-5.75-2.84-8.59-4.34.25-9.15.5-18.31.75-27.46ZM167.54,88.47c-1.79,2.92-3.58,5.84-5.37,8.76.18-6.66.36-13.32.54-19.98,1.37.71,2.73,1.42,4.11,2.1,1.62.79,3.26,1.55,4.9,2.3-1.4,2.27-2.79,4.55-4.19,6.82ZM198.81,78.11c2.11,3.62,4.22,7.24,6.33,10.87-4.53-2-9.06-3.99-13.59-5.99-3.34-1.47-6.69-2.9-10.04-4.36,3.01-4.9,6.01-9.8,9.02-14.71,2.76,4.73,5.52,9.46,8.27,14.19ZM204.68,27.91c-4.67,7.61-9.33,15.21-14,22.82-2.89-4.95-5.78-9.91-8.66-14.86,7.55-2.65,15.11-5.3,22.66-7.96ZM164.01,29.61c.1-3.57.19-7.13.29-10.7,2.58,4.43,5.17,8.87,7.75,13.3-2.73.96-5.46,1.92-8.19,2.88.05-1.83.1-3.65.15-5.48Z" fill="#231f20" stroke-width="0"/>
  <path d="M339.72,123.73c6.6-4.37,13.21-8.73,19.81-13.1,3.84,7.31,7.68,14.62,11.52,21.93,1.56,2.97,6.41,1.6,6.31-1.71-.32-10.46-.65-20.91-.97-31.37,9.15-6.05,18.31-12.1,27.46-18.15,2.51-1.66,1.98-5.21-.81-6.19-9.23-3.24-18.47-6.48-27.7-9.72-.07-2.28-.14-4.56-.21-6.84-.21-6.83-.42-13.67-.63-20.5-.1-3.15-4.75-4.88-6.31-1.71-3.69,7.53-7.22,15.15-10.6,22.83l-15.44-5.41c-1.72-.61-3.7.69-4.16,2.36-.51,1.87.63,3.56,2.36,4.16,4.85,1.7,9.7,3.4,14.55,5.1-1.73,4.06-3.42,8.13-5.06,12.22-2.08-3.95-4.15-7.9-6.23-11.86-2.03-3.86-7.87-.44-5.84,3.42,2.94,5.59,5.87,11.18,8.81,16.77-1.91,4.99-3.77,10.01-5.55,15.06-2.2,6.25-4.3,12.54-6.29,18.86-.87,2.74,2.52,5.45,4.97,3.82ZM369.96,110.35c.06,1.98.12,3.95.18,5.93-1.65-3.13-3.29-6.27-4.94-9.4,1.52-1,3.04-2.01,4.55-3.01.07,2.16.13,4.32.2,6.48ZM394.6,79.35c-6.15,4.07-12.3,8.13-18.45,12.2-.19-6.29-.39-12.58-.58-18.88,6.35,2.23,12.69,4.45,19.04,6.68ZM365.71,57.51c.8-1.78,1.63-3.56,2.45-5.33.11,3.62.22,7.24.34,10.86-1.51-.53-3.02-1.06-4.53-1.59.58-1.31,1.15-2.63,1.74-3.94ZM361.27,67.66c2.48.87,4.97,1.74,7.45,2.61.26,8.55.53,17.11.79,25.66-2.49,1.65-4.98,3.29-7.47,4.94-2.68-5.11-5.37-10.22-8.05-15.33,2.33-6,4.75-11.96,7.28-17.88ZM356.38,104.62c-4.05,2.68-8.1,5.36-12.15,8.04,2.08-6.26,4.28-12.48,6.57-18.67,1.86,3.54,3.72,7.09,5.58,10.63Z" fill="#231f20" stroke-width="0"/>
  <path d="M173.99,419.58c2.34-3.81,4.67-7.61,7.01-11.42,4.47-7.29,8.95-14.58,13.42-21.87,1.62-2.64-1.05-5.57-3.82-4.97-11.58,2.51-23.16,5.03-34.75,7.54-1.47-2.49-2.94-4.98-4.41-7.47-4.46-7.55-8.92-15.1-13.38-22.65-1.74-2.95-6.19-1.6-6.31,1.71-.4,11.3-.8,22.6-1.21,33.9-2.09.45-4.17.91-6.26,1.36-6.27,1.36-12.54,2.72-18.8,4.08-1.64.36-2.37,1.55-2.42,2.82-1.67-1.03-3.35-2.06-5.02-3.08-3.72-2.29-7.12,3.57-3.42,5.84,11.59,7.12,23.18,14.24,34.77,21.36-.35,9.92-.71,19.84-1.06,29.76-.32,9.02-.64,18.04-.96,27.06-.12,3.45,4.61,4.47,6.31,1.71,8.3-13.53,16.6-27.06,24.91-40.59,4.6,2.83,9.2,5.66,13.8,8.48,7.37,4.53,14.73,9.05,22.1,13.58,2.9,1.78,6.33-1.75,4.63-4.63-8.38-14.18-16.75-28.36-25.13-42.53ZM173.59,391.93c3.63-.79,7.25-1.57,10.88-2.36-4.79,7.8-9.58,15.61-14.37,23.41-3.54-6-7.08-11.99-10.63-17.99,4.71-1.02,9.41-2.04,14.12-3.06ZM166.09,419.51c-3.24,5.29-6.49,10.57-9.73,15.86-6.69-4.11-13.38-8.22-20.07-12.33.27-7.73.55-15.46.82-23.19,5.13-1.11,10.25-2.23,15.38-3.34,4.53,7.67,9.06,15.34,13.59,23.01ZM137.56,387.51c.18-5.12.36-10.25.55-15.37,3.59,6.08,7.18,12.16,10.78,18.24-3.84.83-7.68,1.67-11.51,2.5.06-1.79.13-3.58.19-5.36ZM120.14,413.11c-3.84-2.36-7.68-4.72-11.52-7.08,7.23-1.57,14.45-3.14,21.68-4.7-.21,5.88-.42,11.76-.63,17.64-3.18-1.95-6.35-3.91-9.53-5.86ZM141.25,459.99c-2.22,3.62-4.44,7.23-6.66,10.85.47-13.34.95-26.68,1.42-40.02,5.6,3.44,11.2,6.88,16.8,10.33-3.86,6.28-7.71,12.56-11.57,18.85ZM162.13,438.91c2.62-4.27,5.24-8.54,7.86-12.81,3.3,5.59,6.61,11.18,9.91,16.77,2.15,3.64,4.3,7.27,6.45,10.91-8.07-4.96-16.14-9.92-24.21-14.88Z" fill="#231f20" stroke-width="0"/>
  <path d="M188.55,261.44s-.01,0-.02,0c.02.01.03.03.04.04,0,0,0,0,.01,0-.02-.02-.03-.03-.04-.04Z" fill="#231f20" stroke-width="0"/>
  <path d="M188.52,261.4s0,0,0,0c.01.01.02.02.04.04.02,0,.04,0,.06,0-.03-.01-.06-.02-.09-.04Z" fill="#231f20" stroke-width="0"/>
  <path d="M198.99,261.63c3.22-4.44,5.19-9.9,6.61-15.16,1.67-6.16,2.6-12.61,2.69-18.99.08-5.64-.46-11.57-2.61-16.83-2.09-5.1-6.72-11.5-13.08-9.98-1.46.35-2.93,1.2-3.83,2.44-9.35,3.07-11.89,15.9-12.74,24.39-.58,5.79-.47,11.67.22,17.44.63,5.34,1.62,10.66,3.76,15.62,1.46,3.38,3.85,7.1,7.81,7.61,4.75.61,8.6-3,11.17-6.54ZM190.93,260.54c.39-.32.19-.14,0,0h0ZM188.54,261.44s-.03-.03-.05-.04c-.07-.01-.13-.03-.17-.03.06,0,.11.01.16.02-.01-.01-.02-.02-.04-.03-.03-.02-.05-.03-.08-.05-.1-.08-.14-.13-.15-.15,0,0-.01,0-.01-.01-.21-.24-.42-.49-.65-.72.79.78,0-.03-.2-.33-.44-.68-.8-1.4-1.16-2.13-.05-.11-.1-.22-.15-.33-.05-.11-.11-.25-.13-.32-.17-.45-.34-.9-.5-1.36-.34-.99-.63-1.99-.9-3-.6-2.27-1.03-4.57-1.37-6.89,0-.05-.06-.42-.08-.56-.03-.24-.06-.48-.09-.72-.07-.63-.14-1.27-.2-1.91-.12-1.3-.21-2.6-.27-3.9-.12-2.63-.12-5.28,0-7.91.07-1.46.19-2.91.35-4.36.13-1.14.24-1.94.55-3.59.47-2.46,1.12-4.89,2.05-7.22.05-.09.45-.98.54-1.17.24-.48.5-.95.78-1.41.23-.39.49-.76.76-1.13.05-.04.64-.77.8-.93.29-.3.61-.58.92-.86,0,0,0,0,.01,0,.24-.15.46-.31.7-.45.18-.1.37-.19.55-.29.04-.02.05-.03.09-.05.02,0,.03,0,.06-.01.47-.14.93-.29,1.42-.38.49-.1.92-.34,1.28-.66.45-.34.79-.78.96-1.31.17.01.36.02.44.01.06.02.12.05.15.07.15.1.83.58.89.59.28.23.56.47.81.73.27.28.53.58.78.88.05.09.55.78.65.94.27.44.52.89.76,1.35.09.17.45,1.01.51,1.1.83,2.13,1.35,4.35,1.73,6.6,0,.05.06.45.08.58.03.24.06.48.08.73.07.65.13,1.3.17,1.95.09,1.34.13,2.69.13,4.03-.02,5.83-.63,10.47-1.98,16.06-.62,2.58-1.39,5.12-2.32,7.6-.54,1.42-.52,1.39-1.21,2.84-.48,1.01-1.01,2.01-1.59,2.98-.27.45-.55.89-.84,1.33-.1.15-.6.8-.67.91-.53.62-1.08,1.21-1.67,1.77-.11.1-.22.19-.34.29-.04.03-.07.05-.1.07-.33.19-.66.39-.98.59-.06.03-.08.05-.11.08-.05,0-.09.01-.17.03-.14.03-.29.08-.42.12-.02,0-.04,0-.06.01.04,0,.06,0,.1,0-.06,0-.12,0-.18,0-.05,0-.09.01-.13.01,0,0,0,0,0,0,0,0-.02,0-.02,0,0,0,0,0,0,0,0,0,.02,0,.03,0-.02,0-.06,0-.13-.01-.03,0-.06,0-.09,0-.02,0-.03,0-.04,0,.02.02.03.03.06.06-.02-.02-.05-.04-.07-.06-.21-.03-.18-.05-.04-.04ZM189.04,261.57s-.09-.04-.16-.06c.06.02.11.04.16.06Z" fill="#231f20" stroke-width="0"/>
  <path d="M188.51,261.4s0,0,0,0c.05.01.1.02.15.04-.02,0-.04,0-.04,0,0,0-.01,0-.02,0,0,0,.01,0,.02,0-.01.01.02.02.09.03,0,0,0,0,0,0h0s.06,0,.09,0c0,0-.02,0-.03,0h0s.02,0,.02,0c0,0,.01,0,.02,0,0,0,0,0,0,0,.05,0,.09,0,.13,0,.03,0,.05-.01.08-.02-.13-.01-.23-.02-.29-.02-.05-.02-.15-.03-.26-.05-.2-.2-.29-.26-.28-.23.07.07.15.14.22.2.02.01.04.02.05.03,0,0-.01,0-.02,0,0,0,0,0,.01,0,0,0,.02,0,.03,0h0Z" fill="#231f20" stroke-width="0"/>
  <path d="M228.67,265.26c2.88-11.2,3.67-23.06,3.35-34.59-.34-12.27-2.15-24.54-5.42-36.37-2.57-9.29-6.13-18.94-13.06-25.92-7.05-7.09-17.15-9.63-26.7-6.54-9.82,3.18-17.44,10.77-21.84,19.96-4.9,10.23-6.47,21.61-7.7,32.77-1.3,11.81-1.64,24.14,1.91,35.61,2.95,9.55,8.52,18.34,16.68,24.24,1.9,1.37,3.94,2.52,6.09,3.46,1.67.73,3.63.49,4.63-1.21.84-1.43.47-3.89-1.21-4.63-8.05-3.52-13.85-10.18-17.53-18.04-4.34-9.26-5.06-19.79-4.58-29.87.49-10.4,1.72-21.19,4.67-31.2,2.58-8.76,7.17-17.09,15.15-21.96,7.04-4.3,15.55-5.19,22.59-.41,6.64,4.52,10.32,12.68,12.75,20.06,6.73,20.45,8.8,43.28,5.41,64.56-1.57,9.87-4.57,19.88-10.71,27.93-5.29,6.93-13.16,12.34-21.88,13.66-2.09.31-4.22.3-6.32.13-1.82-.15-3.38,1.67-3.38,3.38,0,1.96,1.56,3.23,3.38,3.38,10.36.87,20.43-3.58,28.02-10.43,8.11-7.32,13.04-17.53,15.73-27.99Z" fill="#231f20" stroke-width="0"/>
  <path d="M62.29,221.85c.09-3.93-.17-7.91-.84-11.78-.52-3-1.7-6.21-4.1-8.22-2.87-2.4-6.89-2.58-10.05-.58-3.26,2.07-4.85,5.59-5.76,9.21-1.97,7.82-2.18,15.98-.85,23.92.66,3.93,1.52,8.49,3.83,11.83,2.46,3.55,7.53,5.64,11.39,2.91,1.3-.92,2-2.48,1.51-3.97.04-.08.08-.15.11-.22,2.98-7.32,4.59-15.18,4.77-23.08ZM47.16,232.29c-.95-5.89-.79-12.07.42-17.91.46-2.25.91-5.47,2.81-7.03,1.39-1.14,2.46-.81,3.29.55,1.1,1.81,1.32,4.2,1.54,6.26.32,3.06.4,6.15.25,9.23-.32,6.8-1.91,13.45-4.47,19.74-.03.07-.03.13-.05.2-2.27-1.52-3.58-9.77-3.78-11.05Z" fill="#231f20" stroke-width="0"/>
  <path d="M48.71,253.1c-7.26-.06-13.52-4.66-17.41-10.55-5.01-7.59-5.82-16.71-4.97-25.58.48-5,1.55-9.94,2.71-14.82,1.07-4.48,2.21-8.95,3.72-13.3,2.72-7.83,7.03-15.44,14.44-19.65,6.3-3.59,14.08-3.97,19.84.87,5.61,4.71,8.42,12.06,10.47,18.88,5.51,18.36,9.53,39.02,4.22,57.89-4.41,15.66-17.08,31.18-34.11,33.15-1.82.21-3.38,1.41-3.38,3.38,0,1.67,1.56,3.6,3.38,3.38,18.17-2.1,31.99-15.91,38.66-32.33,8.24-20.3,4.25-43.48-1.29-63.92-2.23-8.24-5.19-16.77-11.06-23.18-6.19-6.77-15.49-9.3-24.26-6.54-9.44,2.97-16.41,10.43-20.56,19.2-4.43,9.34-6.91,19.93-8.62,30.09-1.78,10.58-2.03,21.71,2.58,31.64,3.68,7.92,10.61,14.87,19.14,17.28,2.1.59,4.31.87,6.49.89,4.36.04,4.36-6.73,0-6.77Z" fill="#231f20" stroke-width="0"/>
  <path d="M802.83,368.79c15.1-24.76,24.9-52.67,28.75-81.4.94-6.98,1.53-14,1.77-21.04.06-1.95-1.61-3.22-3.38-3.38-27.34-2.59-54.03-20.13-65.37-45.44-.07-.17-.18-.41-.22-.51-.15-.37-.29-.74-.43-1.11-.26-.69-.5-1.38-.74-2.08-.48-1.43-.9-2.88-1.29-4.34-.81-3.06-1.44-6.16-1.98-9.27-.28-1.62-.53-3.25-.76-4.89-.05-.33-.09-.67-.14-1,.01.07-.08-.57-.11-.82-.11-.84-.21-1.68-.32-2.53-.42-3.48-.79-6.96-1.16-10.45-1.52-14.19-3-28.71-8.08-42.16-5.4-14.29-14.98-26.23-28.65-33.36-20.07-10.46-44.25-11.06-66.32-9.5-2.6.18-5.19.42-7.78.68,3.4-10.46,5-21.54,4.13-32.51-1.14-14.31-6.49-27.78-16.03-38.56-8.94-10.1-20.97-17.36-33.8-21.36-15.15-4.72-31.48-4.71-46.95-1.65-28.54,5.64-55.89,21.5-70.23,47.46-12.74,23.07-15.34,51.79-5.65,76.43,9.54,24.24,29.23,43.67,53.32,53.43,2.32.94,4.67,1.76,7.03,2.5-9.26.03-18.52.06-27.78.09-.18,0-.33.03-.5.05-1.01-2.2-2.09-4.38-3.28-6.49-2.14-3.8-7.98-.39-5.84,3.42,9.62,17.11,12.81,37.69,8.97,56.93-1.09,5.43-2.68,10.81-4.86,15.91-.09.21-.16.41-.22.63-4.11,1.09-8.21,2.18-12.32,3.27.31-14.58-.91-29.18-3.67-43.5-1.58-8.2-3.69-16.3-6.3-24.23-1.38-4.18-2.82-8.47-4.54-12.63,5.39.9,10.78,1.81,16.17,2.72,1.74.3,3.73-.46,4.16-2.36.37-1.64-.5-3.85-2.36-4.16-7.09-1.2-14.18-2.4-21.27-3.58-.07-.01-.14-.01-.21-.02-.42-.76-.85-1.52-1.31-2.25-4.13-6.68-10.74-12.54-19.05-12.05-5.85.34-11.45,3.35-13.78,8.49-3.7-6.4-8.69-12.96-16.07-14.39-4.26-.83-8.68.5-11.71,3.65-1.6,1.67-2.75,3.67-3.61,5.81-1.27-.21-2.55-.41-3.82-.62-2.17-2.52-4.6-4.81-7.39-6.73-7.06-4.85-16.16-5.42-23.04.06-.59.47-1.15.99-1.67,1.52-21.69-3.39-43.4-6.67-65.09-10.03-21.88-3.39-43.74-6.85-65.57-10.59-12.17-2.09-24.32-4.26-36.46-6.55-.17-.03-.34-.04-.51-.05-3.78-1.23-7.73-2.02-11.81-2.38-9.84-.88-19.96.81-28.92,4.98-4.24,1.97-8.21,4.64-11.57,7.9-.47.46-.93.93-1.36,1.41-.31-.22-.66-.39-1.05-.46-10.25-1.83-20.5-3.65-30.76-5.48-16.34-2.91-32.67-5.82-49.01-8.73-2.31-.41-4.62-.82-6.93-1.23-1.31-.3-2.63-.54-3.95-.7-.12-.02-.23-.04-.35-.06-.26-.05-.52-.06-.78-.06-6.81-.68-13.65.39-20.14,3.29-5.93,2.65-11.29,6.62-15.71,11.36-9.6,10.3-15.06,23.84-18.33,37.36C1.17,186.75-.01,202.68,0,218.41c.01,15.31,1.24,30.6,3.29,45.76,1.6,11.87,3.63,23.77,6.84,35.32,3.16,11.39,8.45,23.16,19.46,28.87,4.21,2.18,8.86,3.04,13.57,3.08.26.06.53.09.81.06.2-.02.4-.05.6-.07,3.1-.07,6.21-.48,9.23-1.07,24.34-2.79,48.66-5.66,73-8.48,7.32-.85,14.64-1.69,21.97-2.52,5.49,8.39,12.27,16.75,21.48,20.98,8.06,3.7,16.91,3.64,25.02.86.54.16,1.15.19,1.83,0,19.23-5.18,38.5-10.23,57.77-15.27-.22,19.43,4.03,38.8,12.24,56.43,2.19,4.7,4.69,9.25,7.45,13.64-3.25.74-6.49,1.53-9.69,2.43-8.27,2.32-15.93,6.33-20.42,13.94-4.52,7.65-5.6,16.91-6.98,25.53-6.44,40.46-8.26,81.62-5.27,122.48,2.71,36.99,8.04,75.44,25.28,108.78,15.17,29.33,41.7,54.51,74.74,61.56,16.45,3.51,33.41,1.84,49.02-4.34,16.09-6.37,30.32-16.55,43-28.21,1.59-1.47,3.16-2.96,4.71-4.47,2.28,13.75,1.24,28.02-3.04,41.28-1.39-.02-2.77-.03-4.16-.06-12.81-.19-25.63-.4-38.44-.71-6.24-.15-12.47-.31-18.69-.7-.02,0-.04,0-.07-.01,0,0,.02,0,.03.01-.73-.05-.1.06.16.07.61.25,1.21.68,1.71,1.41-2.45-3.57-8.32-.19-5.84,3.42,1.38,2,3.77,1.88,5.94,2.01,2.98.17,5.97.26,8.96.35,11.01.33,22.02.52,33.03.7,4.96.08,9.92.15,14.88.23-.45,1.08-.93,2.15-1.42,3.22-.78,1.65-.46,3.65,1.21,4.63,1.47.86,3.85.45,4.63-1.21,1-2.14,1.91-4.32,2.75-6.52,8.99.13,17.98.25,26.96.36,20.05.25,40.09.48,60.14.71,21.92.24,43.85.47,65.77.7,22.17.23,44.35.46,66.52.7,20.8.22,41.6.45,62.4.71,17.54.21,35.07.43,52.61.7,12.81.19,25.63.4,38.44.71,6.24.15,12.47.31,18.69.7.02,0,.04,0,.07.01,0,0-.02,0-.03-.01.07,0,.11,0,.15,0,1.91.51,4.02-.8,4.28-3.2,3.33-31.36,3.69-63.01,1.09-94.43-2.6-31.44-8.07-62.66-16.39-93.1-8.21-30.01-19.14-59.38-32.85-87.31-8.46-17.25-18.29-34.14-30.28-49.25,23.96-8.89,41.63-29.63,54.67-51.03ZM621.66,176.66c3.45,13.45,6.91,26.89,10.36,40.34.83,3.24,5.68,3.21,6.53,0,2.05-7.75,11.08-12.31,18.62-10.69,8.79,1.88,15.04,10.54,15.93,19.22,1.12,10.78-4.43,21.42-12.27,28.51-3.59,3.24-8.18,5.95-13.12,6.24-4.22.24-9.07-1-11.62-4.65-2.32-3.33-2.84-9,.68-11.61,2.72-2.01,7.25-1.68,8.97,1.1,2.28,3.7,8.14.3,5.84-3.42-3.02-4.89-9.16-6.72-14.57-5.18-5.96,1.7-9.6,7.29-9.55,13.38.06,6.43,3.89,12.39,9.72,15.09,5.71,2.65,12,2.57,17.8.45-.99,1.33-1.92,2.71-2.78,4.15-7.2,12.14-8.46,26.72-6.97,40.49,1.58,14.51,5.51,28.78,9.51,42.79,1.28,4.46,2.67,8.92,4.21,13.33-23.59-2.59-48.24,2.76-66.85,17.75-.04,0-.08-.02-.12-.02-3.47-.31-6.94-.47-10.42-.54.21-.29.39-.61.52-1,4.09-12.75,8.18-25.49,12.26-38.24,0,0,0,0,0-.01,9.17-5.11,18.04-10.76,26.54-16.91,1.48-1.07,2.2-2.94,1.21-4.63-.85-1.46-3.14-2.29-4.63-1.21-9.2,6.66-18.81,12.73-28.78,18.15-9.68,5.27-19.79,10.33-30.22,13.95-4.29,1.49-9.22,2.89-13.79,1.95-4.22-.87-7.25-3.63-8.93-7.55-1.69-3.93-2.08-8.37-2.2-12.6-.17-5.78.03-11.57.51-17.33.22-2.62.53-5.22.89-7.82,12.11-.63,24.21-1.27,36.32-1.9,4.33-.23,4.36-7,0-6.77-11.75.62-23.5,1.23-35.25,1.85,1.49-8.1,3.62-16.09,6.32-23.87.92-2.65-1.83-4.58-4.16-4.16-4.2.75-9.09,1.74-13.11-.26-3.73-1.86-4.47-5.2-3.74-9.09.95-5.06,2.39-10.07,3.6-15.07,1-4.11,1.99-8.22,2.99-12.33,19.76-.82,39.51-1.65,59.27-2.47,1.69-.07,2.72-1.15,3.09-2.42,6.57-4.96,9.73-13.21,9.79-21.36.07-9.98-4.45-19.24-8.92-27.93,10.38-1.71,20.63-4.44,30.46-7.68ZM258.06,456.38c2.85-17.16,5.7-34.32,8.55-51.49,1.45-.42,2.92-.79,4.4-1.13,5.57,14.63,11.15,29.26,16.72,43.9-10.05,2.31-19.97,5.2-29.67,8.72ZM294.39,446.21c-5.57-14.62-11.14-29.24-16.71-43.87,1.25-.25,2.48-.51,3.7-.78,7.18-1.59,14.37-3.19,21.55-4.78-1.2,16.15-2.4,32.31-3.6,48.46-1.65.3-3.3.63-4.94.96ZM309.81,395.25c.42-.09.85-.19,1.27-.28,3.82-.85,7.63-1.69,11.45-2.54.31,16.51.82,33.01,1.79,49.49-6.07.52-12.13,1.24-18.15,2.18l3.63-48.85ZM329.12,382.06c-.09-6.27-.17-12.55-.24-18.83,2.43-.61,4.86-1.19,7.3-1.74.21,17.67.41,35.34.62,53-2.3.53-4.59,1.08-6.89,1.64-.38-11.36-.62-22.72-.79-34.09ZM343.55,412.98c-.21-17.58-.41-35.16-.62-52.73,0-.06-.02-.11-.02-.16,7.24-1.44,14.54-2.61,21.87-3.48-1.51,17.66-3.02,35.32-4.52,52.98-1.08.21-2.17.39-3.25.6-4.5.88-8.98,1.82-13.45,2.81ZM371.61,355.86c8.87-.84,17.77-1.28,26.68-1.3-7.42,16.35-12.86,33.54-16.02,51.23-5.06.77-10.1,1.62-15.14,2.51,1.49-17.48,2.99-34.96,4.48-52.44ZM405.62,354.71s.02-.05.03-.07c2.9.07,5.8.19,8.7.35,0,.08-.03.15-.03.23-.74,15.61-1.48,31.22-2.22,46.82-7.6.77-15.19,1.69-22.75,2.75,3.33-17.29,8.75-34.16,16.28-50.08ZM421.07,355.42c3.59.28,7.18.6,10.76,1.01,3.6.41,7.18.92,10.76,1.48-3.21,13.82-5.07,27.95-5.56,42.13-6.05.36-12.1.82-18.14,1.36.73-15.33,1.45-30.65,2.18-45.98ZM449.27,359.04c3.44.62,6.87,1.3,10.29,2.05-.25,12.69,0,25.38.73,38.05-5.5.11-10.99.31-16.48.57.5-13.71,2.32-27.31,5.46-40.67ZM585.26,390.24c-17.47,17.94-25.55,42.88-30.27,67.01-2.69,13.77-3.95,27.77-6.57,41.55-2.62,13.78-7.9,28.12-20.9,35.23-5.62,3.07-12.04,3.93-18.17,1.95-6.14-1.98-11.45-6.5-15.17-11.69-4.4-6.14-7.08-13.24-9.24-20.42-2.35-7.81-4.33-15.75-6.19-23.69-3.53-15.17-6.31-30.5-8.36-45.93,24.57-24.28,57.65-39.77,92-43.35,7.6-.79,15.24-1.01,22.87-.66ZM585.77,188.56c3.66,7.1,7.36,14.66,7.57,22.74.17,6.61-2.1,13.86-7.95,17.54-.26.16-.47.35-.66.54-19.16.8-38.31,1.6-57.47,2.39-1.26-.79-3-.83-4.11.17-1.91.08-3.82.16-5.73.24,1.86-13.24.82-26.87-3.23-39.72-.39-1.23-.82-2.45-1.26-3.67,24.28-.08,48.56-.15,72.84-.23ZM510.99,255.26c2.26-5.26,3.98-10.72,5.19-16.29.09,0,.16.02.25.01,1.5-.06,3-.12,4.5-.19-1.04,4.27-2.07,8.54-3.11,12.81-.73,3-1.46,6.01-2.19,9.01-.66,2.74-1.37,5.57-1.32,8.41.1,5.49,3.28,10.03,8.27,12.23,3.75,1.65,7.68,1.79,11.62,1.39-2.14,6.89-3.81,13.9-5.03,21.01-3.07.16-6.15.32-9.22.48-4.33.23-4.36,7,0,6.77,2.73-.14,5.46-.29,8.19-.43-.17,1.32-.34,2.65-.48,3.98-.66,6.22-.96,12.49-.88,18.74.06,5.04.37,10.25,1.97,15.06,1.57,4.75,4.4,9.07,8.8,11.63,4.9,2.85,10.67,2.94,16.1,1.92,5.61-1.05,10.91-3.39,16.13-5.62,5.43-2.32,10.77-4.83,16.03-7.5-3.41,10.63-6.82,21.26-10.23,31.88-.36,1.13-.13,2.07.4,2.78-30.85.45-61.58,10.06-87.21,27.2-6.87,4.59-13.36,9.74-19.42,15.34-1.72-14.99-2.74-30.07-3.04-45.16-.16-8-.11-16.01.12-24.01,14.76-29.21,24.08-61.17,25.9-93.91,5.14-1.37,10.29-2.73,15.43-4.1,1.14-.3,2.05-1.29,2.37-2.42.37-.26.67-.6.86-1.04ZM425.61,271.5c-11.95-28.65-16.77-60.27-13.86-91.18,6.33,13.2,10.79,27.27,13.28,41.7,2.81,16.31,3.01,33.1.58,49.48ZM391.46,153.98c6.62,3.16,11.09,9.51,14.72,15.74-1.11,7.27-1.66,14.67-1.9,21.97-.32,9.78.1,19.58,1.25,29.3,2.61,22.07,8.82,43.52,18.52,63.51,1.26,2.59,5.58,1.95,6.19-.81,8.31-37.82,2.75-78.3-15.48-112.48-.5-.93-1.01-1.86-1.52-2.79.38-2.44.84-4.86,1.57-7.19.89-2.85,2.41-5.87,5.48-6.76,3.11-.9,6.21,1.21,8.38,3.24,3,2.81,5.1,6.24,7.04,9.82,8.76,16.15,15.16,33.53,19.15,51.46,4.46,20.07,5.75,40.76,3.89,61.23-.17,1.82,1.67,3.38,3.38,3.38,1.97,0,3.22-1.56,3.38-3.38,3.44-37.95-4.07-76.75-21.21-110.77,1.05-.58,1.71-1.7,1.81-2.97.13-1.67,1.28-3.33,2.91-4.36,2.1-1.33,4.34-1.81,6.82-1.69,2.34.11,4.66,1.17,6.72,2.89,2.56,2.14,4.45,4.89,6.04,7.81,3.53,6.47,5.93,13.66,8.16,20.66,2.38,7.48,4.31,15.11,5.77,22.82,5.78,30.49,3.93,62.14-4.05,92.06-4.4,16.49-10.63,32.41-18.38,47.6-34.79-7.42-70.77-8.44-105.94-3.07-1.08.16-2.15.36-3.23.54-10.09-11.7-12.61-28.82-7.59-43.26,5.05-14.54,18.29-24.26,33.18-26.92,8.15-1.45,16.93-.6,24.5,2.82,1.66.75,3.64.48,4.63-1.21.85-1.45.46-3.87-1.21-4.63-9.25-4.18-19.64-5.26-29.54-3.52.35-.73.46-1.59.3-2.45-3.74-20.42-5.64-41.15-5.7-61.9-.03-10.31.39-20.61,1.26-30.88.6-7.03,1.32-14.56,5.05-20.74,3.31-5.48,9.5-8.01,15.66-5.07ZM137.79,140.22c3.25.58,6.5,1.16,9.75,1.74-1.18,1.87-2.28,3.8-3.37,5.74-6.7,11.98-12.41,24.46-17.47,37.2.07-11.12.61-22.24,1.74-33.31.19-1.82-1.69-3.38-3.38-3.38-1.98,0-3.2,1.56-3.38,3.38-1.71,16.85-2.16,33.83-1.46,50.76-.9,2.59-1.79,5.2-2.65,7.8-.84,2.55-1.66,5.11-2.47,7.67-1.06-14.48-2.69-28.91-5.26-43.18-3.03-16.76-11.42-33.08-24.59-43.78,1.18.21,2.36.42,3.54.63,16.34,2.91,32.67,5.82,49.01,8.73ZM33.43,133.82c-.33.26-.13.1,0,0h0ZM21.36,310.3c-3.82-7.25-5.64-15.51-7.35-23.48-2.74-12.77-4.44-24.63-5.66-37.27-1.5-15.56-2.08-31.25-1.13-46.86.48-7.89,1.25-14.91,2.68-22.47,1.35-7.18,3.21-14.28,5.86-21.1.72-1.85.99-2.48,1.85-4.34.72-1.55,1.5-3.09,2.32-4.59,1.53-2.78,3.24-5.46,5.17-7.98.09-.11.41-.51.5-.62.26-.31.51-.63.78-.93.52-.61,1.06-1.22,1.61-1.8,1.09-1.17,2.23-2.29,3.43-3.35.52-.46,1.06-.91,1.6-1.35.15-.12.3-.24.44-.35.02-.01.04-.03.05-.04.36-.27.72-.54,1.08-.8,1.27-.9,2.58-1.73,3.93-2.5,1.37-.78,2.79-1.48,4.24-2.11.16-.06.67-.27.76-.31.34-.13.68-.26,1.02-.39,1.29-.47,2.6-.86,3.93-1.16,3.35-.75,6.81-.81,10.21-.39,1.25.22,2.5.45,3.75.67.37.09.75.17,1.12.26,10.59,2.78,19.79,9.59,26.44,18.2,7,9.06,11.3,19.97,13.32,31.18,2.17,12.01,3.57,24.16,4.59,36.32.66,7.89,1.15,15.79,1.5,23.7-3.01,10.04-6.01,20.08-9.35,30.02-2.64,7.86-5.43,15.48-8.89,22.75-1.6,3.37-3.34,6.68-5.29,9.87-.94,1.54-1.92,3.05-2.96,4.52-1.14,1.62-1.57,2.19-2.75,3.6-2.12,2.55-4.45,4.93-7,7.06-.32.27-.64.53-.97.79-.13.11-.16.13-.17.14-.03.02-.09.07-.26.19-.71.52-1.42,1.03-2.16,1.52-1.35.89-2.74,1.71-4.17,2.46-2.94,1.53-5.44,2.49-9,3.44-1.51.4-2.89.71-4.23.95-2.12.24-4.24.49-6.36.73-4.8.29-9.25.03-13.54-2.36-4.86-2.71-8.39-6.97-10.96-11.85ZM75.14,321.14c5.7-4.21,10.6-9.54,14.66-15.6,9.1-13.58,14.41-29.56,19.3-45.02.31-.98.61-1.96.92-2.94.1,6.33.15,12.66.13,19-.02,5.85-.12,11.69-.12,17.54,0,4.36,6.77,4.36,6.77,0,0-15.79.23-31.57-.25-47.36-.1-3.15-.21-6.3-.34-9.45,1.7-5.64,3.42-11.28,5.19-16.9.3,3.32.65,6.64,1.04,9.96,2.57,21.85,6.77,43.79,14.39,64.48,2.29,6.21,4.88,12.39,8.1,18.19-23.26,2.66-46.52,5.39-69.78,8.1ZM176.2,335.45c-10.24-3.22-17.28-12.72-22.81-21.38-4.24-6.64-7.38-13.77-10.05-21.03-3.51-9.53-6.23-19.35-8.46-29.25-4.47-19.86-6.97-40.16-7.84-60.5.07-.19.13-.38.2-.57,3.67-10.47,7.71-20.82,12.32-30.91,2.43-5.32,5.01-10.56,7.75-15.72,2.47-4.66,4.86-9.75,8.21-13.85,11.65-14.24,34.5-17.15,50.92-10.61,22.64,9.01,31.27,34.78,34.74,56.79,3.82,24.23,2.62,49.3-3.11,73.12-2.88,11.99-6.89,23.72-12.07,34.91-4.94,10.66-10.63,21.63-19.23,29.83-7.96,7.59-19.58,12.62-30.55,9.17ZM212.49,330.12c5.97-5.99,10.63-13.31,14.6-20.74,11.84-22.13,19.16-46.49,21.88-71.42,1.35-12.36,1.51-24.84.45-37.23-1.08-12.61-3.1-25.42-7.4-37.37-3.95-10.96-10-21.34-18.85-29.07,15.25,2.73,30.53,5.31,45.83,7.78,21.87,3.54,43.76,6.89,65.66,10.24,11.39,1.75,22.79,3.5,34.18,5.28-1.94,3.9-3.06,8.3-3.75,12.44-1.67,10.1-2.01,20.54-2.26,30.76-.61,24.64,1.39,49.32,5.83,73.57.14.75.61,1.35,1.21,1.78-5.32,1.49-10.42,3.81-15.02,6.96-5.02,3.43-9.19,7.75-12.46,12.63-.29,0-.59.04-.91.13-27.14,7.51-54.38,14.65-81.62,21.77-1.38-.51-3.17-.15-4.14,1.08-9.39,2.45-18.78,4.91-28.16,7.38-5.03,1.32-10.05,2.68-15.08,4.01ZM262.04,337.92c-.39-4.57-.5-9.16-.38-13.74,16.53-4.32,33.07-8.65,49.58-13.06,8.93-2.39,17.85-4.81,26.77-7.26-3.35,7.9-4.65,16.7-3.6,25.5,1.03,8.61,4.03,16.75,9.03,23.74-6.44,1.24-12.84,2.67-19.19,4.33-2.23.59-2.76,2.69-2.16,4.37.09,7.91.19,15.83.32,23.74-9.67,2.15-19.35,4.29-29.02,6.44-3.92.87-7.87,1.68-11.82,2.52-11-16.89-17.84-36.46-19.53-56.57ZM246.09,427.79c1.63-7.69,4.44-15.1,11.57-19.23.54-.31,1.1-.58,1.66-.85-2.85,17.15-5.69,34.29-8.54,51.44-3.35,1.33-6.68,2.73-9.97,4.2.28-2.54.58-5.08.9-7.62,1.18-9.33,2.43-18.74,4.39-27.94ZM343.87,725.64c-31.25-2.35-58.63-23.84-74.77-49.72-18.91-30.32-25.44-66.6-28.94-101.64-3.43-34.4-3.47-69.13-.14-103.54.52-.03,1.04-.16,1.54-.38,21.04-9.6,43.45-16.23,66.3-19.76,5.6-.86,11.23-1.5,16.87-1.97,1.86,27.69,5.15,55.38,11.25,82.47,5.36,23.77,12.98,47.06,23.3,69.15,10.19,21.82,23.17,42.39,39.15,60.44,8.45,9.55,17.8,18.3,27.89,26.07-21.89,21.97-50.11,41.31-82.45,38.88ZM820.7,746.14c.09.09.18.17.27.25-.09-.08-.18-.16-.27-.25ZM822,747.05c-.29-.12-.59-.29-.87-.51.29.23.6.4.92.51-.02,0-.03,0-.05,0ZM761.44,451.58c15.15,26.01,26.81,54.21,36.16,82.77,9.8,29.92,16.84,60.8,20.87,92.04,4.03,31.27,5.15,62.91,3.28,94.39-.39,6.49-.93,12.96-1.57,19.43-2.98-.17-5.97-.26-8.95-.35-11.01-.33-22.02-.52-33.03-.7-16.34-.27-32.67-.5-49.01-.7-20.05-.25-40.09-.48-60.14-.71-21.92-.24-43.85-.47-65.77-.7-22.17-.23-44.35-.46-66.52-.7-20.8-.22-41.6-.45-62.4-.71-13.83-.17-27.66-.36-41.48-.55,3.99-13.41,5.03-27.6,2.91-41.47,5.83,3.96,11.88,7.6,18.13,10.88,20.8,10.92,43.63,18,67.09,19.85,23.18,1.83,46.4-1.98,67.78-11.07,20.82-8.85,39.55-22.46,55.05-38.9,16.68-17.69,29.41-38.61,38.39-61.15,9.56-23.99,14.71-49.62,16.43-75.34.42-6.26.62-12.54.64-18.81.01-4.36-6.76-4.36-6.77,0-.06,25.13-3.29,50.26-10.55,74.35-6.93,22.98-17.59,45.1-32.46,64.01-13.72,17.45-30.65,32.4-50.11,43.16-19.32,10.69-40.9,16.82-63,17.4-22.61.59-45.26-4.24-66.01-13.12-21.03-9-40.34-21.95-56.69-37.94-16.83-16.46-30.66-35.72-41.75-56.45-11.17-20.89-19.54-43.17-25.69-66.03-6.93-25.72-10.99-52.14-13.41-78.65-1.3-14.22-2.13-28.48-2.69-42.75,33.6-8.31,67.89-13.7,102.43-15.99,9.37-.62,18.75-1.01,28.13-1.19,1.21,16.83,3.28,33.59,6.21,50.21,2.87,16.3,6.47,32.55,11.13,48.43,4.03,13.73,10.29,27.89,23.3,35.26,12.44,7.06,26.67,4.02,37.01-5.26,11.23-10.08,15.29-25.17,17.54-39.55,4.14-26.5,6.72-53.91,18.97-78.23,5.73-11.38,13.62-21.89,23.96-29.48,10.12-7.43,21.96-11.95,34.32-13.9,9.4-1.49,19-1.47,28.45-.14,2.79,6.94,6.11,13.65,10.25,19.87,7.13,10.7,16.68,20.27,28.43,25.78,12.83,6.01,27.27,6.7,40.9,3.16,0,0,.02,0,.03,0,7.54,9.28,14.24,19.28,20.23,29.56ZM669.53,374.66c13.12,2.87,25.74,8.18,36.88,15.41,11.2,7.27,21.07,16.2,29.86,26.13-4.42.91-8.93,1.36-13.48,1.23-12.29-.34-23.7-5.4-32.81-13.54-9.13-8.15-15.55-18.27-20.45-29.24ZM759.68,406.52c-5.03,3.22-10.46,5.85-16.13,7.73-4.1-4.79-8.42-9.39-13.03-13.72-18.02-16.93-39.77-28.91-64.02-33.24-4.27-11.3-7.26-23.21-10.11-34.63-3.24-12.98-5.95-26.43-4.59-39.87,1.2-11.91,6.4-22.83,15.5-30.67,7.98-6.88,18.5-11.06,29.01-11.7.16,0,.33-.01.49-.02,6.39,27.51,14.63,54.59,24.7,80.98,2.64,6.91,5.11,14.09,8.61,20.63,3.27,6.12,8.05,11.38,14.76,13.66,6.08,2.07,13.03.75,17.44-4.06,4.08-4.45,5.56-10.49,6.19-16.34.72-6.69.41-13.6-.11-20.29-.57-7.39-1.68-14.77-3.52-21.96-3.43-13.33-9.47-25.96-18.54-36.37-8.28-9.51-19.08-17.07-31.2-20.74-4.21-1.28-8.55-2.02-12.92-2.24-5.3-23.66-9.25-47.63-11.71-71.75-.73-7.16-1.33-14.32-1.82-21.5-.12-1.82-1.47-3.38-3.38-3.38-1.74,0-3.51,1.55-3.38,3.38,2.09,30.91,6.45,61.67,13.06,91.93.1.46.21.93.32,1.39-5.37.39-10.68,1.56-15.74,3.49-2.27.87-4.48,1.88-6.62,3.02,3.51-5.2,5.92-11.17,6.75-17.39,1.66-12.44-4.23-26.18-16.09-31.51-9.15-4.11-20.63-1.63-27.13,5.66-2.79-10.86-5.58-21.72-8.37-32.57,5.38-1.92,10.72-3.98,16.01-6.13,1.69-.69,2.89-2.25,2.36-4.16-.44-1.6-2.46-3.06-4.16-2.36-27.29,11.09-57.08,20.77-86.91,16.93-24.11-3.1-46.39-16.38-60.6-36.12-7-9.73-11.99-20.76-14.33-32.53-2.34-11.76-1.92-24.08.88-35.72,2.8-11.65,7.96-22.83,15.41-32.25,8.31-10.52,19.27-18.5,31.3-24.29,24.99-12.01,56.3-16.03,81.77-3.21,10.91,5.5,20.49,13.74,26.63,24.39,6.64,11.49,8.65,24.96,7.38,38.06-2.44,25.13-17.33,50.36-39.37,63.11-11,6.36-23.98,9.27-36.64,7.54-11.84-1.62-23.16-7.46-30.24-17.26-6.54-9.06-9.93-20.83-7.36-31.89,2.41-10.38,10.18-18.92,20.03-22.88,9.22-3.7,20.28-3.23,27.81,3.29,7.16,6.2,10.89,15.93,9.75,25.29-.48,3.89-2.21,8.18-4.91,11.3-1.19,1.38-1.36,3.43,0,4.79,1.22,1.22,3.59,1.39,4.79,0,15.22-17.6,4.18-48-18.2-52.98-12-2.67-24.57,1.5-33.69,9.45-9.49,8.27-14.19,20.71-13,33.21,1.22,12.76,7.62,25.07,17.62,33.16,10.93,8.84,25.27,12.62,39.19,11.59,28.41-2.1,51.46-23.04,62.94-48.17.51-1.11.99-2.24,1.45-3.37,13.56-1.46,27.28-2.13,40.88-.92,5.25.47,10.09,1.18,15.45,2.45,2.33.55,4.63,1.19,6.9,1.92,1.03.33,2.05.69,3.06,1.06.52.19,1.03.39,1.54.59.18.07.37.15.55.22.16.06.31.13.47.19.03.01.04.02.07.03,3.69,1.6,7.25,3.51,10.56,5.79.72.5,1.43,1.01,2.12,1.54.17.13.57.45.66.52.39.31.77.64,1.15.96,1.36,1.17,2.66,2.41,3.89,3.71.6.64,1.19,1.29,1.76,1.96.26.3.51.6.76.91.11.14.5.63.63.79,1,1.31,1.94,2.66,2.82,4.06.93,1.48,1.8,3,2.6,4.56.37.73.74,1.46,1.08,2.2.17.35.33.71.49,1.06.1.21.19.43.28.64.02.04.12.29.19.45.09.21.31.76.37.9.15.36.29.73.43,1.09.34.88.65,1.76.96,2.66.56,1.64,1.07,3.3,1.54,4.97.95,3.38,1.72,6.81,2.37,10.27.33,1.74.63,3.49.9,5.24.13.84.26,1.68.38,2.52.06.44.13.88.19,1.32.03.19.05.38.08.57,0,.07.02.14.03.22.46,3.52.86,7.04,1.24,10.56,1.43,13.17,2.28,26.93,6.98,39.44,4.27,11.37,11.99,21.49,21.03,29.51,11.37,10.08,25.29,17.37,40.12,20.73,2.6.59,5.23,1.04,7.87,1.38-1.25,26.12-7.58,52.03-18.6,75.75-5.73,12.32-12.65,24.16-20.8,35.04-7.6,10.16-16.64,19.53-27.37,26.4ZM703.79,250.58c8.82.88,17.25,4.19,24.68,9.18,21.56,14.48,31.22,40.23,33.15,65.23.5,6.39.76,12.96.2,19.35-.41,4.6-1.5,10.01-5.05,13.24-3.92,3.57-9.54,2.49-13.64-.24-5.13-3.42-7.89-9.68-10.14-15.19-11.13-27.16-20.2-55.2-27.3-83.67-.66-2.63-1.28-5.26-1.9-7.9Z" fill="#231f20" stroke-width="0"/>
</svg>