<?xml version="1.0" encoding="UTF-8"?>
<svg id="a" data-name="Layer 1" xmlns="http://www.w3.org/2000/svg" viewBox="0 0 750 634.24">
  <path d="M337.96,189.09c15.22-7.4,34.77-5.28,47.99,5.32,1.23.99,2.93,1.2,4.14,0,1.02-1.02,1.24-3.14,0-4.14-15.41-12.37-37.28-14.89-55.08-6.24-1.42.69-1.8,2.71-1.05,4,.85,1.45,2.58,1.74,4,1.05Z" fill="#231f20" stroke-width="0"/>
  <path d="M730.93,428.13c-10.88-21.32-25.06-41.01-40.73-59.05-9.39-10.82-19.47-21.04-30.14-30.61,3.5-18.45,4.87-38-2.03-55.85-3.3-8.55-8.34-16.53-15.41-22.45-.88-.74-1.79-1.44-2.72-2.12,2.09-14.94-.56-30.01-6.8-43.89-7.17-15.96-18.84-30.47-32.81-41.01-7.18-5.41-15.67-9.51-24.57-11.02-1.89-.32-3.84-.53-5.81-.63-.18-6.27-.86-12.53-1.97-18.7-4.72-26.26-17.56-52.85-38.59-69.86-10.37-8.39-22.65-14.27-35.92-16.11-7.6-1.05-15.34-.96-22.83.42-2.87-15.2-10.24-29.63-21.79-40.06C436.02,5.63,418.53-.93,401.25.11c-16.33.98-31.92,8.97-42.23,21.7-2,2.47-3.78,5.09-5.35,7.83-22.69-13.5-52.42-9.42-73.2,5.94-21.68,16.02-33.98,41.09-38.84,67.13-4.53-.28-9.1,0-13.51.78-13.34,2.35-25.41,9.34-34.9,18.88-9.62,9.67-16.57,21.61-21.77,34.14-5.85,14.11-9.43,29.11-10.92,44.3-1.25,12.73-1.12,25.93,1.03,38.63-3.86,3.36-7.28,7.28-10.22,11.46-8.01,11.39-13.1,25.06-15.85,38.64-2.92,14.41-3.16,29.24-.76,43.74,1.08,6.54,2.76,12.96,4.97,19.2-3.11,3.44-6.03,7.05-8.68,10.87-5.16,7.47-9.21,15.87-11.28,24.74-1.78,7.62-2.86,16.84.88,24.08,1.82,3.53,5.15,6.18,9.12,6.75,4.74.68,9.22-1.15,12.91-4.02,2.09-1.63,3.98-3.51,5.81-5.44.29,5.98,1.27,11.92,2.97,17.68,2.73,9.26,8.31,22.83,19.95,22.71,5.51-.06,10.23-3.65,13.07-8.18,3.23-5.15,3.75-11.41,4.22-17.32.95-12.01,3.46-23.76,7.74-35.03,2.36-6.22,5.28-12.23,8.64-17.97,1.16-1.98,2.4-3.95,3.78-5.8,2.53.89,4.83,2.33,6.65,4.36,2.46,2.75,3.29,6.43,2.9,10.05-.75,6.94-5.04,11.95-9.33,16.85-4.15,4.75-8.74,9.27-12.28,14.51-4.86,7.18-7.87,16.4-3.6,24.59,4.14,7.96,13.49,9.18,21.39,6.98,3.56-.99,6.91-2.63,10.21-4.26,2.1-1.04,4.18-2.13,6.24-3.24-.9,1.11-1.79,2.22-2.66,3.35-4.8,6.22-9.14,12.77-12.81,19.73-.83,1.58-.13,3.07,1.03,3.85.01.01.02.03.03.04,20.97,24.68,38.2,52.52,51.06,82.25,3.59,8.3,6.8,16.77,9.68,25.35.34,1.01,1.04,1.59,1.83,1.85-8.94.18-17.89.37-26.83.56v-35.12c0-4.34.5-9.01,0-13.33-.24-2.05-1.91-2.93-3.38-4.13-18.02-14.65-36.05-29.31-54.07-43.96-25.32-20.58-50.63-41.16-75.95-61.75-8.89-7.23-17.78-14.45-26.66-21.68l-6.72-5.46c-1.53-1.24-2.62-2.27-4.82-1.92-25.43,4.04-50.77,8.68-76.15,13.02-.81.14-1.62.28-2.43.41-1.25.21-2.15,1.63-2.15,2.82v179.37c0,1.55,1.34,2.96,2.92,2.92,5.04-.11,10.08-.22,15.12-.34,13.81-.31,27.61-.61,41.42-.91,5.1-.11,10.19-.22,15.29-.33,3.35,10.42,10.46,19.6,20.43,24.76,9.06,4.69,19.63,6.16,29.63,4.12,7.42-1.52,14.13-5.16,19.61-10.23,12.53,13.99,29.51,23.91,47.45,29.16,20.55,6.01,43.17,6.05,63.57-.58,20.03-6.51,37.36-19.56,48.13-37.78,2.43-4.12,4.52-8.47,6.22-12.97,3.52,4.31,7.65,8.11,12.43,11,8.67,5.25,19.38,6.62,28.56,1.8,6.18-3.24,11.01-8.91,13.83-15.35,25.64-.5,51.28-1,76.92-1.47,22.7-.42,45.4-.82,68.1-1.18,17.02-.27,34.05-.53,51.07-.7.07,0,.15,0,.22,0,15.31,8.22,31,15.7,47.59,20.96,22.75,7.21,47.42,9.78,70.82,4.15,11.29-2.71,22.21-7.43,31.61-14.27,8.68-6.32,16.03-14.24,21.88-23.23,11.78-18.11,17.35-40.11,17.17-61.61-.21-24.61-7.96-48.67-19.06-70.43ZM640.89,266.45c12.41,11.96,16.37,29.81,16.26,46.47-.05,7.1-.93,14.1-2.17,21.06-4.58-3.96-9.26-7.8-14.05-11.52-8.35-6.49-16.99-12.59-25.87-18.32,4.74-3.77,8.71-8.63,12.1-13.53,5.15-7.45,8.97-15.89,11.22-24.66.12-.49.22-.98.34-1.46.75.63,1.47,1.28,2.18,1.96ZM583.69,286.11c-.12-.06-.24-.11-.35-.17.1-2.51.5-4.99,1.13-7.28,2.09-7.64,6.94-14.29,13.67-18.48,6.56-4.09,14.51-5.78,22.15-4.43,4.71.83,9.18,2.6,13.25,5.06-1.67,8.33-4.84,16.36-9.3,23.6-3.74,6.07-8.49,12.27-14.45,16.42-8.48-5.26-17.18-10.19-26.09-14.71ZM603.76,303.97c-5.81,1.97-12.51,1.39-16.53-3.85-1.65-2.15-2.71-4.65-3.31-7.3,6.73,3.5,13.35,7.21,19.84,11.14ZM244.92,123.57c.3-4.81.81-9.64,1.54-14.43,10.67,2.03,19.88,8.03,25.55,17.4,5.18,8.55,7.18,19.44,3.21,28.88-2.03,4.83-6.01,9.53-11.08,11.28-5.24,1.81-10.23-.14-13.8-4.18-4.26-4.81-5.36-11.53-5.68-17.73-.36-7.05-.18-14.18.26-21.22ZM194.58,378.7c-4.89,10.49-8.4,21.6-10.29,33.02-.96,5.83-1.19,11.7-1.95,17.55-.61,4.71-2.01,9.68-5.88,12.76-3.31,2.64-7.46,2.46-10.68-.21-3.6-2.98-5.68-7.48-7.26-11.77-3.14-8.56-4.61-17.67-4.33-26.75,2.88-3.04,5.76-6.08,8.63-9.11,3.51-3.71,7.03-7.42,10.54-11.13,3.13-3.3,6.26-6.63,9.7-9.62,5.23-4.54,12.15-8.72,19.31-8.9-2.99,4.48-5.54,9.29-7.81,14.16ZM222.18,433.39c-5.67,2.83-12.93,6.5-19.34,3.92-7.18-2.89-6.74-12.21-3.95-18.02.95-1.98,2.1-3.85,3.35-5.65.16-.23.32-.45.49-.68.06-.08.12-.17.19-.25.39-.5.79-.98,1.19-1.47,2-2.4,4.1-4.71,6.18-7.04,4.08-4.57,8.67-9.19,11.27-14.82,3.56-7.71,4.05-16.73-1.81-23.46-1.9-2.18-4.21-3.83-6.74-4.99,1.2-1.06,2.5-2.01,3.94-2.79,3.31-1.8.36-6.85-2.95-5.05-2.83,1.54-5.25,3.61-7.39,5.97-2.92-.42-5.94-.34-8.85.21-8.88,1.68-16.34,7.4-22.64,13.59-6.74,6.63-13.09,13.69-19.59,20.55-.12.13-.24.26-.37.39.11-.63.22-1.27.34-1.9.31-1.55-.44-3.16-2.04-3.6-1.44-.4-3.29.49-3.6,2.04-.69,3.46-1.14,6.96-1.36,10.48-1.04,1.1-2.08,2.2-3.13,3.3-2.81,2.97-5.61,6.33-9.38,8.11-3.04,1.44-6.78,1.5-9.12-1.15-1.91-2.17-2.6-5.39-2.79-8.21-.55-8.18,1.6-16.69,4.91-24.12,7.06-15.82,19.69-28.22,32.88-39.06,12.49-10.28,26.97-19.2,43.64-19.34,15.75-.13,31.24,6.65,42.94,16.99,12.12,10.71,20.74,24.88,26.7,39.79,1.38,3.46,2.62,6.97,3.77,10.51-7.46,6.86-14.92,13.73-22.29,20.7-4.4,4.16-8.73,8.4-12.93,12.77-6.92,4.52-14.13,8.61-21.53,12.29ZM282.97,568.39c-10.52-31.35-25.67-61.12-44.92-88-5.16-7.21-10.63-14.21-16.34-21,13.08-23.65,33.58-41.94,53.22-60.07,5.29-4.89,10.58-9.77,15.88-14.66,13.79,18.61,27.58,37.23,41.37,55.84,4.1,5.53,8.2,11.06,12.29,16.59.94,1.27,2.53,1.91,4,1.05,1.25-.73,1.99-2.72,1.05-4-14.37-19.4-28.75-38.79-43.12-58.19-3.81-5.14-7.61-10.27-11.42-15.41,1.28-2.51-2.29-5.58-4.77-3.29-2.19,2.02-4.38,4.03-6.57,6.05-5.14-15.01-12.3-29.42-22.66-41.53-10.94-12.79-25.78-22.55-42.4-25.94-8.25-1.69-16.76-1.79-24.99.04-8.58,1.92-16.62,5.91-23.91,10.74-7.37,4.89-14.24,10.61-20.74,16.58-1.6,1.47-3.17,2.97-4.71,4.51-7.66-24.12-7.01-50.57,1.97-74.28,3.77-9.96,9.08-19.73,16.67-27.31,2.89,12.4,9.16,25.07,21.06,30.93,10.84,5.35,24.94,4.73,32.61-5.59,6.57-8.83,5.58-22.2-.59-30.95-7.46-10.57-21.14-13.79-33.35-11.61-5.79,1.03-11.08,3.35-15.84,6.53-.66-5.16-.95-10.37-1.08-15.39-.38-14.26,1.24-28.53,4.84-42.34,3.3-12.69,8.14-25.09,15.1-36.23,6.46-10.35,14.98-19.68,25.67-25.74,8.79-4.99,19.21-7.85,29.4-7.29-1.03,6.97-1.65,14-1.89,21.04-.26,7.63-.49,15.51.88,23.05,1.23,6.75,4.41,13.14,10.03,17.27,5.38,3.95,12.19,4.41,18.19,1.64,11.42-5.27,16.42-19.01,15.02-30.87-1.4-11.85-7.93-22.67-17.51-29.73-5.33-3.93-11.51-6.33-17.96-7.47,3.68-19.18,11.2-37.6,24.48-52.23,7.9-8.7,17.68-15.96,28.79-19.97,11.48-4.15,24.19-5.17,36.08-2.19,5.04,1.26,9.8,3.23,14.24,5.89-1.05,2.38-1.94,4.84-2.63,7.38-.99,3.64,4.65,5.19,5.64,1.55,3.77-13.87,13.75-25.39,26.39-32.04,13.48-7.08,29.33-7.53,43.6-2.6,14.77,5.1,26.84,15.84,34.1,29.61,3.24,6.14,5.54,12.85,6.82,19.76-5.45,1.51-10.7,3.75-15.59,6.76-13.45,8.3-24.34,22.32-25.96,38.39-.42,4.12.08,8.66,2.47,12.15,2.37,3.47,6.08,5.37,10.21,5.75,8.29.77,16.12-4.3,21.56-10.09,11.74-12.51,15.59-30.99,13.9-47.66-.03-.26-.07-.51-.09-.76,12.47-2.39,25.79-.99,37.49,4.1,22.2,9.68,37.76,30.59,46.41,52.63,4.5,11.47,7.45,23.63,8.42,35.93.15,1.9.28,3.86.37,5.82-5.02.41-9.95,1.76-14.12,4.48-3.41,2.22-6.29,5.39-7.46,9.35-1.09,3.66-.72,7.93,1.23,11.24,4.56,7.73,15.18,6.49,20.57.37,4.67-5.31,5.54-12.72,5.63-19.7,1.98.12,3.92.39,5.79.77,16.01,3.29,28.86,14.9,38.86,27.25,9.92,12.26,17.28,27.02,19.58,42.71.81,5.52.86,11.1.27,16.61-4.95-2.67-10.36-4.42-16.04-5.01-18.37-1.88-35.81,10.91-39.95,28.81-.36,1.53-.62,3.12-.79,4.72-18.45-8.93-37.67-16.29-57.4-21.83-5.18-1.45-10.4-2.78-15.64-3.98,3.64-6.21,6.72-12.72,8.86-19.68,4.56-14.83,3.93-32.36-4.52-45.74-4.36-6.9-10.64-12.19-18.2-15.26-7.73-3.14-16.56-3.7-24.63-1.63-2.33.6-4.56,1.45-6.69,2.49,5.77-11.25,5.54-26.06-3.64-35.49-4.91-5.05-12.45-7.48-19.29-5.33-6.47,2.04-11.01,8.16-10.44,15.05.27,3.27,1.52,6.34,3.94,8.61,2.75,2.56,6.9-1.56,4.14-4.14-3.59-3.35-2.79-9.71,1.25-12.56,4.97-3.51,11.86-1.85,15.96,2.19,8.91,8.79,7.29,23.3.57,32.79-7.07,10-19.61,13.72-31.24,10.57-5.78-1.57-11.09-4.67-15.15-9.1-4.58-5-7.29-11.41-8.94-17.92-3.71-14.68-2.15-30.02-4.55-44.88-2.21-13.67-8.84-27.6-21.8-34.04-5.93-2.95-12.63-3.84-19.06-2.07-6.71,1.86-12.64,6.28-17.02,11.62-9.14,11.15-15.32,24.63-21.05,37.75-2.93,6.7-5.72,13.46-8.65,20.16-3.27,7.46-6.77,14.83-10.18,22.23-7.23,15.66-14.47,31.31-21.7,46.97-1.79,3.87-3.58,7.74-5.36,11.61-.66,1.43-.41,3.15,1.05,4,.72.42,1.7.48,2.54.19,9.17,3.85,18.34,7.7,27.5,11.55-6.06,11.96-11.99,24.21-14.69,37.41-.02.11-.04.23-.06.34-5.76-.17-11.52-.35-17.28-.52-3.76-.11-3.76,5.73,0,5.85,5.46.16,10.91.33,16.37.49-1.19,10.3-.07,20.75,4.13,30.36,4.92,11.24,14.49,19.76,26.45,22.78.48.12.96.22,1.45.32-2.76,4.15-4.83,8.78-6.05,13.61-3.94,15.7-.44,34.77,11.09,46.61,8.27,8.49,19.98,11.27,31.33,9.94,5.97,6.51,13.37,11.62,20.88,16.21,8.63,5.28,17.64,10.01,25.72,16.15,7.34,5.57,14.27,12.67,17.54,21.45,3.11,8.34,3.39,18.14-1.76,25.74-.36.53-.77,1.04-1.19,1.53-1.57-5-3.55-9.92-6.97-13.96-6.37-7.54-19.52-9.94-25.22-.33-4.52,7.6-1.92,17.81,4.99,22.95,6.83,5.08,16.41,4.64,23.82,1.04.32,1.45.61,2.9.83,4.36,1.34,8.66,0,19.43-7.77,24.88-3,2.1-6.43,2.93-9.91,2.85.17-4.71-.52-9.48-1.9-14-1.73-5.71-4.39-11.12-7.39-16.27-2.79-4.79-5.79-10.05-10.66-13.01-4.57-2.78-10.89-2.98-14.92.87-3.58,3.42-3.73,8.67-2.59,13.18,1.25,4.95,4,9.41,6.71,13.67,2.97,4.67,6.34,9.22,10.5,12.91,3.93,3.49,8.73,6.21,13.82,7.56-.77,3.65-2.25,7.13-4.59,10.15-3.53,4.57-8.5,6.81-13.79,7.19-.62-6.91-3.27-13.63-7.28-19.34-2.99-4.26-6.59-7.99-10.71-11.16-4.02-3.1-9.06-6.5-14.4-5.99-5.26.51-8.83,4.96-8.37,10.19.44,5.06,3.3,9.33,6.45,13.14,7.09,8.57,16.06,16.66,27.38,18.63.37.06.74.11,1.11.16-.15,1.65-.45,3.29-.92,4.93-16.11.32-32.21.64-48.32.96.67-2.5,1.23-5.02,1.64-7.57.82-5.05,1.19-10.17.93-15.29-.24-4.75-.73-9.92-2.35-14.42-1.57-4.34-4.74-9.15-9.88-9.24-4.82-.08-7.97,3.95-8.76,8.36-.92,5.16.29,10.49,1.54,15.49,1.46,5.85,3.58,11.55,6.24,16.96.98,1.99,2.05,3.95,3.21,5.86-1.95.04-3.91.08-5.87.12-5.85.12-11.71.24-17.56.36,1.29-.46,2.24-1.68,1.68-3.36ZM167.79,241.8c8.42-6.36,19.46-9.5,29.86-6.84,5,1.28,9.83,3.95,12.98,8.11,2.73,3.61,4.3,8.17,4.51,12.68.21,4.49-.82,9.19-3.66,12.78-3.03,3.83-7.78,5.88-12.59,6.08-5.23.21-10.39-1.39-14.79-4.16-4.82-3.04-8.36-7.66-10.95-12.67-2.56-4.97-4.25-10.39-5.36-15.96ZM464.74,84.49c-1.55,7.24-4.38,14.34-8.95,20.23-4.07,5.26-10.04,10.4-16.94,11.04-3.13.29-6.4-.49-8.19-3.28-1.86-2.89-1.79-6.78-1.23-10.05,1.19-6.95,4.2-13.46,8.43-19.08,7.11-9.44,17.02-15.71,27.93-18.91.66,6.71.34,13.51-1.06,20.05ZM564.22,167.4c-.07,2.71-.3,5.39-.82,7.97-.69,3.48-2.03,7.08-5.04,9.2-2.3,1.62-5.71,2.56-8.15.69-2.08-1.59-2.69-4.61-2.31-7.07.52-3.3,2.93-5.83,5.71-7.49,3.18-1.9,6.85-2.92,10.61-3.3ZM491.09,459.79c-15.16-10.16-29.16-21.98-41.76-35.19-12.92-13.54-24.31-28.49-33.97-44.52-9.69-16.09-17.61-33.22-23.46-51.07-1.59-4.87-3.59-10.01-3.62-15.19-.03-3.69,1.43-8.11,5.15-9.64,4.36-1.8,9.23,2.37,12.48,4.78.44.32.86.66,1.29.99,1.79,5.68,3.76,11.3,6.05,16.8,6.21,14.9,14.81,29.18,27.24,39.72,2.92,2.48,6.02,4.74,9.29,6.74,2.2,1.34,4.96-.88,4.3-3.3-5.28-19.3-15.4-37.17-29.11-51.73-3.38-3.59-6.98-6.97-10.78-10.1-.63-.52-1.26-1.04-1.9-1.57-1.62-5.22-3.09-10.45-4.48-15.57-1.65-6.11-4.45-13.37-2.56-19.74,1.8-6.05,8.6-7.21,13.9-5.22,5.12,1.92,9.02,6.36,12.42,10.79.75,3.03,1.62,6.03,2.44,8.96,2.38,8.47,5.2,16.82,8.46,24.99,3.29,8.24,6.99,16.33,11.12,24.19,2.05,3.89,4.2,7.73,6.45,11.51,1.96,3.29,4.57,7.01,8.77,7.26,4.21.25,7.16-3.48,7.53-7.36.42-4.4-2.24-8.91-3.95-12.8-3.54-8.03-7.47-15.9-11.75-23.56-4.29-7.66-8.93-15.13-13.92-22.35-2.49-3.61-5.07-7.17-7.74-10.66-.6-.79-1.2-1.58-1.8-2.36-.23-.98-.47-1.96-.68-2.95-1.14-5.28-2.05-11.91.96-16.71,3.47-5.54,10.99-4.6,15.82-1.54,6.05,3.84,10.38,10.6,14.27,16.47,4.22,6.36,7.93,13.06,11.09,20.01,6.2,13.62,10.27,28.35,11.87,43.23.4,3.71.65,7.44.76,11.17.11,3.76,5.96,3.77,5.85,0-.5-16.69-3.83-33.29-9.86-48.86-1.24-3.2-2.6-6.34-4.05-9.45.59-.08,1.15-.34,1.53-.82,5-6.32,10.06-12.73,14.64-19.44,3.03,20.46,6.06,40.92,9.09,61.38,1.44,9.71,2.84,19.41,4.18,29.13,1.11,8.06,2.37,16.16,4.91,23.91,2.67,8.14,6.81,15.61,12.54,21.94-6.86,10.16-13.73,20.32-20.59,30.49-6.13,9.08-12.27,18.17-18.4,27.25ZM353.42,408.27c-5.37-6.55-9.18-14.45-9.26-23.04-.03-3.76-5.88-3.77-5.85,0,.07,8.72,3.39,16.8,8.36,23.8-6.15.18-12.25-1.11-17.57-4.39-12.36-7.63-17.02-24.17-15.99-37.91.58-7.76,3.39-15.37,8.08-21.46,10.15.76,20.47-1.65,29.62-6.03,2.54-1.21,4.99-2.57,7.37-4.03,5.9,2.97,10.79,7.99,12.84,14.35.7,2.16,3.21,2.78,4.89,1.29,4.43-3.94,8.87-7.89,13.3-11.83.93,2.53,1.89,5.04,2.9,7.54,3.14,7.73,6.64,15.31,10.5,22.71-1.26-.35-2.5.27-3.29,1.34-8.91,12.06-18.34,24.58-31.53,32.24-4.35,2.52-9.28,4.43-14.38,5.43ZM288.49,291.05c13.44.41,26.88.81,40.32,1.22,3.76.11,3.76-5.74,0-5.85-13.1-.4-26.19-.79-39.29-1.19,2.91-13.38,9.18-25.77,15.36-37.92.94-1.85.04-3.54-1.75-4.3-9.71-4.07-19.41-8.15-29.12-12.22,6.99-15.12,13.97-30.24,20.96-45.36,6.92-14.97,13.83-29.91,20.29-45.08,5.88-13.8,11.92-27.79,20.62-40.09,3.87-5.46,8.73-10.56,15.19-12.86,5.98-2.13,12.24-1.42,17.72,1.72,5.6,3.2,9.94,8.29,12.89,13.98,3.55,6.86,4.88,14.79,5.56,22.41,1.36,15.22.26,31.15,6.12,45.6,2.74,6.76,6.81,12.82,12.64,17.29,5.18,3.97,11.4,6.52,17.86,7.42,6.39.88,12.85.15,18.78-2.35-2.98,5.25-4.8,11.17-5.1,17.28-.42,8.44,2.27,17.34,8.19,23.51,4.56,4.76,11.24,7.5,17.83,7.21-2.15,2.51-4.3,5.02-6.44,7.52-5.06-3.41-11.24-5.24-17.21-3.08-7.13,2.57-10.13,9.6-10.26,16.74-.02,1.15.03,2.3.11,3.45-5.42-4.97-12.6-8.29-20.06-6.34-7.69,2.02-11.17,9.35-10.82,16.83.18,3.79,1.04,7.5,2.01,11.15,1.17,4.38,2.35,8.75,3.59,13.11-1.19-.69-2.4-1.31-3.66-1.82-4.98-2.01-10.52-1.06-14.16,3-1.18,1.31-2.05,2.77-2.71,4.31-.2.12-.39.26-.58.44-7.87,7.53-16.45,15.6-25.9,21.87-5.16-1.89-10.8-2.56-16.35-1.75-8.8,1.28-16.51,5.87-22.34,12.26-10.85-1.56-20-7.84-25.25-17.49-5.01-9.2-6.41-20.29-5.03-30.62ZM484.51,276.01c-1.26,1.62-2.53,3.22-3.81,4.83-1.4-2.73-2.85-5.43-4.42-8.06-2.12-3.56-4.4-7.04-6.83-10.4-2.42-3.36-4.92-6.74-7.85-9.67,0,0,0,0-.01,0,4.32-5.04,8.64-10.08,12.95-15.13.95-1.1,1.18-2.65.23-3.84-.84-1.06-2.56-1.6-3.77-.75-5.63,3.95-13.3,3.24-18.75-.72-5.73-4.16-8.58-11.58-8.89-18.46-.61-14.01,8.62-27.97,22.01-32.42,13.55-4.51,29.28.2,37.55,11.99,7.89,11.25,9.12,26.23,5.9,39.32-4.01,16.29-14.15,30.32-24.32,43.33ZM374.95,343.89c-2.58-5.13-6.58-9.29-11.36-12.26,6.74-4.78,12.95-10.35,18.97-16.02.03.42.06.84.11,1.25.69,5.43,2.58,10.71,4.33,15.88.06.18.13.35.19.53-.32.13-.64.3-.94.57-3.76,3.35-7.53,6.7-11.29,10.05ZM350.65,332.73c-7.44,3.98-15.41,6.6-23.98,6.86,2.72-2.24,5.81-4.07,9.25-5.34,4.75-1.76,9.83-2.34,14.73-1.52ZM415.94,317.43c.16.15.32.3.48.45,13.17,12.6,23.4,28.29,29.47,45.49-14.61-11.61-23.53-28.32-29.95-45.94ZM441.31,290.07c2.41,3.48,4.75,7,7,10.59,4.25,6.77,8.21,13.72,11.86,20.82,1.85,3.59,3.62,7.22,5.3,10.89,1.6,3.49,3.41,7.04,4.57,10.7.42,1.32.85,2.96-.04,4.19-.56.77-1.13.68-1.88.15-1.08-.76-1.83-1.95-2.51-3.06-1.1-1.8-2.15-3.63-3.2-5.47-3.99-7.04-7.64-14.28-10.93-21.68-3.91-8.8-7.33-17.89-10.18-27.14ZM407.38,499.51c-3.69,2.08-8.09,3.03-12.17,2.55-6.64-.78-11.66-5.84-11.5-12.65.07-2.83,1.14-5.89,3.57-7.51,3.36-2.24,7.68-1.08,10.8,1,3.85,2.56,6.06,7.08,7.58,11.3.62,1.74,1.19,3.52,1.72,5.31ZM386.24,536.41c-3.22-.96-6.28-2.59-8.83-4.59-3.75-2.96-6.85-6.69-9.52-10.63-2.52-3.7-5.2-7.67-6.79-11.88-1.08-2.86-2.36-7.07-.22-9.77,2.76-3.49,7.94-1.15,10.46,1.32,3.46,3.4,5.87,8.1,8.14,12.32,2.49,4.63,4.59,9.46,5.8,14.59.67,2.81,1,5.73.96,8.64ZM361.3,559.29c-1.37-.24-2.73-.58-4.07-1.03-4.52-1.53-8.59-4.28-12.14-7.43-3.5-3.11-6.93-6.68-9.63-10.51-1.66-2.36-4.34-6.65-2.86-9.64,1.91-3.84,7.67-.62,10.04.9,9.53,6.13,17.29,16.58,18.66,27.72ZM307.65,564.65c-1.93-3.65-3.55-7.46-4.85-11.33-1.6-4.72-3-9.75-3.48-14.72-.22-2.33-.29-6.97,2.15-7.99,3.08-1.29,5.1,3.99,5.7,6.09,1.17,4.13,1.64,8.53,1.77,12.81.16,5.09-.31,10.16-1.28,15.13ZM206.48,492.75c-20.36,11.4-45.92,12.45-67.38,3.38-22.09-9.34-37.56-29.51-42.8-52.69-2.91-12.88-2.52-26.41,1.48-39.01,0-.01,0-.03,0-.04,4.97,4.04,9.94,8.08,14.9,12.12-2.66,14.73.73,30.39,9.28,42.71,9.15,13.19,23.53,21.41,39.38,23.42,8.7,1.1,17.71.16,25.95-2.85.69-.25,1.27-.71,1.65-1.28,5.84,4.75,11.68,9.5,17.52,14.25ZM136.47,435.83c15.92,12.94,31.83,25.88,47.75,38.82-12.99,4.28-27.55,3.14-39.72-3.16-12.52-6.48-21.47-18.13-25.11-31.69-1.66-6.19-2.17-12.67-1.43-19.03,6.17,5.02,12.35,10.04,18.52,15.06ZM72.84,576.17c-15.63.34-31.26.68-46.89,1.03-6.63.15-13.46-.13-20.11.34v-173.82c22.38-3.82,44.75-7.65,67.13-11.47,2.72-.47,5.44-.93,8.17-1.4,4.19,3.41,8.39,6.82,12.58,10.23-.7.3-1.29.87-1.58,1.79-7.6,23.94-2.81,51.25,11.56,71.72,7.39,10.52,17.2,19.19,28.75,24.88,11.7,5.77,24.75,8.68,37.8,8.58,14.39-.11,28.76-3.9,41.1-11.34,5.1,4.15,10.2,8.29,15.3,12.44,4.62,3.75,9.24,7.51,13.85,11.26,1.84,1.49,3.86,3.73,5.97,4.99v47.07c-10.36.22-20.72.43-31.07.64-19.05.4-38.11.81-57.16,1.21.34-2.46.46-4.96.33-7.44-.28-5.58-1.75-11.14-5.34-15.53-3.27-4.01-8.67-6.61-13.89-6.01-5.12.59-9.34,4.13-11.46,8.75-2.56,5.56-2.12,11.77-.39,17.51.34,1.13.72,2.24,1.12,3.35-16.47.35-32.94.71-49.4,1.07-1.27-6.37-.98-12.97,1.07-19.21,1.18-3.58-4.47-5.12-5.64-1.55-2.23,6.78-2.6,13.99-1.35,20.9-.15,0-.3,0-.45,0ZM137.52,580.63c4.45-.1,8.9-.19,13.35-.28-1.4,4.15-3.53,8.03-6.23,11.45-2.7-3.51-5.09-7.24-7.12-11.16ZM138.01,574.76c-1.05.02-2.1.05-3.15.07-.28-.69-.56-1.38-.82-2.09-1.7-4.67-3.04-9.9-1.43-14.79,1.19-3.6,4.21-6.85,8.21-6.85,4.23,0,7.74,2.99,9.64,6.57,2.16,4.08,2.53,8.98,2.24,13.51-.07,1.1-.2,2.2-.37,3.28-4.77.1-9.54.2-14.31.3ZM121.06,605.61c-8.53,1.17-17.5-.62-24.9-5.01-7.13-4.23-12.49-10.98-15.31-18.75,13.29-.29,26.57-.58,39.86-.87,3.46-.07,6.91-.15,10.37-.22,2.59,5.47,5.87,10.62,9.58,15.36-5.36,5-12.15,8.47-19.6,9.49ZM271.9,615.36c-16.27,9.82-35.53,13.83-54.41,12.87-18.01-.92-35.7-6.52-50.85-16.33-6.67-4.32-12.87-9.55-18.2-15.52.41-.49.81-.99,1.2-1.5,3.31-4.35,5.83-9.37,7.35-14.66,12.99-.28,25.98-.56,38.96-.83,27.52-.58,55.03-1.16,82.55-1.72,8.51-.17,17.01-.34,25.52-.51-6.13,15.86-17.57,29.43-32.12,38.22ZM340.55,588.38c-8.83.76-16.85-3.9-22.92-9.95-.5-.49-.96-1.02-1.43-1.54,13.93-.28,27.86-.57,41.8-.84-3.64,6.43-9.87,11.68-17.44,12.33ZM523.91,567.2c-21.49.32-42.98.69-64.47,1.08-25.76.46-51.51.95-77.27,1.45-5.21.1-10.42.21-15.63.31.09-.39.18-.77.25-1.16.21-1.12.36-2.25.45-3.38,3.22-.17,6.39-.87,9.39-2.24,4.43-2.02,8.07-5.56,10.63-9.66,2.03-3.26,3.36-6.79,4.1-10.45,3.5.16,7.02-.39,10.4-1.88,10.1-4.43,14.51-16.05,14.26-26.45-.11-4.38-.89-8.71-1.96-12.96,6.08-5.22,9.18-13.21,9.26-21.34.11-11-4.83-21.2-12.08-29.24-14.89-16.5-37.41-22.89-53.23-38.12,1.89-.51,3.75-1.12,5.56-1.85,15.74-6.29,27.04-19.47,37-32.67,1.28-1.7,2.55-3.41,3.81-5.12.11-.15.19-.3.25-.46.06.12.12.24.19.36,9.52,17.46,21.08,33.82,34.3,48.69,13.12,14.75,27.94,27.98,44.08,39.34,1.53,1.08,3.08,2.12,4.63,3.16-5.69,8.43-11.39,16.86-17.08,25.3-7.25,10.73-14.5,21.47-21.75,32.2-2.11,3.13,2.95,6.06,5.05,2.95,2.39-3.54,4.79-7.09,7.18-10.63,0,.89.41,1.78,1.42,2.36,24.89,14.2,49.78,28.4,74.67,42.59,4.37,2.49,8.75,4.99,13.16,7.45-8.86.11-17.71.23-26.57.36ZM692.29,587.28c-20.75,8.96-44.68,9.37-66.54,4.77-18.39-3.87-35.74-11.14-52.46-19.62,4.97-.04,9.94-.05,14.9.07.82.02,1.64.03,2.46.1,3.75.28,3.74-5.57,0-5.85-6.89-.52-13.93-.16-20.83-.11-2.48.02-4.96.05-7.44.08-2.33-1.26-4.65-2.53-6.96-3.81-24.12-13.4-47.98-27.29-71.95-40.96-5.96-3.4-11.92-6.8-17.88-10.2-.86-.49-1.7-.5-2.41-.21,9.82-14.53,19.63-29.07,29.45-43.6,12.92-19.13,25.84-38.25,38.75-57.38,1.47-2.18,2.94-4.35,4.41-6.53.4-.36.71-.81.89-1.32,1.18-1.74,2.35-3.48,3.53-5.22.23.45.61.87,1.19,1.17,32.18,17.07,64.37,34.14,96.55,51.21,9.12,4.84,18.24,9.68,27.36,14.51,3.32,1.76,6.28-3.28,2.95-5.05-32.18-17.07-64.37-34.14-96.55-51.21-9.12-4.84-18.24-9.68-27.36-14.51-.44-.23-.87-.34-1.28-.36,3.35-4.97,6.71-9.93,10.06-14.9,2.11-3.13-2.95-6.06-5.05-2.95-4.87,7.22-9.75,14.43-14.62,21.65-4.3-5.03-7.59-10.8-9.8-17.08-2.64-7.52-3.98-15.42-5.11-23.29-2.83-19.82-5.72-39.63-8.66-59.44-1.67-11.27-3.34-22.54-5.01-33.81,20.81,4.91,41.18,11.75,60.69,20.5,4.04,1.81,8.03,3.72,12,5.68.37,4.99,1.86,9.86,4.88,13.85,5.72,7.55,15.83,9.13,24.34,5.63,1.01-.42,2-.89,2.96-1.41,4.63,2.93,9.19,5.97,13.68,9.11,10.74,7.52,21.03,15.67,30.84,24.37.35.64.93,1.12,1.59,1.39,6.13,5.5,12.07,11.21,17.79,17.14,15.7,16.24,29.91,34.02,41.88,53.19,12.91,20.68,23.16,43.36,27.05,67.57,3.38,21,1.3,43.13-7.26,62.71-8.56,19.57-23.3,35.6-43.05,44.13Z" fill="#231f20" stroke-width="0"/>
</svg>