<?xml version="1.0" encoding="UTF-8"?>
<svg id="Warstwa_2" data-name="Warstwa 2" xmlns="http://www.w3.org/2000/svg" viewBox="0 0 176.66 40.74">
  <defs>
    <style>
      .cls-1 {
        fill: #010101;
      }
    </style>
  </defs>
  <g id="Warstwa_1-2" data-name="Warstwa 1">
    <g>
      <g>
        <path class="cls-1" d="M56,24.34c.67.41,1.64.75,2.67.75,1.53,0,2.42-.81,2.42-1.97,0-1.08-.62-1.7-2.18-2.3-1.88-.67-3.05-1.65-3.05-3.27,0-1.8,1.49-3.14,3.74-3.14,1.18,0,2.04.27,2.55.57l-.41,1.22c-.38-.21-1.15-.55-2.19-.55-1.58,0-2.18.94-2.18,1.73,0,1.08.7,1.61,2.3,2.23,1.95.75,2.95,1.7,2.95,3.39,0,1.78-1.32,3.32-4.04,3.32-1.11,0-2.33-.33-2.95-.74l.38-1.25Z"/>
        <path class="cls-1" d="M68.08,14.61h1.49v5.57h.05c.31-.45.62-.86.91-1.23l3.53-4.34h1.85l-4.18,4.9,4.51,6.65h-1.76l-3.8-5.67-1.1,1.27v4.4h-1.49v-11.55Z"/>
        <path class="cls-1" d="M82.29,14.61v11.55h-1.49v-11.55h1.49Z"/>
        <path class="cls-1" d="M88.33,14.61h1.49v10.3h4.94v1.25h-6.43v-11.55Z"/>
        <path class="cls-1" d="M99.85,14.61h1.49v10.3h4.94v1.25h-6.43v-11.55Z"/>
        <path class="cls-1" d="M120.62,15.88h-3.51v-1.27h8.55v1.27h-3.53v10.28h-1.51v-10.28Z"/>
        <path class="cls-1" d="M130.38,14.76c.75-.15,1.83-.24,2.86-.24,1.59,0,2.62.29,3.34.94.58.51.91,1.3.91,2.19,0,1.52-.96,2.54-2.18,2.95v.05c.89.31,1.42,1.13,1.7,2.33.38,1.61.65,2.72.89,3.17h-1.54c-.19-.33-.45-1.32-.77-2.76-.34-1.59-.96-2.19-2.31-2.25h-1.41v5h-1.49v-11.4ZM131.87,20.03h1.53c1.59,0,2.6-.87,2.6-2.19,0-1.49-1.08-2.14-2.66-2.16-.72,0-1.23.07-1.47.14v4.21Z"/>
        <path class="cls-1" d="M144.52,14.61v6.84c0,2.59,1.15,3.68,2.69,3.68,1.71,0,2.81-1.13,2.81-3.68v-6.84h1.51v6.73c0,3.55-1.87,5-4.37,5-2.36,0-4.15-1.35-4.15-4.93v-6.8h1.51Z"/>
        <path class="cls-1" d="M157.34,24.34c.67.41,1.64.75,2.67.75,1.53,0,2.42-.81,2.42-1.97,0-1.08-.62-1.7-2.18-2.3-1.88-.67-3.05-1.65-3.05-3.27,0-1.8,1.49-3.14,3.74-3.14,1.18,0,2.04.27,2.55.57l-.41,1.22c-.38-.21-1.15-.55-2.19-.55-1.58,0-2.18.94-2.18,1.73,0,1.08.7,1.61,2.3,2.23,1.95.75,2.95,1.7,2.95,3.39,0,1.78-1.32,3.32-4.04,3.32-1.11,0-2.33-.33-2.95-.74l.38-1.25Z"/>
        <path class="cls-1" d="M171.62,15.88h-3.51v-1.27h8.55v1.27h-3.53v10.28h-1.51v-10.28Z"/>
      </g>
      <path class="cls-1" d="M41.91,17.25l5.21-3.12L23.56,0,0,14.12l5.21,3.12L0,20.37l5.21,3.12L0,26.62l23.56,14.12,23.56-14.12-5.21-3.12,5.21-3.12-5.21-3.12ZM1.95,14.12L23.56,1.17l21.62,12.96-4.24,2.54L23.56,6.25,6.18,16.66l-4.24-2.54ZM23.56,28.25l12.17-7.29,4.24,2.54-16.41,9.83L7.16,23.5l4.24-2.54,12.17,7.29ZM12.37,20.37l11.19-6.71,11.19,6.71-11.19,6.71-11.19-6.71ZM23.56,12.5l-12.17,7.29-4.24-2.54L23.56,7.41l16.41,9.83-4.24,2.54-12.17-7.29ZM1.95,20.37l4.24-2.54,4.24,2.54-4.24,2.54-4.24-2.54ZM45.18,26.62l-21.62,12.96L1.95,26.62l4.24-2.54,17.38,10.42,17.38-10.42,4.24,2.54ZM40.94,22.91l-4.24-2.54,4.24-2.54,4.24,2.54-4.24,2.54Z"/>
    </g>
  </g>
</svg>