<?xml version="1.0" encoding="UTF-8"?>
<svg id="a" data-name="Layer 1" xmlns="http://www.w3.org/2000/svg" viewBox="0 0 728.83 750">
  <path d="M193.87,194.44c.78,19.78-3.25,39.61-11.89,57.43-.88,1.82-.5,4.05,1.35,5.13,1.64.96,4.24.48,5.13-1.34,9.22-19.02,13.74-40.09,12.91-61.22-.19-4.81-7.69-4.83-7.5,0Z" fill="#231f20" stroke-width="0"/>
  <path d="M192.96,170.07c.1-.17.12-.37.11-.46-.03.16-.06.32-.11.44,0,0,0,.02,0,.02Z" fill="#231f20" stroke-width="0"/>
  <path d="M201.04,178.33s-.01-.06-.02-.09c.01.14.03.26.04.34,0-.04,0-.08,0-.12,0-.04,0-.08-.01-.12Z" fill="#231f20" stroke-width="0"/>
  <path d="M208.65,179.99c-.01-2.8-.63-5.71-1.51-8.35-1.19-3.56-2.95-6.93-6.01-9.22-3.41-2.55-7.93-2.08-11.42.04-4.35,2.64-4.82,7.71-3.7,12.24,1.05,4.21,3.19,8.42,6,11.75,1.27,1.51,4.01,1.41,5.3,0,1.47-1.6,1.35-3.7,0-5.3-.03-.03-.04-.04-.06-.07-.17-.24-.34-.48-.5-.72-.41-.62-.8-1.26-1.17-1.91-.41-.73-.79-1.48-1.14-2.24-.02-.05-.05-.11-.07-.16-.02-.04-.05-.09-.07-.14-.01-.03-.02-.06-.04-.1-.03-.07-.05-.14-.09-.19.02.03.03.05.04.07-.16-.4-.32-.81-.46-1.22-.28-.81-.51-1.64-.68-2.48-.08-.37-.08-1.47-.06-.21,0-.45-.08-.9-.08-1.36,0-.11,0-.23.01-.34-.01.02-.02.05-.04.07.02-.02.03-.06.04-.09,0-.06,0-.13,0-.19.02-.33.08-.35.1-.25,0-.04.01-.09.02-.13-.03.03-.06.06-.1.09.03-.02.07-.1.11-.18,0-.03.01-.06.02-.08-.03.01-.06.03-.09.04.01,0,.05-.04.11-.09,0-.02.01-.03.02-.05-.09.03-.11.01.03-.08.04-.11.08-.11.09-.07.11-.19.17-.18.14-.08,0,0,0,0,0,0,.05-.05.09-.1.09-.11,0,.02-.02.05-.03.07.1-.06.2-.13.31-.18.33-.19.68-.33,1.01-.51-1.08.59-.06.05.32-.05.1-.03.21-.05.31-.07.18,0,.36,0,.54,0,.08.02.15.03.23.06.05.02.11.03.16.05.16.09.32.19.48.28-.04-.05-.08-.09-.13-.14.07.08.16.14.25.21.01,0,.03.01.04.02.16.1.24.21.22.23.16.16.33.32.48.48.06.07.12.14.18.21.16.24.32.47.47.71.36.57.67,1.17.96,1.78.02.05.05.11.07.16.09.34.28.69.39,1.02.49,1.39.87,2.83,1.14,4.29.04.24.08.48.12.72,0-.09-.02-.18-.03-.31.01.13.03.27.05.4,0,.04.01.08.02.12.04.23.05.56,0,.12.05.47.08.95.09,1.42,0,1.96,1.72,3.84,3.75,3.75,2.02-.09,3.76-1.65,3.75-3.75Z" fill="#231f20" stroke-width="0"/>
  <path d="M194.38,176.04c.09.15.15.16-.15-.36.02.04.03.08.05.12.04.08.07.16.11.24Z" fill="#231f20" stroke-width="0"/>
  <path d="M193.41,168.99s0,0,0,0c-.03.02-.07.04-.1.06-.02.01-.02.02-.04.03,0,0,0,0,0,0,0,0,0,0,0,0-.03.02-.06.04-.09.06,0,.02-.02.06-.03.08.02,0,.03-.01.05-.02,0,0,0,0,0,.01-.02.02-.04.04-.06.06,0,.01,0,.02-.01.03,0,0,0,0,0,.01,0,0,.02,0,.03-.01-.02.03-.03.06-.05.1,0,.03-.01.05-.02.09.08-.08.13-.17.16-.25.05-.05.1-.1.12-.15.05-.04.08-.09.1-.14-.02.01-.04.02-.06.04,0,0,0,0,0,0Z" fill="#231f20" stroke-width="0"/>
  <path d="M196.95,168.61s-.08-.05-.12-.07c.24.26.36.34.38.32-.06-.05-.11-.12-.17-.17-.03-.03-.06-.05-.09-.08Z" fill="#231f20" stroke-width="0"/>
  <path d="M187.53,201.59c-1.42-10.21-5.51-19.55-8.52-29.33-.6-1.96-1.15-3.95-1.5-5.98-.04-.23-.08-.46-.11-.69-.04-.41-.09-.82-.11-1.24-.06-.94-.01-1.85.01-2.79,0-.13,0-.21,0-.27.02-.07.04-.17.08-.32.09-.4.17-.79.28-1.18.11-.39.25-.76.37-1.14.12-.23.22-.47.35-.7.2-.37.43-.73.65-1.09.07-.11.15-.22.22-.32.08-.11.18-.24.23-.3.68-.76,1.39-1.45,2.16-2.13.06-.05.17-.14.26-.21.21-.16.42-.31.63-.46.47-.33.96-.64,1.45-.94,1.37-.83,2.51-1.4,3.73-1.81.61-.21,1.23-.38,1.86-.53.24-.06.49-.1.73-.15.12-.02.19-.04.25-.05.06,0,.1,0,.19-.02.59-.05,1.17-.08,1.76-.07.23,0,.46.01.69.02.11,0,.76.09.93.11,1.03.19,2.04.47,3.02.84.04.02.06.02.09.03.02.01.05.03.1.05.26.12.51.24.76.37.61.32,1.2.67,1.78,1.04,1.14.75,1.19.79,2.3,1.8.99.91,1.92,1.89,2.78,2.91,1.51,1.79,3.32,4.64,4.66,7.25,1.37,2.66,2.16,4.61,3.11,7.64.44,1.39.82,2.8,1.14,4.22.15.68.29,1.36.41,2.04.05.28.09.55.14.83.02.12.03.2.05.26,0,.04,0,.09.02.2.13,1.2.22,2.41.22,3.62,0,.54-.02,1.09-.07,1.63-.01.15-.03.31-.04.46-.01.06-.03.13-.05.25-.37,1.99.55,4.04,2.62,4.61,1.82.5,4.24-.62,4.61-2.62.92-4.99.18-10.16-1.09-15.02-1.46-5.58-3.77-11.09-6.91-15.94-3.06-4.74-7.07-9.28-12.19-11.82-5.51-2.74-11.68-2.98-17.38-.64-4.85,2-9.66,5.31-12.24,10.01-2.15,3.91-2.51,8.28-1.91,12.63,1.35,9.9,6.18,19.07,8.64,28.71,1.7,6.66,2.46,12.78,1.83,19.86-.71,7.88-3.77,15.97-7.92,23.03-2.45,4.17,4.03,7.95,6.47,3.78,7.29-12.41,10.46-26.21,8.47-40.49ZM179.16,156.69s-.02.03,0,0h0ZM177.4,165.67s0-.05,0-.07c.11.72.03.26,0,.07Z" fill="#231f20" stroke-width="0"/>
  <path d="M214.53,202.97c-2.61,11.64-5.22,23.28-7.83,34.92-1.05,4.7,6.17,6.71,7.23,1.99,2.61-11.64,5.22-23.28,7.83-34.92,1.05-4.7-6.17-6.71-7.23-1.99Z" fill="#231f20" stroke-width="0"/>
  <path d="M163.49,158.13c.88-6.54,2.65-12.02,6.11-17.25,3.92-5.93,10.93-10.91,18.59-11.55,10.1-.84,19.22,5.72,23.55,14.55.89,1.82,3.47,2.31,5.13,1.34,1.85-1.08,2.24-3.31,1.35-5.13-4.47-9.11-13.5-16.43-23.66-17.95-9.79-1.47-19.92,2.29-26.87,9.28-13.73,13.82-13.86,36.03-10.17,53.81,2.85,13.76,8.74,27.64,4.87,41.83-1.27,4.66,5.96,6.65,7.23,1.99,3.24-11.91.69-24.17-2.39-35.82-3.04-11.52-5.35-23.15-3.74-35.11Z" fill="#231f20" stroke-width="0"/>
  <path d="M236.23,181.23c-.85-6.4-2.23-12.68-4.24-18.82-1.49-4.57-8.74-2.61-7.23,1.99,6.56,20.08,6.48,41.93-.07,62.01-1.86,5.71-4.26,11.2-7.16,16.46-2.32,4.23,4.15,8.02,6.48,3.78,10.89-19.82,15.19-43.01,12.22-65.42Z" fill="#231f20" stroke-width="0"/>
  <path d="M249.13,198.45c-2.14,0-3.61,1.72-3.75,3.75-.85,12.82-3.73,25.4-8.38,37.37-.73,1.89.81,4.11,2.62,4.61,2.12.58,3.88-.72,4.61-2.62,4.89-12.6,7.75-25.88,8.64-39.37.13-2.02-1.82-3.75-3.75-3.75Z" fill="#231f20" stroke-width="0"/>
  <path d="M154.46,223.98c.16-4.86.57-9.71.6-14.58.03-4.81-.45-9.58-1.26-14.32-1.5-8.75-4.19-17.33-4.96-26.2-.69-7.9.28-15.78,2.8-23.3,4.76-14.22,15.9-28.49,30.78-32.81,15.76-4.58,31.89,4.23,41.37,16.59,12.05,15.71,15.49,35.86,18.8,54.87.35,2,2.8,3.12,4.61,2.62,2.11-.58,2.97-2.61,2.62-4.61-3.24-18.64-6.77-38.02-17.63-53.97-9.81-14.41-26.07-25.57-44.16-24.08-17.9,1.48-32.65,15.48-40.21,31.05-3.82,7.87-6.1,16.38-6.61,25.12-.55,9.46,1.54,18.73,3.57,27.91,1.17,5.3,2.32,10.62,2.66,16.05.35,5.59-.09,11.18-.36,16.76-.5,10.51-.12,21.7,5.87,30.77,2.65,4.01,9.15.26,6.48-3.78-4.72-7.14-5.24-15.75-4.97-24.07Z" fill="#231f20" stroke-width="0"/>
  <path d="M218.78,95.69c-9.75-5.1-21.13-7.07-32.05-5.73-11.04,1.35-21.14,5.73-29.89,12.57-9.59,7.5-16.73,17.66-21.29,28.89-.76,1.88.83,4.12,2.62,4.61,2.14.59,3.85-.73,4.61-2.62,7.13-17.57,22.57-31.97,41.45-35.55,9.38-1.78,19.67-.81,28.39,3.15,8.81,4,15.72,10.76,20.91,18.85,6.04,9.42,9.95,19.96,13.72,30.43.69,1.9,2.55,3.19,4.61,2.62,1.84-.51,3.31-2.7,2.62-4.61-7.19-19.96-15.76-42.18-35.71-52.61Z" fill="#231f20" stroke-width="0"/>
  <path d="M725.08,585.55c-.2,0-.41.02-.61.02.41-69.91.93-139.82,1.52-209.73.66-78.53,1.37-157.07,1.96-235.6.34-45.5.64-91,.88-136.5.01-1.99-1.73-3.8-3.75-3.75l-19.4.52c-17.45.47-34.89.93-52.34,1.4-25.97.69-51.93,1.39-77.9,2.08l-94.39,2.52c-34.7.93-69.39,1.85-104.09,2.78-34.79.93-69.57,1.86-104.36,2.79-32.66.87-65.31,1.75-97.97,2.62-27.41.73-54.82,1.46-82.23,2.2-19.25.51-38.5,1.03-57.75,1.54.02-3.01.03-6.02.05-9.02.03-4.83-7.47-4.83-7.5,0-.02,3.07-.03,6.14-.05,9.21-7.44.17-14.89.3-22.32.61-.41.02-.82.02-1.23.03-4.82.13-4.84,7.63,0,7.5l19.4-.52c1.37-.04,2.73-.07,4.1-.11-.41,77.19-.81,154.38-1.22,231.56-.43,82.34-.87,164.68-1.3,247.02-.19,36.42-.38,72.84-.57,109.26-5.14.21-10.29.42-15.43.63-4.81.2-4.83,7.69,0,7.5,5.13-.21,10.26-.42,15.39-.62-.04,7.53-.08,15.05-.12,22.58-.03,4.83,7.47,4.83,7.5,0,.04-7.63.08-15.26.12-22.89,45.04-1.83,90.08-3.66,135.12-5.48,52.4-2.13,104.81-4.25,157.21-6.38,28.79-1.17,57.59-2.34,86.38-3.51,8.52,17.9,17.41,35.61,26.66,53.14-3.14,20.4-6.28,40.81-9.43,61.21-1.29,8.37-2.58,16.73-3.86,25.1-.31,2,.51,4.03,2.62,4.61,1.78.49,4.3-.61,4.61-2.62,3.97-25.78,7.94-51.55,11.91-77.33,1.1,2.05,2.2,4.1,3.31,6.15,2.31,4.24,8.79.46,6.48-3.78-2.66-4.88-5.28-9.79-7.89-14.71,1.23-8,2.46-16,3.7-24,.31-2-.51-4.03-2.62-4.61-1.78-.49-4.3.61-4.61,2.62-.76,4.96-1.53,9.92-2.29,14.88-11.62-22.4-22.67-45.09-33.1-68.07-14.33-31.56-27.5-63.63-39.5-96.14-6.06-16.41-11.81-32.92-17.27-49.54-2.69-8.2-5.31-16.42-7.85-24.66-2.25-7.3-5.23-14.89-5.69-22.59-.35-6.04,1.41-12.27,7.51-14.72,6.38-2.56,13.25-.57,18.87,2.86.47.29.93.6,1.4.91.01,1.76.03,3.52.04,5.28.03,4.64,6.95,4.81,7.45.52,3.04,2.69,5.93,5.57,8.75,8.39,5.31,5.31,10.35,10.9,15.09,16.73,6.78,8.34,12.93,17.21,18.41,26.48-1.52,7.93-2.88,15.89-4.06,23.88-.75,5.08-1.41,10.16-1.99,15.26-.23,2.02,1.89,3.75,3.75,3.75,2.22,0,3.52-1.73,3.75-3.75,1.1-9.67,2.56-19.29,4.26-28.88,7.14,13.7,12.84,28.15,16.92,43.03,1,3.62,1.89,7.27,2.7,10.94,1.04,4.71,8.27,2.72,7.23-1.99-4.92-22.26-13.32-43.77-24.69-63.55,1.33-6.72,2.74-13.42,4.24-20.1,4.89-21.85,10.55-43.52,16.41-65.13,5.92-21.79,12.06-43.52,17.96-65.32,1.77-6.54,3.51-13.09,5.22-19.64,3.34-.47,3.92-4.84,1.72-6.66,3.08-12.02,6.03-24.07,8.68-36.19,2.21-10.11,3.96-20.3,6.04-30.43,2.16-10.5,5.28-21.47,13.05-29.28,6.66-6.7,16.09-10.26,25.21-6.57,9.37,3.78,15.3,12.94,18.37,22.17,3.34,10.05,4.71,20.89,5.62,31.41.87,9.96,1.06,19.97.8,29.96-.53,20.1-2.88,40.12-6.1,59.97-4.87,6.87-8.97,14.4-12.97,21.72-11.34,20.75-20.61,42.66-27.61,65.25-.87,2.81-1.7,5.64-2.51,8.47-1.32,4.65,5.92,6.64,7.23,1.99,6.09-21.49,14.2-42.38,24.29-62.31,2.55-5.03,5.21-10.03,8-14.95-3.08,16.23-6.63,32.38-10.35,48.47-4.75,20.53-9.82,40.98-14.53,61.51-1.05,4.57-2.07,9.14-3.07,13.72-1.02,4.7,6.2,6.71,7.23,1.99,4.44-20.41,9.46-40.7,14.27-61.02,5.23-22.08,10.26-44.21,14.4-66.52.95-5.12,1.85-10.25,2.69-15.39,4.19-5.93,9.52-11.74,16.63-13.4,7.6-1.78,14.31,2.91,18.58,8.92,5.18,7.3,7.78,15.91,9.85,24.52,2.42,10.05,3.81,20.37,4.18,30.74-1.38,2.36-2.69,4.75-3.98,7.09-6.36,11.55-11.9,23.56-16.63,35.87-2.31,6.01-4.4,12.09-6.29,18.24-1.42,4.62,5.81,6.6,7.23,1.99,3.59-11.66,7.91-23.09,13.01-34.17,2.04-4.44,4.18-8.88,6.44-13.26-.28,4.4-.74,8.79-1.39,13.14-3.36,22.43-11.36,44-23.76,63-2.64,4.05,3.85,7.82,6.48,3.78,11.7-17.94,19.72-38.29,23.6-59.34,2.09-11.3,3.02-22.79,2.79-34.25.79-1.26,1.6-2.51,2.42-3.75,4.78-7.14,11.46-14.36,20.75-14.06,10.26.33,17.64,9.4,20.79,18.39,3.66,10.46,3.86,22.09,3.67,33.05-.06,3.1-.19,6.19-.41,9.28-5.19,5.47-9.79,11.6-14.15,17.58-7.49,10.25-14.11,21.19-19.35,32.76-2.63,5.8-4.95,11.74-6.78,17.84-.82,2.75-1.89,5.72-1.95,8.62-.06,2.77.94,5.41,2.66,7.55,3.31,4.14,9.08,5.54,13.89,3.3,4.62-2.16,8.36-6.45,11.2-10.57,6.19-9.01,9.3-20.02,12.74-30.27,4.26-12.71,7.09-25.86,8.57-39.18.16-1.4.29-2.81.42-4.22.26-.26.52-.54.78-.8,2.02-1.99,4.35-4.02,6.88-5.77,2.04.66,4.68-.31,5.03-2.89,4.62-2.1,9.64-2.78,14.57-.44,10.16,4.83,12.25,17.4,11.62,27.49-.74,11.96-3.93,23.9-7.52,35.28-3.77,11.98-8.43,23.67-13.18,35.29-4.74,11.58-9.5,23.14-14.3,34.69-9.53,22.9-19.3,45.7-29.82,68.16-6.52,13.91-13.33,27.7-20.54,41.26-.43-4.24-.87-8.48-1.31-12.72-.21-2.01-1.58-3.75-3.75-3.75-1.87,0-3.96,1.72-3.75,3.75.83,8.11,1.66,16.21,2.5,24.32-2.46,4.44-4.96,8.86-7.52,13.24-3.06,5.24-6.2,10.44-9.4,15.59-2.56,4.11,3.93,7.88,6.47,3.78,4.05-6.5,7.96-13.08,11.77-19.71,1.53,14.9,3.06,29.8,4.59,44.7.8,7.78,1.6,15.57,2.4,23.35.21,2.01,1.58,3.75,3.75,3.75,1.87,0,3.96-1.72,3.75-3.75-2.71-26.44-5.43-52.89-8.14-79.33,7.05-12.81,13.73-25.83,20.09-38.99,1.08-2.24,2.15-4.49,3.22-6.74,27.48-1.12,54.97-2.23,82.45-3.35-.04,7.71-.1,15.43-.14,23.14-.03,4.83,7.47,4.83,7.5,0,.04-7.82.1-15.63.15-23.45.22,0,.44-.02.66-.03,4.81-.19,4.83-7.69,0-7.5ZM534.13,152.72c-7.43-7.75-18.01-12.13-28.72-9.76-10.41,2.31-18.99,10.39-23.98,19.55-5.68,10.43-7.55,22.22-9.71,33.74-3.58,19.07-8.1,37.96-12.94,56.74h-16.49c-.38-12.68-.76-25.35-1.13-38.03-.66-22.02-1.31-44.04-1.97-66.06-.11-3.8-.23-7.61-.34-11.41,35.15-.42,70.31-.83,105.46-1.25,9-.11,18-.21,27-.32.14,11.91.29,23.81.43,35.72l.75,62.72c.04,3.55.08,7.09.13,10.64h-20.28c-.44,0-.83.08-1.19.19,1.15-20.43.53-40.94-3.15-61.1-2.07-11.36-5.72-22.86-13.88-31.38ZM644.86,421.39c-2.56,11.03-6.15,21.92-10.23,32.48-1.75,4.52-3.81,8.97-6.56,12.97-1.19,1.74-2.57,3.34-4.11,4.78-1.32,1.24-3.06,2.84-4.85,3.16-2.32.41-5.12-1.86-4.82-4.65.29-2.73,1.44-5.65,2.27-8.26.86-2.71,1.81-5.39,2.85-8.04,4.31-11.02,10.13-21.47,16.66-31.32,3.59-5.4,7.42-10.78,11.55-15.87-.72,4.95-1.63,9.87-2.77,14.75ZM656.96,386.31c.27-7.94,0-15.92-1.01-23.74-1.47-11.36-5.22-23.29-14.47-30.77-9.05-7.32-21.5-8.73-31.31-2-3.47,2.38-6.42,5.34-9.04,8.62-.55-5.87-1.41-11.72-2.6-17.51-1.99-9.66-4.61-19.54-9.63-28.11-4.58-7.83-11.58-14.84-20.93-16.07-7.93-1.05-15.04,2.37-20.78,7.44,1.51-10.63,2.72-21.31,3.52-32.01.47.22,1.01.36,1.65.36h24.07c2.01,0,3.77-1.72,3.75-3.75-.16-13.17-.32-26.34-.47-39.51-.25-20.91-.5-41.81-.75-62.72-.06-4.8-.11-9.59-.17-14.39-.02-2.01-1.7-3.77-3.75-3.75-36.44.43-72.88.86-109.32,1.29-10.23.12-20.47.24-30.7.36-1.98.02-3.81,1.7-3.75,3.75.41,13.93.83,27.85,1.24,41.78.66,22.02,1.31,44.04,1.97,66.06.15,5.04.3,10.08.45,15.12.06,2.03,1.67,3.75,3.75,3.75h18.17c-5.67,21.65-11.73,43.2-17.68,64.77-6.13,22.2-12.16,44.44-17.56,66.83-2.33,9.66-4.54,19.37-6.56,29.1-2.76-4.3-5.64-8.51-8.69-12.6-9.39-12.65-20.02-24.52-31.96-34.83-1.22-1.05-2.47-2.08-3.76-3.07-.3-39.87-.6-79.73-.89-119.6-.32-42.78-.64-85.56-.96-128.33-.18-23.53-.35-47.06-.53-70.59,41.42-.24,82.84-.47,124.26-.7,42.25-.23,84.5-.46,126.75-.7,15.27-.09,30.54-.17,45.81-.26-.44,41.49-.87,82.98-1.31,124.46l-1.43,135.59c-.25,24.14-.51,48.28-.76,72.42-.74.46-1.47.94-2.18,1.44-.83.59-1.63,1.24-2.43,1.88ZM638.05,589.08c8.99-19.32,17.45-38.88,25.69-58.53,5.15-12.29,10.22-24.61,15.28-36.93,5.08-12.37,10.2-24.75,14.44-37.45,4.19-12.55,7.63-25.53,8.96-38.73,1.19-11.84-.63-25.73-10.43-33.76-4.66-3.81-10.58-6.02-16.65-5.52-2.14.18-4.22.62-6.23,1.27.45-42.93.9-85.87,1.36-128.8.48-45.2.95-90.39,1.43-135.59.23-21.53.45-43.05.68-64.58,5.22-.03,10.43-.06,15.65-.09,4.82-.03,4.83-7.53,0-7.5-5.19.03-10.38.06-15.57.09l.05-4.33c.05-4.83-7.45-4.83-7.5,0-.02,1.46-.03,2.92-.05,4.37-33.87.19-67.74.39-101.62.57-42.25.23-84.5.46-126.75.7-22.98.13-45.97.26-68.95.39-1.75.01-2.85,1-3.34,2.26-1.89-.02-3.77,1.19-3.75,3.62.32,42.9.64,85.8.96,128.71l.96,128.33c.15,19.4.29,38.8.44,58.2-3.29-1.72-6.79-2.97-10.56-3.45-7.07-.9-14.95,1.03-19.72,6.62-5.3,6.2-5.58,14.4-4.24,22.08,1.44,8.27,4.43,16.36,6.93,24.36,5.36,17.14,11.04,34.17,17.04,51.1,12.06,34.04,25.41,67.63,39.96,100.69,4.62,10.48,9.37,20.91,14.24,31.28-50.75,2.06-101.5,4.12-152.25,6.18-52.4,2.13-104.81,4.25-157.21,6.38-21.92.89-43.83,1.78-65.75,2.67.38-72.63.76-145.27,1.14-217.9.43-82.34.86-164.68,1.3-247.02.22-40.94.43-81.88.65-122.82,13.58-.36,27.16-.73,40.74-1.09,25.97-.69,51.93-1.39,77.9-2.08l94.39-2.52c34.7-.93,69.39-1.85,104.09-2.78,34.79-.93,69.57-1.86,104.36-2.79,32.66-.87,65.31-1.74,97.97-2.62,27.41-.73,54.82-1.46,82.23-2.2,19.85-.53,39.69-1.06,59.54-1.59,8.41-.22,17.05.06,25.47-.55-.42,78.9-1.03,157.79-1.69,236.69-.66,78.53-1.37,157.07-1.96,235.6-.26,35.28-.49,70.57-.7,105.85-26.3,1.07-52.6,2.13-78.9,3.2Z" fill="#231f20" stroke-width="0"/>
  <path d="M303.41,54.07c-.79.02-1.57.04-2.36.06l.16-5.63c.13-4.83-7.36-4.82-7.5,0-.05,1.94-.11,3.88-.16,5.82-26.85.67-53.71,1.34-80.56,2.01-30.14.75-60.28,1.5-90.43,2.26-16.94.42-33.88.85-50.82,1.27-4.82.12-4.84,7.62,0,7.5,3.79-.09,7.59-.19,11.38-.28,1.86,32.46,3.72,64.92,5.59,97.38,1.91,33.29,3.82,66.57,5.73,99.86.91,15.87,1.82,31.74,2.73,47.61-1.92.13-3.84.25-5.76.37-2.02.13-3.75,1.63-3.75,3.75,0,1.93,1.72,3.88,3.75,3.75,2.06-.13,4.12-.27,6.19-.4.03.46.05.93.08,1.39.28,4.8,7.78,4.83,7.5,0-.04-.63-.07-1.25-.11-1.88,22.87-1.49,45.73-2.97,68.6-4.46,27.42-1.78,54.84-3.57,82.25-5.35,10.2-.66,20.41-1.33,30.61-1.99-.1,3.52-.2,7.03-.29,10.54-.13,4.83,7.36,4.82,7.5,0,.1-3.68.2-7.36.31-11.03,2.74-.18,5.49-.36,8.23-.54,2.02-.13,3.75-1.63,3.75-3.75,0-1.93-1.72-3.88-3.75-3.75-2.68.17-5.35.35-8.03.52.8-28.83,1.6-57.66,2.4-86.5.97-35.01,1.94-70.03,2.92-105.04.43-15.31.85-30.62,1.28-45.93.86-.02,1.71-.04,2.57-.06,4.82-.12,4.84-7.62,0-7.5ZM290.8,153.54c-.97,35.01-1.94,70.03-2.92,105.04-.38,13.67-.76,27.34-1.14,41.01-22.24,1.45-44.48,2.89-66.71,4.34-27.42,1.78-54.84,3.57-82.25,5.35-11.04.72-22.09,1.44-33.13,2.16-1.74-30.3-3.48-60.59-5.21-90.88-1.91-33.29-3.82-66.57-5.73-99.86-1.03-17.94-2.06-35.87-3.09-53.81,23.85-.59,47.71-1.19,71.56-1.79,30.14-.75,60.28-1.5,90.43-2.26,13.58-.34,27.17-.68,40.75-1.02-.85,30.57-1.7,61.15-2.55,91.72Z" fill="#231f20" stroke-width="0"/>
  <path d="M124.73,367.29c-4.7-1.09-6.7,6.14-1.99,7.23,4.18.97,6.63,5.6,5.99,9.72-.78,5.04-5.14,9.02-9.65,10.93-4.77,2.01-10.66,2.18-15.17-.56-3.82-2.32-5.93-7.12-5.36-11.06.89-6.06,7.42-8.15,12.75-9.42,4.69-1.11,2.71-8.35-1.99-7.23-7.44,1.76-15.18,5.21-17.62,13.11-2.08,6.74.56,14.86,5.99,19.31,12.23,10.02,33.98,3.44,38.06-12.09,2.15-8.19-2.39-17.94-11-19.94Z" fill="#231f20" stroke-width="0"/>
  <path d="M179.05,396.76c1.09-1.86.33-3.98-1.35-5.13-2.96-2.03-3.29-6.52-2.06-9.86,1.57-4.25,6.17-7.15,10.32-8.69,4.71-1.75,10.82-3.34,15.63-1.07,3.62,1.71,5.71,5.98,5.1,9.8-.73,4.58-5.68,8.13-10.25,7.38-2-.33-4.04.52-4.61,2.62-.49,1.79.61,4.28,2.62,4.61,7.17,1.18,14.9-2.14,18.17-8.88,3.12-6.43,1.59-14.67-3.71-19.53-6.05-5.55-14.82-5.21-22.23-3.06-6.87,1.99-14.12,5.9-17.36,12.62-3.39,7.04-2.08,15.96,4.59,20.53,1.67,1.15,4.16.31,5.13-1.35Z" fill="#231f20" stroke-width="0"/>
  <path d="M284.63,382.63c-1.9.69-3.19,2.55-2.62,4.61.51,1.84,2.7,3.31,4.61,2.62,3.31-1.2,6.54-2.58,8.63-5.56,2.01-2.88,2.16-6.78.22-9.74-3.63-5.55-11.35-7.57-17.58-8.04-6.32-.47-13.45.98-18.76,4.57-2.68,1.81-5.08,4.32-5.77,7.58-.71,3.34.32,6.61,2.4,9.25,5.44,6.93,14.46,5.81,22.07,4.05,4.7-1.08,2.71-8.31-1.99-7.23-4.43,1.02-12.05,2.98-14.75-2.24-2.18-4.21,4.62-6.72,7.78-7.61,5.27-1.5,11.04-1.26,16.13.82,1.23.5,4.15,1.8,4.37,3.23.33,2.13-3.31,3.16-4.75,3.68Z" fill="#231f20" stroke-width="0"/>
  <path d="M117.73,447.45c-.05.02-.06.03,0,0h0Z" fill="#231f20" stroke-width="0"/>
  <path d="M121.1,438.87c.85-1.61.58-4.3-1.35-5.13-6.11-2.63-12.99-1.58-18.02,2.81-4.74,4.13-6.24,11.24-4.18,17.1,2.24,6.37,7.82,10.54,14.59,10.82,6.82.28,13.33-3.76,15.6-10.26,1.36-3.86.58-8.42-2.36-11.34-1.54-1.53-3.4-2.47-5.37-2.8.43-.28.81-.67,1.09-1.2ZM116.03,440.23s-.03-.01-.05-.02c.02,0,.04.01.06.02,0,0,0,0,0,0ZM116.25,456.34c-.08.04-.06.03,0,0h0ZM120.37,448.44s.02.05.04.09c.09.16.19.34.29.5.02.03.03.04.04.06,0,.05,0,.09.02.17,0,0,.06.28.1.47.01.2.04.51.04.5,0,0,0,.21-.01.4-.03.17-.09.58-.09.59-.08.33-.19.65-.29.97-.02.08-.03.12-.05.17-.03.05-.06.1-.11.19-.11.2-.21.4-.33.6-.14.23-.29.46-.45.68-.07.09-.22.28-.29.34-.36.39-.75.73-1.14,1.08-.03.02-.05.03-.1.05-.26.15-.51.33-.77.48-.26.15-.54.28-.81.42,0,0,0,0,0,0-.51.18-1.01.35-1.53.48-.25.06-.5.1-.75.16-.04,0-.05.01-.08.02-.55.04-1.1.08-1.66.07-.31,0-.61-.04-.92-.05-.03,0-.04,0-.06,0,0,0,0,0,0,0-.5-.11-.99-.2-1.48-.34-.24-.07-.48-.16-.72-.24-.04-.01-.05-.01-.08-.02,0,0,0,0-.01,0-.49-.27-.99-.5-1.46-.81-.1-.06-.52-.41-.48-.37-.1-.09-.2-.17-.3-.27-.18-.17-.36-.35-.53-.53,0,0-.09-.1-.19-.21-.07-.1-.33-.43-.34-.44-.14-.21-.27-.42-.4-.63-.13-.21-.25-.43-.36-.65-.06-.13-.14-.28-.18-.38-.17-.45-.33-.91-.46-1.38-.06-.24-.12-.49-.17-.73,0-.01-.03-.16-.06-.3-.02-.17-.06-.47-.06-.49-.02-.25-.03-.5-.03-.75,0-.25,0-.5,0-.75,0-.07.05-.52.06-.73.03-.16.06-.34.06-.35.05-.24.11-.49.18-.73.07-.24.14-.48.22-.71,0-.02.14-.34.2-.48.07-.13.13-.26.14-.27.12-.22.24-.44.38-.65.09-.14.18-.28.28-.42-.19.3.28-.36.4-.49.32-.35.67-.66,1.01-.97.12-.1.31-.26.37-.3.25-.17.5-.33.76-.48.26-.15.52-.29.79-.43.08-.04.28-.12.41-.17.5-.18.99-.35,1.51-.47.24-.06.49-.11.74-.16.1-.02.15-.03.21-.04.04,0,.07,0,.14,0,.6-.03,1.19-.06,1.8-.02.2.01.4.04.6.05-1-.08.26.07.47.12.19.05.39.1.58.15.07.02.3.1.5.18-.56.15-1.12.33-1.67.57-1.79.81-2.36,3.55-1.35,5.13,1.18,1.83,3.15,2.2,5.05,1.38,0,0,0,0,.01,0-.15.07-.24.11-.28.12.07-.03.21-.08.33-.12.01,0,.02,0,.03,0,.15,0,.56.06.56.04.08.02.17.04.25.06.06.01.13.04.2.07.16.09.31.18.47.26.06.03.14.09.21.14.16.16.32.32.49.47.04.04.05.05.08.07ZM119.17,447.53c.15.07.25.13,0,0h0Z" fill="#231f20" stroke-width="0"/>
  <path d="M193.6,457.96c5.85-.6,12.52-2.98,16.72-7.26,4.42-4.49,5.11-11.05,2.05-16.5-3.09-5.52-9.22-8.26-15.37-8.31-7.39-.05-14.01,3.64-19.9,7.75-1.66,1.16-2.43,3.28-1.35,5.13.96,1.64,3.46,2.51,5.13,1.34,3.96-2.77,8.12-5.45,12.92-6.43,3.61-.74,8.03-.2,10.64,2.39,2.46,2.44,3.21,5.85,1.24,8.58-.87,1.2-2.38,2.25-3.91,3.07-1.96,1.06-3.91,1.76-6.16,2.33-2.26.57-4.57.77-6.8.07-1.84-.58-3.14-1.65-4-3.47-.87-1.83-3.49-2.31-5.13-1.34-1.87,1.09-2.22,3.29-1.35,5.13,2.68,5.62,9.34,8.13,15.25,7.53Z" fill="#231f20" stroke-width="0"/>
  <path d="M277.22,457.65c6.24-2.52,11.29-7.9,12.65-14.6.4-1.98-.57-4.05-2.62-4.61-1.85-.51-4.21.62-4.61,2.62-.76,3.77-2.97,6.81-6.32,8.75-3.31,1.92-6.96,2.29-10.6.72-2.99-1.29-5.92-4.21-7.04-7.32-1.18-3.28-1.21-7.9,2.32-9.85,4.57-2.51,10.28.6,14.57,2.84,4.27,2.23,8.07-4.24,3.78-6.48-6-3.13-12.9-6.3-19.73-3.89-6.94,2.44-9.95,9.35-8.9,16.34,1.79,11.93,15.21,20.02,26.49,15.47Z" fill="#231f20" stroke-width="0"/>
  <path d="M118.64,502.67c-18.25-4.16-34.62,18.48-27.86,34.93,3.93,9.56,14.93,14.8,24.47,9.85,4.29-2.22.5-8.7-3.78-6.48-5.13,2.66-10.92-.5-13.35-5.25-2.85-5.57-1.24-12.14,2.02-17.14,3.08-4.74,8.41-8.84,14.27-8.89,4.68-.04,9.92,3.41,10.42,8.34.76,7.49-8.31,10.81-14.08,11.94-1.99.39-3.13,2.77-2.62,4.61.57,2.08,2.62,3.01,4.61,2.62,8.99-1.75,18.39-7.07,19.51-17.06.93-8.23-5.86-15.72-13.61-17.48Z" fill="#231f20" stroke-width="0"/>
  <path d="M201.74,502.87c-4.67,1.19-2.69,8.42,1.99,7.23.48-.12.39-.13.99-.12.22,0,.54.03.99.17.64.2,1.33.58,1.84,1.06,1.32,1.25,1.94,3.14,2.03,4.83.19,3.65-1.36,7.22-4.41,9.64-5.8,4.59-14.99,1.69-17.3-5.3-.66-1.99-.88-3.98-.42-5.91.22-.94.51-1.76,1.15-2.43.14-.15.58-.44.76-.55-.21.12.41-.12.36-.1-.42.15.55.03.13-.04,1.99.34,4.04-.53,4.61-2.62.49-1.8-.61-4.27-2.62-4.61-8.02-1.35-12.61,6.43-12.08,13.6.47,6.31,3.96,12.39,9.63,15.41,5.81,3.1,13.3,3.09,18.9-.5,5.32-3.41,8.81-9.5,8.81-15.86,0-3.93-1.37-8.08-4.25-10.85-2.95-2.84-7.13-4.05-11.11-3.04Z" fill="#231f20" stroke-width="0"/>
  <path d="M291.04,519.77c-.51.6-1.06,1.15-1.65,1.66-.05.03-.43.33-.57.43-.4.26-.82.51-1.25.73-.22.12-1.29.53-.57.29-.36.12-.71.26-1.07.37-.41.13-.83.24-1.25.33-.16.03-.32.06-.48.1-.09.02-.13.03-.18.04-.04,0-.05,0-.1,0-.81.07-1.61.1-2.42.06-.18,0-.62-.07-.71-.07-.44-.08-.88-.16-1.31-.27-.36-.1-.72-.21-1.07-.34-.05-.02-.23-.09-.35-.14-.04-.02-.08-.04-.09-.04-.38-.2-.76-.39-1.13-.62-.18-.11-.36-.24-.54-.35-.07-.04-.11-.07-.15-.09,0,0-.02-.03-.08-.08-.36-.32-.7-.64-1.03-.99-.09-.1-.49-.62-.53-.65-.23-.34-.46-.69-.66-1.05-.08-.15-.15-.3-.23-.45-.02-.06-.12-.29-.17-.43-.13-.39-.23-.78-.31-1.18,0-.02,0-.03-.01-.05,0-.22-.03-.44-.03-.67,0-.21.01-.42.03-.63,0-.03.01-.05.02-.09.06-.23.12-.45.18-.68.02-.09.05-.17.08-.23.19-.4.43-.78.66-1.15.39-.61.18-.24.07-.11.16-.19.32-.37.49-.55.34-.36.7-.69,1.07-1.02,0,0,.1-.08.18-.15.12-.09.49-.36.53-.39,1.88-1.3,3.29-1.99,5.4-2.42.03,0,.19-.02.3-.03.31-.02.61-.03.92-.03.04,0,.36.02.52.03.17.04.68.14.68.15.15.04.3.1.45.15.04.02.08.05.15.09.12.08.25.15.38.23-.22-.13.34.26.44.35.12.11.22.24.34.35.04.04.06.05.07.06.01.02.02.04.04.07.11.18.22.37.33.55.03.05.04.07.06.1,0,0,0,0,0,.02.02.17.08.41.16.57,0,.03,0,.06.01.11,0,.04.01.07.02.11-.06.25-.12.5-.2.74-.65,1.85.74,4.18,2.62,4.61,2.09.48,3.92-.63,4.61-2.62,1.95-5.58-2.56-11.76-8.08-12.86-5.93-1.18-12.6,1.74-16.55,6.2-2.04,2.3-3.34,5.02-3.47,8.12-.11,2.71.82,5.56,2.31,7.81,3.03,4.58,7.98,7.12,13.39,7.48,5.52.36,11.42-1.92,14.99-6.19,1.26-1.5,1.58-3.85,0-5.3-1.39-1.27-3.96-1.61-5.3,0ZM273.15,515.75c-.03.18-.09.36,0,0h0ZM273.16,516.97c-.13-.59-.02-.18,0,0h0Z" fill="#231f20" stroke-width="0"/>
</svg>