<?xml version="1.0" encoding="UTF-8"?>
<svg id="a" data-name="Layer 1" xmlns="http://www.w3.org/2000/svg" viewBox="0 0 750 667.8">
  <path d="M749.37,514.44c.92-21.11,1.01-42.31-.98-63.37-1.99-20.93-6.04-41.76-13.46-61.48-6.37-16.93-15.73-35.95-33.67-42.62-1.73-4.6-3.85-9.06-6.46-13.25-5.64-9.07-13.55-16.89-23.51-21.05-7.99-3.33-17.12-4.22-25.47-1.96-1.89-2.11-3.92-4.12-6.1-5.98-9.67-8.26-22.15-13.88-35.07-13.06-3.37.21-6.73.84-9.98,1.83-.01-.02-.02-.05-.03-.07-1.87-3.92-4.11-7.68-6.22-11.47-3.98-7.14-7.99-14.26-11.99-21.39-4.94-8.81-9.88-17.61-14.77-26.44-4.92-8.87-9.81-17.77-14.61-26.71-3.43-6.4-6.83-12.82-10.06-19.32-.05-.46-.24-.88-.58-1.16-.24-.49-.49-.97-.73-1.46-.34-.7-.68-1.4-1.01-2.1-.44-.92-1.75-1.16-2.58-.68-.94.55-1.12,1.66-.68,2.58.25.53.51,1.05.77,1.57-13.13,1.12-26.27,2.25-39.4,3.37-16.22,1.39-32.45,2.79-48.67,4.19-16.99,1.46-33.97,2.93-50.96,4.39-16.39,1.41-32.78,2.82-49.17,4.23-14.43,1.24-28.85,2.48-43.28,3.71-1.33.11-2.67.23-4,.34.12-1.1.25-2.2.37-3.3,1.11-9.85,2.23-19.71,3.34-29.56.07-.61-.29-1.16-.78-1.51,1.4-1.41,2.61-3.02,3.56-4.87,2.99-5.83,3.43-12.72,1.99-19.04-1.62-7.08-5.79-13.35-10.48-18.78-4.84-5.59-10.38-10.63-15.95-15.47-5.71-4.96-11.66-9.65-17.87-13.97-12.24-8.52-25.6-15.57-39.81-20.17-14.74-4.76-30.53-6.81-45.98-5.28-7.65.76-15.22,2.35-22.47,4.94-6.63,2.37-14.52,5.41-17.41,12.43-.74,1.79-1.05,3.74-.88,5.64-.63.24-1.12.8-1.09,1.68.27,9.86.54,19.72.81,29.58-.34.52-.44,1.19-.04,1.89.03.06.07.11.1.17l1.03,37.63c.05,1.87.1,3.73.15,5.6,0,.06,0,.12,0,.17.58,21.17,1.16,42.33,1.74,63.5.35,12.93.71,25.85,1.06,38.78,0,.12.02.23.04.34-.57-.1-1.16.04-1.62.5-.68.68-.78,2.01,0,2.67,13.9,11.81,29.91,20.95,47.06,27.14,17.07,6.16,35.25,9.35,53.4,9.32,10.21-.02,20.43-1.09,30.43-3.19.71-.15,1.2-.79,1.34-1.48.09-.15.16-.31.19-.49.68-4.48,1.36-8.97,2.03-13.45,3.1-.31,6.2-.64,9.29-.97,1.01-.11,1.89-.79,1.89-1.89,0-.94-.87-1.99-1.89-1.89-2.9.31-5.81.61-8.71.91.55-3.64,1.1-7.29,1.65-10.93,2.32-.2,4.64-.44,6.95-.73,2.4-.3,2.44-3.5,0-3.77-.95-.11-1.9-.21-2.86-.32-.62-.07-1.18.3-1.53.81-.66.07-1.32.13-1.99.19.88-5.83,1.76-11.65,2.64-17.48.63-4.18,1.26-8.35,1.89-12.53,2.29-.48,4.56-1.01,6.83-1.59,2.35-.61,1.35-4.25-1-3.64-1.73.45-3.47.85-5.22,1.24.96-6.38,1.93-12.76,2.89-19.14,3.02-.57,6.03-1.22,9.02-1.97.03,0,.07-.02.1-.03-.07.61-.14,1.21-.21,1.82-1.96,17.34-3.92,34.68-5.88,52.02-1.11,9.85-2.23,19.71-3.34,29.56-.11,1.01.95,1.89,1.89,1.89,1.12,0,1.77-.87,1.89-1.89,1.97-17.46,3.95-34.93,5.92-52.39,1.13-9.97,2.26-19.94,3.38-29.91,8.52,17.88,17.09,35.73,25.68,53.58,9.26,19.23,18.55,38.45,27.85,57.66,9.36,19.34,18.74,38.67,28.1,58.01,9.32,19.24,18.63,38.48,27.91,57.73,9.12,18.93,18.22,37.87,27.27,56.84,1.1,2.3,2.19,4.59,3.28,6.89.27.56.68.85,1.13.94-4.72.5-9.43,1-14.15,1.5l-6.52.69c-.03-.2-.07-.41-.18-.62-7.8-16.47-15.59-32.93-23.39-49.4-2.19-4.63-4.39-9.27-6.58-13.9.56-1.75,1.13-3.5,1.69-5.25.74-2.32-2.9-3.31-3.64-1-.14.42-.27.85-.41,1.27-4.81-10.17-9.63-20.34-14.44-30.51-3.68-7.78-7.37-15.56-11.05-23.34.59.1,1.19.2,1.78.3,3.77.63,7.54,1.26,11.31,1.88,2.38.4,3.4-3.24,1-3.64-5.35-.89-10.7-1.78-16.05-2.67-3.5-7.38-6.99-14.77-10.49-22.16-7.8-16.47-15.59-32.93-23.39-49.4-7.8-16.47-15.59-32.93-23.39-49.4-.97-2.06-1.95-4.12-2.92-6.17-1.04-2.19-4.29-.28-3.26,1.9,7.8,16.47,15.59,32.93,23.39,49.4,7.8,16.47,15.59,32.93,23.39,49.4,4.05,8.56,8.1,17.12,12.15,25.67-24.25-4.04-48.49-8.08-72.74-12.11-31.1-5.18-62.2-10.36-93.31-15.54-15.55-2.59-31.1-5.18-46.65-7.77-13.13-2.19-27.15-4.95-40.23-1.02-11.98,3.6-20.17,13-26.08,23.61-3.11,5.58-5.68,11.44-8.31,17.26-3.25,7.17-6.5,14.34-9.74,21.51-7.5,16.55-14.99,33.1-22.49,49.65-.52-.08-1.04-.15-1.55-.23-2.38-.35-3.4,3.29-1,3.64.32.05.63.09.95.14-3.54,7.82-7.08,15.64-10.62,23.46-3.15-.46-6.3-.93-9.45-1.39-1.01-.15-2.03-.3-3.04-.45-2.38-.35-3.4,3.29-1,3.64,3.96.58,7.92,1.17,11.88,1.75-.88,1.95-1.77,3.9-2.65,5.85-1.49,3.29-2.98,6.59-4.48,9.88-2.59-.4-5.18-.8-7.76-1.2-2.38-.37-3.4,3.27-1,3.64,31.48,4.86,62.97,9.71,94.45,14.57,31.43,4.85,62.86,9.7,94.28,14.55,31.41,4.85,62.83,9.69,94.24,14.54,13.22,2.04,26.95,5.16,40.39,3.83,6.12-.6,12.18-2.21,17.43-5.5,5.09-3.19,9.09-7.76,12.13-12.9,3.17-5.35,5.37-11.23,7.34-17.11.85-2.55,1.69-5.12,2.51-7.68,1.64.24,3.29.49,4.93.73,1.01.15,2.03.3,3.04.45,2.38.35,3.4-3.29,1-3.64-2.61-.38-5.21-.77-7.82-1.15,1.07-3.35,2.13-6.69,3.2-10.04,4.85-15.09,9.7-30.18,14.55-45.27.08-.25.16-.49.24-.74.69,1.47,1.39,2.93,2.08,4.4,7.8,16.47,15.59,32.93,23.39,49.4.84,1.77,1.67,3.53,2.51,5.3-1.28.14-2.56.27-3.85.41-1.01.11-1.89.79-1.89,1.89,0,.94.87,2,1.89,1.89,16.58-1.76,33.16-3.52,49.75-5.28,4.74-.5,9.48-1.01,14.21-1.51,1.01-.11,1.89-.79,1.89-1.89,0-.94-.87-2-1.89-1.89-11.54,1.22-23.08,2.45-34.62,3.67.97-.38,1.73-1.52,1.15-2.74-9.01-18.92-18.07-37.81-27.16-56.68-9.26-19.23-18.55-38.45-27.85-57.66-9.36-19.34-18.74-38.67-28.1-58.01-9.32-19.24-18.63-38.48-27.91-57.73-9.12-18.93-18.22-37.87-27.27-56.84-1.1-2.3-2.19-4.59-3.28-6.89-.26-.55-.66-.84-1.1-.93.34-3.01.68-6.03,1.02-9.04,14.02-1.2,28.03-2.4,42.04-3.6,16.22-1.39,32.45-2.79,48.67-4.19,16.99-1.46,33.97-2.93,50.96-4.39,16.39-1.41,32.78-2.82,49.17-4.23,14.43-1.24,28.85-2.48,43.28-3.71,1.19-.1,2.37-.2,3.56-.3,2.66,5.33,5.44,10.59,8.24,15.84,4.7,8.81,9.49,17.56,14.32,26.29,4.94,8.93,9.92,17.83,14.91,26.73,4.18,7.45,8.38,14.9,12.54,22.36,2.4,4.29,4.86,8.56,7.09,12.95.02.04.04.08.06.13-5.22,2.13-9.98,5.3-13.77,9.46-12.48-1.69-25.4.19-37.58,3.03-.53.12-1.05.26-1.58.39-.32-.63-.95-1.14-1.67-1.05-17.2,2.13-34.41,4.25-51.61,6.38-.41-.89-.81-1.78-1.22-2.67-.42-.93-1.76-1.15-2.58-.68-.95.56-1.1,1.65-.68,2.58.19.42.38.83.57,1.25-2.55.32-5.1.63-7.65.95-14.88,1.84-29.77,3.71-44.7,5.12-.32-.62-.63-1.23-.95-1.85-1.11-2.16-4.36-.26-3.26,1.9.05.11.11.21.16.32-4.74.42-9.49.8-14.24,1.1-11.61.73-23.24,1.04-34.87.71-1.31-1.7-4.24.12-3.09,2.14,9.07,15.96,17.27,32.38,24.99,49.03-.09.74.2,1.51.86,1.87.61,1.32,1.22,2.63,1.82,3.95,8.49,18.64,16.43,37.52,24.37,56.39,4.67,11.1,9.34,22.19,14,33.29.39.94,1.25,1.61,2.32,1.32.88-.24,1.72-1.38,1.32-2.32-6.79-16.13-13.54-32.28-20.37-48.4.05,0,.1,0,.15-.02,16.25-3.27,32.57-6.21,48.93-8.82,2.22,4.33,4.43,8.66,6.65,12.99,4.98,9.72,9.95,19.44,14.93,29.16,1.11,2.16,4.36.26,3.26-1.9-6.97-13.62-13.95-27.24-20.92-40.86,2.12-.33,4.23-.66,6.35-.98,13.73-2.07,27.49-3.91,41.29-5.51.4.87.8,1.75,1.2,2.62,5.47,11.98,10.86,24,16.25,36.02,1.37,3.05,2.74,6.1,4.11,9.15l-35.11,4.12c-6.1.71-12.2,1.43-18.3,2.15-.08,0-.15.03-.23.04-1.55-1.23-3.15-2.38-4.82-3.4-5.83-3.54-13.85-5.1-19.8-.88-3.57,2.53-5.16,6.26-5.63,10.26-4.14.21-8.28.43-12.42.64-1.02.05-1.89.83-1.89,1.89,0,.98.86,1.94,1.89,1.89,4.1-.21,8.19-.42,12.29-.63.05,1.44.21,2.88.44,4.28,1.27,7.71,4.04,15.36,6.86,22.62,5.76,14.85,13.43,28.84,21.72,42.42,8.22,13.46,16.51,27.06,25.97,39.69,8.95,11.94,19.03,23.03,30.52,32.56,5.83,4.84,11.99,9.3,18.43,13.29,4.12,2.55,8.65,5,13.42,6.16.29,3.77.59,7.55.89,11.32.7,8.92,1.41,17.84,2.11,26.76.19,2.41,3.96,2.43,3.77,0-.69-8.8-1.39-17.6-2.08-26.41-.29-3.68-.58-7.36-.87-11.05,1.37.11,2.77.09,4.17-.08,6.09-.76,12.64-4.54,14.03-10.96,1.18-5.43-1.63-11.99-7.1-13.88-6.79-2.35-12.94,3.7-14.6,9.83-.93,3.41-.87,6.96-.63,10.46-2.6-.76-5.12-1.91-7.45-3.19-6.51-3.58-12.69-7.95-18.51-12.55-11.13-8.81-21.04-19.07-29.82-30.22-9.29-11.79-17.15-24.62-25.1-37.33-8.07-12.91-15.82-26.07-22-40.01-3.17-7.16-5.89-14.53-8.06-22.06-1.71-5.92-4.2-13.7-.95-19.53,3.75-6.72,12.62-5.5,18.24-2.17,6.55,3.88,11.87,9.93,17.28,15.19,10.74,10.44,22.69,20.91,38.11,22.97,6.9.92,13.91-.15,20.02-3.57,5.77-3.23,10.47-8.23,13.88-13.85,8.24-13.57,9.04-30.66,9.19-46.12.08-8.65-.34-17.3-1.28-25.9-.83-7.67-1.83-15.46-3.84-22.92-1.59-5.93-4.05-11.9-8.37-16.39-4.26-4.42-10.1-6.73-16.2-6.88-12.76-.33-24.3,6.91-36.95,7.51-6.66.32-13.06-1.71-17.91-6.4-5.03-4.85-7.43-11.69-6.7-18.63,1.54-14.69,15.92-21.13,28.32-24.97,17.18-5.32,37.2-10.99,55.68-9.14-.1.14-.21.28-.3.42-.8,1.2-1.51,2.46-2.14,3.76-.44.92-.25,2.04.68,2.58.83.48,2.14.25,2.58-.68.96-1.99,2.14-3.83,3.48-5.52,9.04,1.52,17.61,5.05,25.18,11.54,10.11,8.68,16.86,20.77,20.58,33.46,4.61,15.75,4.38,32.46,2.71,48.64-.86,8.37-2.13,16.68-3.41,24.99-.37,2.38,3.27,3.4,3.64,1,4.92-31.92,9.78-67.16-8.36-96.04-7.48-11.9-18.41-21.32-31.95-25.53-1.76-.55-3.53-.99-5.32-1.37,5.37-5.02,12.46-8.19,19.81-9.27,11.87-1.75,23.76,2.67,33.11,9.84,2.56,1.96,4.92,4.13,7.11,6.45-.56.23-1.12.47-1.67.73-1.19.57-2.34,1.21-3.45,1.93-2.03,1.31-.14,4.58,1.9,3.26,1.87-1.21,3.85-2.15,5.89-2.88,5.51,6.63,9.75,14.33,12.94,22.34,5.46,13.74,8.5,28.5,10.64,43.08,2.27,15.46,3.14,31.15,2.64,46.77-.06,1.95-.15,3.9-.25,5.85-.13,2.43,3.64,2.42,3.77,0,.86-16.15.26-32.37-1.8-48.41-1.97-15.26-4.89-30.71-10.18-45.2-3.33-9.13-7.79-17.94-13.81-25.55,6.19-1.3,12.77-.75,18.82,1.26,9.54,3.18,17.34,10.19,22.89,18.43,2.55,3.78,4.64,7.79,6.38,11.95-1.72-.38-3.47-.62-5.23-.75-2.42-.17-2.41,3.61,0,3.77,2.43.17,4.72.61,6.9,1.26,1.65,4.66,2.92,9.46,3.92,14.31,2.5,12.14,3.53,24.56,4.91,36.86,1.44,12.88,2.89,25.75,4.33,38.63l.54,4.85c.11,1.01.79,1.89,1.89,1.89.93,0,2-.87,1.89-1.89-1.49-13.31-2.98-26.62-4.47-39.94-1.44-12.82-2.52-25.76-4.87-38.46-.9-4.87-2.05-9.73-3.55-14.46,13.47,6.53,21.74,22.09,27.11,35.57,7.63,19.16,12.02,39.49,14.23,59.96,2.22,20.66,2.34,41.49,1.58,62.24-.82,22.33-2.66,44.6-3.85,66.91-1.2,22.45-1.76,44.99-.02,67.43.22,2.8.47,5.61.76,8.4.25,2.39,4.02,2.42,3.77,0-2.37-22.89-2.17-45.94-1.09-68.9,1.07-22.97,3-45.88,4-68.85ZM345.99,550.38c-4.3,4.54-9.8,7.43-15.87,8.84-12.68,2.93-26.13.06-38.74-1.89-30.91-4.77-61.82-9.54-92.73-14.31-30.67-4.73-61.33-9.46-92-14.19-30.89-4.77-61.77-9.53-92.66-14.3,2.38-5.25,4.76-10.5,7.14-15.76.44.07.88.13,1.33.2,9.23,1.36,18.46,2.73,27.69,4.09,11.98,1.77,23.96,3.54,35.94,5.31,13.76,2.04,27.53,4.07,41.29,6.11,14.8,2.19,29.59,4.38,44.39,6.57,14.84,2.19,29.68,4.39,44.52,6.58,14.14,2.09,28.28,4.18,42.42,6.27,12.45,1.84,24.91,3.68,37.36,5.52,10.01,1.48,20.02,2.96,30.02,4.44,6.61.98,13.22,1.95,19.84,2.93.91.13,1.81.27,2.72.4-.82,1.11-1.7,2.18-2.65,3.19ZM355.24,534.95c-1.24,3.09-2.69,6.14-4.43,9.01-.21-.17-.48-.31-.84-.36-5.69-.84-11.38-1.68-17.07-2.52-9.23-1.36-18.46-2.73-27.69-4.09-11.98-1.77-23.96-3.54-35.94-5.31-13.76-2.04-27.53-4.07-41.29-6.11-14.8-2.19-29.59-4.38-44.39-6.57-14.84-2.19-29.68-4.39-44.52-6.58-14.14-2.09-28.28-4.18-42.42-6.27-12.45-1.84-24.91-3.68-37.36-5.52-10.01-1.48-20.02-2.96-30.02-4.44-2.18-.32-4.35-.64-6.53-.96,3.54-7.82,7.08-15.64,10.62-23.46,4.09.6,8.17,1.21,12.26,1.81,9.23,1.36,18.46,2.73,27.69,4.09,11.98,1.77,23.96,3.54,35.94,5.31,13.76,2.04,27.53,4.07,41.29,6.11,14.8,2.19,29.59,4.38,44.39,6.56,14.84,2.19,29.68,4.39,44.52,6.58,14.14,2.09,28.28,4.18,42.42,6.27,12.45,1.84,24.91,3.68,37.36,5.52,10.01,1.48,20.02,2.96,30.02,4.44,3.7.55,7.41,1.09,11.11,1.64-1.58,4.99-3.17,9.99-5.12,14.84ZM368.72,494.07c-2.37,7.36-4.73,14.73-7.1,22.09-.04.11-.07.22-.11.34-1.82-.27-3.63-.54-5.45-.8-9.23-1.36-18.46-2.73-27.69-4.09-11.98-1.77-23.96-3.54-35.94-5.31-13.76-2.04-27.53-4.07-41.29-6.11-14.8-2.19-29.59-4.38-44.39-6.56-14.84-2.19-29.68-4.39-44.52-6.58-14.14-2.09-28.28-4.18-42.42-6.27-12.45-1.84-24.91-3.68-37.36-5.52-10.01-1.48-20.02-2.96-30.02-4.44-5.82-.86-11.64-1.72-17.46-2.58,5.52-12.19,11.05-24.39,16.57-36.58,6.21-13.71,12.29-27.49,18.65-41.14,4.89-10.48,10.73-21.69,20.95-27.87,11.58-7.01,25.89-5.55,38.66-3.53,15.13,2.39,30.22,5.02,45.33,7.54,30.63,5.1,61.26,10.2,91.89,15.3,28.53,4.75,57.06,9.5,85.59,14.26,3.13,6.61,6.26,13.21,9.38,19.82,6.31,13.34,12.63,26.67,18.94,40.01-4.07,12.68-8.15,25.36-12.22,38.04ZM286.8,182.68c-.89-.25-2.17.3-2.32,1.32-.95,6.28-1.9,12.57-2.85,18.85-7.9.92-15.87,1.18-23.81.81.89-5.27,1.74-10.54,2.53-15.82.15-1.01-.25-2.03-1.32-2.32-.89-.24-2.17.3-2.32,1.32-.83,5.55-1.72,11.08-2.66,16.61-11.26-.81-22.41-2.94-33.18-6.29.64-7.47,1.18-14.95,1.59-22.44,1.06.31,2.12.64,3.19.93,13.21,3.6,26.92,5.5,40.62,5.48,6.91,0,14.08-.23,20.83-1.81,3.38-.79,6.62-2.1,9.42-4.02-.98,8.69-1.97,17.39-2.95,26.08-.39-.18-.85-.23-1.31-.14-2.24.43-4.5.79-6.76,1.12l2.62-17.34c.15-1.01-.25-2.03-1.32-2.32ZM244.82,249.71c-6.12.03-12.24-.27-18.33-.91-3.79-.39-7.56-.93-11.32-1.58,1.01-7.24,1.94-14.49,2.79-21.75.15.03.29.07.44.11,10.1,2.29,20.45,3.56,30.81,3.81-.42,2.08-.85,4.17-1.29,6.25-.99,4.7-2.03,9.39-3.1,14.07ZM232.48,297.21c-3.95.02-7.9-.04-11.86-.24-4.44-.22-8.88-.6-13.3-1.17,1.07-5.76,2.1-11.52,3.07-17.3,8.55,2.18,17.26,3.77,26.03,4.75-.06.2-.11.41-.16.61-1.22,4.46-2.48,8.91-3.77,13.35ZM145.03,273.1c3.8,3.49,7.89,6.6,12.2,9.37-.11,2.38-.22,4.75-.35,7.13-.02.38-.04.77-.07,1.15-5.76-3.55-11.27-7.5-16.47-11.82.82-.12,1.55-.72,1.52-1.8l-1.9-69.27c-.26-9.34-.51-18.68-.77-28.02,6.14,6.6,12.86,12.65,20.05,18.1-.04,1.93-.09,3.85-.12,5.78-.15,7.56-.28,15.12-.42,22.69-5.32-3.16-10.46-6.62-15.38-10.38-.81-.62-2.11-.13-2.58.68-.57.97-.14,1.96.68,2.58,5.48,4.19,11.23,8,17.2,11.45-.02,1.28-.05,2.57-.07,3.85-.11,5.84-.24,11.69-.37,17.53-3.37-2.12-6.67-4.34-9.89-6.68-.83-.6-2.1-.14-2.58.68-.56.95-.15,1.98.68,2.58,3.79,2.75,7.69,5.34,11.69,7.79-.06,2.57-.12,5.14-.19,7.71-.13,4.63-.28,9.26-.46,13.89-3.41-2.31-6.67-4.85-9.72-7.65-1.79-1.64-4.46,1.02-2.67,2.67ZM163.79,168.61c5.27,4.79,10.88,9.22,16.76,13.23,2.12,1.44,4.27,2.81,6.46,4.14-.57,7.91-1.15,15.83-1.72,23.74-7.23-3.63-14.19-7.83-20.76-12.54-.5-.36-.98-.73-1.48-1.09.13-6.09.27-12.18.44-18.26.09-3.07.19-6.15.29-9.22ZM160.88,149.64c-.21,3.47-.38,6.95-.53,10.42-.16-.17-.33-.33-.5-.5-7.82-8.04-14.72-16.95-20.5-26.57-.52-.86-1.02-1.74-1.52-2.61-.18-6.56-.36-13.12-.54-19.68,1.19,2.75,2.69,5.37,4.35,7.84,3.95,5.87,8.73,11.25,13.7,16.27,9.62,9.74,20.6,18.15,32.45,25,.4.23.81.45,1.21.68-.11.24-.18.5-.2.77-.49,6.82-.99,13.64-1.48,20.47-.46-.28-.92-.56-1.37-.85-7.86-5.04-15.22-10.84-21.98-17.28.15-3.73.31-7.46.52-11.19.05-.93.1-1.86.16-2.79.15-2.43-3.63-2.42-3.77,0ZM211.49,246.54c-8.35-1.65-16.58-3.93-24.59-6.82.02-.21.03-.43.05-.64.57-7.86,1.14-15.73,1.71-23.59,8.26,3.77,16.84,6.84,25.64,9.1-.1.86-.2,1.72-.3,2.57-.77,6.47-1.61,12.93-2.5,19.38ZM162.35,232.82c6.64,3.61,13.52,6.76,20.59,9.45-.45,6.14-.89,12.29-1.34,18.43-.09,1.25-.18,2.51-.27,3.76-2.3-1.02-4.58-2.09-6.83-3.2-4.29-2.12-8.49-4.42-12.6-6.87.13-5.36.24-10.72.35-16.08.04-1.83.07-3.65.1-5.48ZM162.96,200.67c6.97,4.97,14.35,9.35,22.04,13.1-.59,8.19-1.19,16.39-1.78,24.58-4.09-1.59-8.12-3.33-12.06-5.23-2.96-1.43-5.86-2.96-8.73-4.56.13-7.04.26-14.08.39-21.12.04-2.26.09-4.51.14-6.77ZM186.61,243.62c2.42.86,4.86,1.66,7.32,2.41,5.6,1.7,11.28,3.11,17.03,4.24-1.12,7.85-2.32,15.7-3.61,23.52-7.61-2.11-15.08-4.7-22.36-7.75.54-7.47,1.08-14.95,1.63-22.42ZM191.95,212.87c-1.01-.45-2.01-.91-3.01-1.38.54-7.4,1.07-14.81,1.61-22.21.03-.39.06-.78.08-1.17,6.93,3.94,14.17,7.33,21.65,10.11,1.51.56,3.04,1.1,4.57,1.61-.62,7-1.34,13.99-2.13,20.96-7.79-2.03-15.42-4.66-22.78-7.93ZM217.19,195.96c-9.14-3.11-17.93-7.16-26.25-12.03.52-7.16,1.04-14.33,1.56-21.49,8.39,4.48,17.2,8.2,26.26,11.12,0,.03-.01.06-.01.1-.4,7.44-.92,14.88-1.55,22.3ZM161.55,267.57c.09-2.96.16-5.92.24-8.88,6.22,3.62,12.66,6.87,19.26,9.75-.49,6.76-.98,13.51-1.47,20.27-.02.21.02.41.09.6-3-1.08-5.96-2.29-8.86-3.64-3.33-1.55-6.57-3.29-9.71-5.2.18-4.3.33-8.59.46-12.89ZM183.34,288.7c.45-6.24.9-12.47,1.36-18.71,3.46,1.42,6.96,2.75,10.49,3.97,3.8,1.31,7.65,2.5,11.53,3.57-.24,1.4-.47,2.81-.71,4.21-.78,4.51-1.59,9.02-2.43,13.53-7.16-1.1-14.23-2.73-21.09-5,.5-.34.81-.92.85-1.57ZM225.87,277.96c-5-.86-9.96-1.94-14.87-3.2.89-5.4,1.74-10.8,2.55-16.21.38-2.53.75-5.07,1.11-7.6,9.67,1.68,19.49,2.54,29.3,2.54-2.04,8.73-4.22,17.43-6.54,26.08-3.86-.42-7.71-.95-11.54-1.61ZM223.51,222.82c-1.71-.34-3.41-.72-5.11-1.11.7-6.12,1.34-12.25,1.91-18.39.07-.77.14-1.55.21-2.32,9.57,2.92,19.42,4.88,29.38,5.88,1.16.12,2.33.2,3.5.29-1.08,6.17-2.23,12.34-3.45,18.49-8.87-.17-17.73-1.11-26.44-2.83ZM255.72,215.53c.5-2.71.98-5.43,1.45-8.14,7.96.4,15.95.16,23.87-.7-.85,5.61-1.7,11.22-2.54,16.83-6.44,1.09-12.94,1.79-19.48,2.04-1.75.07-3.49.1-5.24.11.66-3.37,1.31-6.75,1.94-10.13ZM139.58,92.17c1.73-2.69,4.67-4.43,7.49-5.79,6.54-3.16,13.71-5.2,20.84-6.49,14.5-2.62,29.57-1.72,43.84,1.78,13.99,3.44,27.21,9.45,39.43,17.03,12.22,7.57,23.42,16.68,33.78,26.64,9.21,8.86,19.01,20.22,17.01,33.98-.87,5.97-4.03,11.17-9.42,14.04-5.8,3.09-12.82,3.48-19.25,3.8-13.06.65-26.19-.48-38.96-3.27-12.74-2.79-25.12-7.18-36.77-13.05-11.68-5.9-22.63-13.24-32.43-21.92-4.9-4.34-9.51-9.01-13.79-13.97-4.5-5.22-8.92-10.91-11.32-17.44-.6-1.64-1.06-3.31-1.35-5.01.46-.53.63-1.29.18-2.08-.21-.37-.38-.75-.51-1.14-.02-.57-.03-1.14-.01-1.71.01-.44-.1-.79-.29-1.07.14-1.51.71-3.01,1.53-4.3ZM154.31,159.19c1.89,2.05,3.84,4.05,5.84,5.99-.12,3.09-.22,6.18-.32,9.28-.19,6.27-.34,12.55-.48,18.82-6.51-5.11-12.6-10.75-18.19-16.85-.72-.78-1.42-1.58-2.12-2.37-.32-11.82-.65-23.65-.97-35.47,0-.19-.01-.37-.02-.56,4.78,7.52,10.23,14.61,16.26,21.16ZM163.61,294.7c-1.08-.59-2.15-1.19-3.22-1.81.05-.16.09-.32.1-.51.15-2.56.28-5.11.4-7.67,8.99,5.23,18.82,9.04,28.91,11.61,4.32,1.1,8.69,1.97,13.08,2.65-.64,3.36-1.3,6.72-1.97,10.08-12.99-3.14-25.57-7.94-37.3-14.35ZM265.36,310.48c-16.94,3.42-34.52,3.74-51.6,1.11-3.08-.47-6.14-1.05-9.18-1.7.7-3.46,1.37-6.92,2.03-10.38,8.19,1.06,16.47,1.49,24.74,1.48-.97,3.28-1.96,6.57-2.98,9.84-.72,2.33,2.92,3.32,3.64,1,1.12-3.62,2.21-7.24,3.29-10.88,3.68-.06,7.37-.2,11.04-.41,6.94-.38,13.86-.98,20.77-1.66-.58,3.87-1.17,7.73-1.75,11.6ZM267.69,295.05c-10.4,1.03-20.83,1.87-31.28,2.1,1.3-4.5,2.57-9,3.8-13.52,3,.27,6.01.49,9.01.62,6.71.29,13.43.22,20.13-.22-.56,3.67-1.11,7.35-1.67,11.02ZM269.94,280.22c-9.56.66-19.18.56-28.73-.27,1.41-5.29,2.78-10.6,4.09-15.92.87-3.52,1.71-7.05,2.53-10.58,1.45-.03,2.9-.08,4.35-.15,7.45-.37,14.88-1.24,22.22-2.61-1.49,9.84-2.98,19.69-4.46,29.53ZM276.99,233.51c-.67,4.41-1.33,8.81-2,13.22-8.67,1.69-17.47,2.66-26.3,2.91,1.53-6.72,2.97-13.46,4.34-20.21.54,0,1.08.01,1.62,0,7.78-.08,15.57-.75,23.25-1.99-.31,2.02-.61,4.04-.92,6.06ZM282.4,222.8l1.49-9.88,1.01-6.7c1.19-.16,2.38-.32,3.57-.51,1.57-.25,3.13-.53,4.69-.83-.6,5.29-1.2,10.58-1.79,15.87-2.97.77-5.96,1.46-8.97,2.05ZM581.22,614.44c.85-3.14,3.01-6.28,6.25-7.28,2.55-.78,5.01.28,6.56,2.38,3.83,5.21.84,11.39-4.54,13.88-2.83,1.31-5.79,1.61-8.71,1.27-.27-3.42-.45-6.92.45-10.25ZM438.07,322.35c14.87-1.58,29.72-3.44,44.56-5.3,2.26,4.94,4.52,9.89,6.78,14.83.05.11.12.22.19.31-1.13,2.14-1.97,4.45-2.45,6.9-1.19,6.11-.29,12.56,2.72,17.98-11.27,3.28-22.69,6.01-34.23,8.17-1.1.21-2.2.4-3.31.6-3.25-6.34-6.49-12.68-9.73-19.01-4.05-7.9-8.09-15.8-12.14-23.71,2.53-.25,5.06-.5,7.59-.77ZM377.66,325.53c16.29.35,32.57-.54,48.79-2.02,7.34,14.34,14.68,28.67,22.02,43.01-9.54,1.58-19.15,2.78-28.79,3.58-6.3.52-12.62.86-18.94,1.05-2.88-6.22-5.82-12.41-8.86-18.55-4.52-9.14-9.24-18.17-14.21-27.07ZM454.24,409.09c-11.15,1.93-22.28,4.01-33.38,6.24-.22.04-.41.14-.59.27-.97-2.28-1.94-4.57-2.91-6.85-4.85-11.35-9.78-22.66-14.92-33.88,11.13-.39,22.24-1.28,33.28-2.69,4.86-.62,9.7-1.34,14.53-2.16.26.5.51,1.01.77,1.51,5.99,11.7,11.98,23.4,17.97,35.11-4.93.79-9.85,1.61-14.76,2.46ZM577.23,410.74c.77,9.08.97,18.21.61,27.31-.34,8.55-1.01,17.19-3.34,25.45-3.95,14-14.32,27.61-30.03,28.07-16.46.48-29.68-11-40.77-21.76-3.15-3.06-6.26-6.33-9.57-9.36,17.13-2.01,34.27-4.02,51.4-6.03.67,1.5,1.34,2.99,2.02,4.49.3,1.1,1,2.23,1.37,3.06.34.75,1.03,1,1.7.91.78-.07,1.56-.57,1.75-1.36.27-.81.55-1.61.82-2.42.54-1.59-1.03-2.55-2.3-2.25-.09-.13-.2-.24-.31-.35-.38-.84-.76-1.69-1.14-2.53,1.89-.22,3.79-.44,5.68-.67,6.1-.72,12.2-1.43,18.3-2.15,1.01-.12,1.89-.78,1.89-1.89,0-.93-.87-2.01-1.89-1.89-8.53,1-17.06,2-25.59,3-3.94-8.77-7.87-17.55-11.82-26.32-3.22-7.16-6.46-14.32-9.73-21.46,4.76-.54,9.53-1.05,14.3-1.53,11.2-1.13,22.41-2.11,33.64-2.94.61-.04,1.16-.33,1.51-.78.65,4.46,1.12,8.95,1.5,13.41ZM527.99,368.36c1.6-.44,3.27-.94,4.99-1.46-1.63,3.51-2.33,7.46-1.41,11.25-.2.74.1,1.49.63,1.98,1.69,4.2,5.29,7.42,9.93,7.91,4.62.48,9.35-2.14,10.59-6.76,1.23-4.59-1.14-9.59-5.91-10.78-4.58-1.14-8.57.99-11.86,3.92.06-3.12,1.32-6.18,3.1-8.79.06-.08.1-.17.14-.25,9.33-2.61,19.3-4.2,26.76,2.88,4.81,4.57,7.1,11.12,8.6,17.42.71,2.98,1.3,6.01,1.79,9.05-.31-.25-.7-.4-1.11-.37-16.56,1.22-33.09,2.78-49.58,4.66-1.68-3.65-3.36-7.3-5.06-10.94-2.72-5.84-5.48-11.66-8.27-17.46,5.62.38,11.24-.75,16.67-2.23ZM535.73,378.86c2.25-2.41,4.94-4.8,8.35-4.89,1.57-.04,3.25.41,4.24,1.71.83,1.09,1.09,2.55.91,3.88-.44,3.18-3.4,4.88-6.45,4.75-3.26-.14-5.86-2.53-7.04-5.45ZM506.84,369.94c4.72,9.79,9.33,19.64,13.88,29.51-2.23.26-4.46.53-6.69.8-13.73,1.69-27.43,3.61-41.1,5.76-1.29-2.52-2.58-5.05-3.88-7.57-4.97-9.7-9.93-19.4-14.9-29.1,5.96-1.07,11.89-2.29,17.79-3.66,6.72-1.56,13.39-3.32,20-5.27.05-.01.09-.04.13-.05,3.69,4.7,8.93,8.21,14.76,9.58ZM516.84,313.57c-6.46,2.05-13.01,4.52-18.49,8.6-2.42,1.81-4.59,3.91-6.37,6.28-1.81-3.97-3.63-7.93-5.44-11.9,4.85-.61,9.71-1.22,14.56-1.82,6.66-.82,13.32-1.65,19.97-2.47-1.41.43-2.83.85-4.23,1.3Z" fill="#231f20" stroke-width="0"/>
  <path d="M442.99,269.58c.12.54.24,1.08.36,1.62.39,1.73,3.35,1.87,3.64,0,1.94-12.58,3.89-25.15,5.83-37.73.37-2.37-2.83-3.34-3.64-1-2.01,5.83-7.97,9.84-14.1,9.72-2.43-.05-2.43,3.72,0,3.77,4.78.1,9.35-1.82,12.78-4.99-1.37,8.87-2.74,17.75-4.11,26.62-.58.4-.96,1.09-.77,1.97Z" fill="#231f20" stroke-width="0"/>
  <path d="M510.42,257.53c2.53,4.15,7.6,6.23,12.05,3.78,4.53-2.49,6.11-7.77,5.94-12.64-.11-3.12-.7-6.23-1.15-9.31-.49-3.32-.98-6.63-1.47-9.95-.15-1.01-1.42-1.56-2.32-1.32-1.08.3-1.47,1.31-1.32,2.32.74,4.99,1.56,9.98,2.2,14.98.51,4.01.73,8.68-2.46,11.69-1.11,1.05-2.63,1.75-4.18,1.51-1.6-.25-3.02-1.41-3.88-2.74-2.29-3.52-1.92-8.54-1.21-12.5.89-4.99,2.91-9.65,5.89-13.74.97-1.33-.64-3.26-2.13-2.77l-19.16,6.31c-2.74-.45-5.6.21-7.59,2.19-.12,0-.24.02-.36.05-6.55,1.76-13.42,1.94-20.02,3.44.31-.7.28-1.49-.34-2.1-.65-.65-2.04-.81-2.67,0-3.53,4.56-6.22,9.68-7.84,15.22-.81,2.76-1.33,5.61-1.6,8.47-.25,2.62-.13,5.53,1.81,7.54,1.84,1.9,4.86,2.26,7.28,1.44,2.75-.94,4.67-3.12,6.37-5.37,3.28-4.33,7.18-9.59,6.7-15.35-.22-2.6-1.5-5.29-3.42-7.18,3.34-.5,6.71-.87,10.03-1.45-2.47,3.91-4.49,8.24-4.04,12.9.52,5.39,4,10.6,9.79,11.03,6.58.49,11.23-5.16,13.27-10.76,1.95-5.36,2.47-12.15-1.44-16.79-.29-.35-.62-.66-.96-.96,3.44-1.13,6.88-2.27,10.32-3.4-1.62,3.08-2.81,6.39-3.48,9.8-.97,5-1.41,11.11,1.35,15.65ZM475.2,248.55c.59,4.48-2.67,8.82-5.15,12.21-1.24,1.69-2.51,3.56-4.36,4.64-1.23.71-3.16,1.08-4.3,0-1.35-1.28-.92-3.8-.75-5.44.24-2.26.71-4.5,1.33-6.69,1.08-3.78,2.69-7.43,4.79-10.77.41.4,1,.6,1.73.41,3.33-1.05,6.3,2.52,6.71,5.63ZM500.12,238.68c3.1,3.17,2.44,8.55,1.24,12.38-1.3,4.18-4.23,9-9.15,9.16-3.93.13-6.36-3.45-6.86-7.02-.71-5.1,2.43-9.86,5.27-13.93.07-.01.13-.02.2-.05,2.2-.72,4.4-1.45,6.59-2.17,1,.31,1.97.86,2.71,1.61Z" fill="#231f20" stroke-width="0"/>
  <path d="M327.13,237.34c8.2,14.42,16.39,28.83,24.59,43.25,2.3,4.04,4.59,8.08,6.89,12.12.96,1.69,3.24.81,3.49-.7,24.34-2.15,48.67-4.3,73.01-6.44,24.94-2.2,49.88-4.4,74.83-6.6,14-1.24,28-2.47,41.99-3.71,1.02-.09,1.89-.8,1.89-1.89,0-.95-.87-1.98-1.89-1.89-24.94,2.2-49.88,4.4-74.83,6.6-24.94,2.2-49.88,4.4-74.83,6.6-13.93,1.23-27.86,2.46-41.79,3.69-7.73-13.61-15.47-27.21-23.21-40.82-2.3-4.04-4.59-8.08-6.89-12.12-1.2-2.11-4.46-.21-3.26,1.9Z" fill="#231f20" stroke-width="0"/>
  <path d="M375.84,229.49c-14.12,1.2-28.24,2.41-42.36,3.61-1.02.09-1.89.81-1.89,1.89,0,.95.87,1.97,1.89,1.89,25.16-2.14,50.32-4.29,75.47-6.43,25.16-2.14,50.32-4.29,75.47-6.43,14.12-1.2,28.24-2.41,42.36-3.61.11,0,.22-.03.33-.05,7.92,10.94,15.23,22.33,21.84,34.1,2.36,4.21,4.64,8.46,6.83,12.76,1.1,2.16,4.36.26,3.26-1.9-7.73-15.18-16.55-29.8-26.39-43.71-2.79-3.94-5.66-7.82-8.6-11.64-.62-.81-1.62-1.24-2.58-.68-.79.46-1.3,1.77-.68,2.58,1.26,1.64,2.51,3.29,3.75,4.95-24.41,2.08-48.82,4.16-73.23,6.24-25.16,2.14-50.32,4.29-75.47,6.43Z" fill="#231f20" stroke-width="0"/>
  <path d="M160.14,452.5c-2.82.34-5.52,2.18-6.14,5.08-.51,2.37,3.13,3.38,3.64,1,.28-1.3,1.43-2.15,2.74-2.34,1.6-.24,3.1.62,4.13,1.9,2.28,2.85,2.34,7.14.82,10.35-1.53,3.24-4.53,5.41-8.16,5.39-3.16-.02-6.56-1.77-7.58-4.86-1.08-3.29.12-7.27,3.33-8.91,1.38-.7,1.14-3.17-.45-3.45-3.26-.58-6.52-1.15-9.78-1.73-.39-1.32-1.09-2.56-2.22-3.61-1.74-1.63-4.17-2.34-6.47-1.57-2.32.78-3.96,2.71-4.13,5.16-.05.76.62,1.68,1.39,1.82,2.7.48,5.4.95,8.09,1.43-.09,1.74-.8,3.54-1.58,4.98-1.26,2.33-3.51,5.01-6.32,5.33-2.74.31-4.44-2.11-4.89-4.53-.69-3.68,1.57-7.32,3.33-10.36.74-1.28-.21-2.78-1.63-2.84-6.46-.26-12.92-.52-19.39-.79-.93-.04-1.75.75-1.85,1.64-.12,1.01.46,1.7,1.35,2.07,4.04,1.68,4.81,8.47.89,10.74-1.89,1.09-4.45,1.09-6.38.07-2.1-1.12-3.09-3.16-2.75-5.51.35-2.43,2.15-4.75,4.68-5.29,2.37-.5,1.37-4.14-1-3.64-3.57.76-6.29,3.84-7.17,7.31-.94,3.7.27,7.54,3.4,9.79,2.95,2.13,7.05,2.39,10.33.93,3.33-1.48,5.26-4.89,5.25-8.47,0-2.05-.59-4-1.63-5.65,3.72.15,7.43.3,11.15.45-1.69,3.28-2.94,6.79-2.21,10.55.78,4.06,4.18,7.61,8.53,7.3,4.46-.32,8.08-4.06,9.94-7.89.82-1.7,1.44-3.63,1.62-5.55,1.57.28,3.14.56,4.72.83-1.92,2.54-2.65,5.97-2.08,9.14.9,5.02,5.42,8.25,10.28,8.8,5.13.59,10.02-2.19,12.43-6.71,2.41-4.52,2.51-10.54-.66-14.74-1.79-2.36-4.49-4-7.54-3.63ZM137.9,454.09c-1.06-.19-2.12-.37-3.17-.56.23-.12.48-.22.73-.28.86-.19,1.75.18,2.44.84Z" fill="#231f20" stroke-width="0"/>
  <path d="M298.21,483.71c-14.4-2.12-28.8-4.24-43.21-6.36-14.34-2.11-28.68-4.22-43.02-6.33-8.13-1.2-16.26-2.39-24.4-3.59-1.01-.15-2.03.25-2.32,1.32-.24.89.3,2.17,1.32,2.32,14.4,2.12,28.8,4.24,43.21,6.36,14.34,2.11,28.68,4.22,43.02,6.33,8.13,1.2,16.26,2.39,24.4,3.59,1.01.15,2.03-.25,2.32-1.32.24-.89-.3-2.17-1.32-2.32Z" fill="#231f20" stroke-width="0"/>
  <path d="M331.3,493.23c-5.65-.47-11.31-.94-16.96-1.41-1.02-.08-1.89.93-1.89,1.89,0,1.09.87,1.8,1.89,1.89,5.65.47,11.31.94,16.96,1.41,1.02.08,1.89-.93,1.89-1.89,0-1.09-.87-1.8-1.89-1.89Z" fill="#231f20" stroke-width="0"/>
  <path d="M350.23,422c-7.2-6.34-17.7-8.4-26.83-5.71-1.01-1.27-2.12-2.47-3.35-3.54-9.1-8.01-23.47-9.2-33.7-2.58-1.25.81-2.44,1.74-3.54,2.76-1.79,1.65.89,4.32,2.67,2.67,7.74-7.15,20.24-7.77,29.06-2.28,1.93,1.2,3.63,2.7,5.11,4.39-1.07.5-2.12,1.07-3.12,1.72-1.25.81-2.44,1.74-3.54,2.76-1.79,1.65.89,4.32,2.67,2.67,1.87-1.73,4.02-3.06,6.32-4.03.35.56.69,1.12,1,1.7-.09.04-.18.08-.26.14-10.54,7.66-17.18,20.44-16.86,33.55.05,2.18.33,4.38.86,6.5-.45.17-.91.34-1.37.49-5.26,1.69-11.19,2.12-16.41.06-5.42-2.14-8.26-7.17-9.17-12.71-1.87-11.33,3.22-23.52,11.46-31.22,1.02-.95,2.09-1.85,3.22-2.67.82-.6,1.23-1.64.68-2.58-.48-.81-1.75-1.28-2.58-.68-10.54,7.66-17.18,20.44-16.86,33.55.16,6.54,2.25,13.32,7.64,17.42,5.17,3.94,12.12,4.6,18.36,3.59,2.13-.34,4.22-.91,6.24-1.67,1.22,2.84,3.02,5.39,5.57,7.33,5.17,3.94,12.12,4.6,18.36,3.59,12.1-1.96,22.97-10.83,26.91-22.49,3.8-11.24.41-24.85-8.55-32.73ZM309.96,459.81c-1.87-11.33,3.22-23.52,11.46-31.22,1-.93,2.04-1.8,3.14-2.61,1.72,4.61,2.26,9.69,1.42,14.47-1.58,8.98-7.79,16.54-15.76,20.71-.1-.44-.19-.89-.27-1.34ZM356.17,449.69c-1.89,10.73-10.39,19.47-20.63,22.76-5.26,1.69-11.19,2.12-16.41.06-3.73-1.47-6.23-4.31-7.73-7.73,7.91-3.96,14.36-10.9,17.2-19.31,2.85-8.43,1.65-18.2-2.9-25.88,6.39-1.53,13.45-.51,19.03,2.97,8.86,5.52,13.22,17,11.44,27.13Z" fill="#231f20" stroke-width="0"/>
  <path d="M165.25,378.59c-3.41-.94-7.06-.84-10.56-.94-4.25-.12-8.5-.24-12.75-.36-9.5-.27-19-.54-28.5-.81-2.43-.07-2.43,3.71,0,3.77,8.06.23,16.12.46,24.19.68,1.36.04,2.72.08,4.08.12-1.29,4.38-2.58,8.75-3.87,13.13-.04.15-.06.29-.06.44-6.72-.34-13.44-.68-20.15-1.02-2.43-.12-2.42,3.65,0,3.77,12.36.62,24.71,1.25,37.07,1.87-1.65,4.34-3.3,8.68-4.94,13.02-.47,1.23-.93,2.46-1.4,3.69-.37.98-.7,2.07-1.34,2.91-1.11,1.46-3.23,1.56-4.9,1.57-5.14.03-10.3-.3-15.43-.45-3.68-.11-8.87.42-11.66-2.54-3.48-3.67-1.02-9.57.64-13.45.4-.94.28-2.02-.68-2.58-.79-.46-2.18-.26-2.58.68,0,.02-.02.05-.03.07-3.89-.38-7.74-1.1-11.52-2.1l8.5-19.73c.4-.94.28-2.02-.68-2.58-.8-.47-2.18-.26-2.58.68-3.52,8.16-7.04,16.33-10.56,24.49-1.74,4.02-3.47,8.05-5.21,12.07-1.65,3.83-3.83,7.77-4.34,11.97-.43,3.6,1.1,7.02,4.24,8.89,2.76,1.64,6.14,2,9.28,2.15,8.75.41,17.5.71,26.25,1.06,10,.4,19.99.81,29.99,1.21.62.02,1.35-.37,1.63-.93,3.51-7.18,6.59-14.56,9.21-22.11,2.54-7.3,4.83-14.83,6.28-22.44.62-3.22.99-6.77-.25-9.9-1.3-3.27-4.04-5.38-7.38-6.3ZM104.97,434.44c-3.31-.13-6.76,0-10-.78-2.53-.61-5.02-1.97-5.26-4.84-.15-1.75.4-3.48,1-5.09.68-1.84,1.52-3.64,2.3-5.44,1.69-3.91,3.37-7.82,5.06-11.73.43-.99.86-1.99,1.29-2.98,3.8,1.03,7.68,1.76,11.59,2.21-1.38,3.87-2.11,7.93-.27,11.87,2.22,4.76,7.45,5.8,12.2,5.99,3.31.14,6.62.24,9.92.33l-3.22,11.47c-8.2-.33-16.4-.66-24.6-.99ZM169.43,392.77c-.57,3.5-1.52,6.97-2.44,10.39-.97,3.61-2.05,7.19-3.23,10.73-2.57,7.7-5.63,15.23-9.15,22.55-7.05-.28-14.1-.57-21.16-.85,1.08-3.84,2.16-7.68,3.23-11.52,1.23.03,2.45.07,3.68.11,2.37.07,4.8.06,7-.93,2.52-1.14,3.58-3.5,4.51-5.94,2.45-6.44,4.89-12.87,7.33-19.31.46-1.21-.7-2.33-1.82-2.39-5.26-.27-10.52-.53-15.78-.8,1.34-4.55,2.68-9.1,4.02-13.65,1.4.04,2.8.08,4.2.12,3.68.1,7.39.07,11.06.37,2.61.22,5.63.79,7.36,2.97,1.77,2.24,1.63,5.49,1.2,8.15Z" fill="#231f20" stroke-width="0"/>
  <path d="M571.69,178.59c.94.55,1.99.16,2.58-.68,3.14-4.48,6.36-8.9,9.61-13.3,6.02,1.26,12.3,1.29,18.36.09,9.12-1.81,25.42-8.6,19.68-20.63-2.44-5.1-7.58-8.43-11.61-12.17-.12-.11-.24-.22-.35-.34,7.36-8.73,14.94-17.28,22.73-25.62,1.89-2.02,3.79-4.02,5.71-6.02,3.69,1.96,6.98,4.69,9.54,8.07.78,1.03,1.48,2.12,2.12,3.24,1.21,2.11,4.47.21,3.26-1.9-2.93-5.11-7.21-9.3-12.23-12.2,3.23-3.33,6.49-6.63,9.79-9.9,1.73-1.71-.94-4.38-2.67-2.67-3.59,3.56-7.13,7.17-10.64,10.8-3.45-1.48-7.16-2.4-10.97-2.62-5.9-.33-11.9.98-17.15,3.69-4.92,2.54-9.33,6.48-11.46,11.68-2.25,5.49-1.07,11.67,1.68,16.75,1.39,2.57,3.2,4.85,5.19,6.96-6.28,7.54-12.41,15.19-18.35,22.99-1.41,1.85-2.81,3.71-4.2,5.58-2.27-.62-4.49-1.43-6.62-2.45-1.21-.58-2.39-1.23-3.54-1.93-2.08-1.27-3.98,1.99-1.9,3.26,3.05,1.86,6.31,3.3,9.7,4.34-3.02,4.1-6,8.24-8.93,12.41-.59.83-.15,2.1.68,2.58ZM600.95,117.69c-2.61-11.62,9.27-19.22,19.23-20.86,4.95-.82,9.98-.24,14.59,1.47-6.31,6.61-12.49,13.33-18.52,20.2-3.02,3.43-5.99,6.91-8.93,10.4-2.95-3.21-5.39-6.87-6.36-11.21ZM602.18,140.96c1.77-2.18,3.57-4.34,5.37-6.5,1.42,1.32,2.88,2.6,4.34,3.85,3.38,2.91,8.81,7.32,7.18,12.44-.73,2.28-2.8,3.95-4.74,5.19-2.24,1.43-4.68,2.59-7.18,3.48-6.6,2.35-13.84,2.97-20.78,1.83,5.14-6.87,10.41-13.65,15.82-20.31Z" fill="#231f20" stroke-width="0"/>
  <path d="M557.49,183.92c.26.18.52.35.78.52.01.01.03.03.04.04l9.25,7.05c5,3.81,10,7.63,15,11.44,1.22.93,2.4,1.97,3.68,2.81.37.24.76.33,1.22.36,1.25.09,2.52.08,3.77.07,2.58-.01,5.15-.16,7.71-.41,10.86-1.07,21.49-3.96,31.54-8.18,9.98-4.2,19.46-9.66,27.77-16.64,8.4-7.05,15.8-15.37,21.94-24.45,3.87-5.73,7.25-11.85,9.93-18.24.88-.4,1.47-1.47,1.02-2.54,1.19-3.07,2.22-6.19,3.07-9.36.71-2.65,1.29-5.33,1.73-8.04.19-1.18.54-2.39-.16-3.44-.91-1.37-1.81-2.74-2.72-4.11-3.45-5.22-6.9-10.43-10.35-15.65-2.7-4.08-5.4-8.17-8.1-12.25-.15-.22-.29-.44-.44-.66-.52-.78-1.47-1.16-2.36-.77-.77.34-1.46,1.35-1.09,2.23,1.09,2.63,2.03,5.33,2.78,8.08.37,1.35.69,2.71.96,4.08.13.64.24,1.28.35,1.93.05.32.1.64.15.96.02.13.04.26.06.38,0,.07.02.11.02.13,0,.02,0,.05.02.13.32,2.57.48,5.16.46,7.74-.01,1.3-.07,2.6-.17,3.89-.05.61-.11,1.22-.17,1.83-.03.3-.07.61-.11.91,0,.02-.01.09-.02.13-.02.15-.04.3-.06.46-1.48,10.11-5.41,19.04-11.16,27.42-2.86,4.17-6.02,7.95-9.69,11.7-1.84,1.88-3.75,3.68-5.72,5.42-.99.87-2,1.73-3.02,2.56-1.05.85-1.99,1.59-2.89,2.28-4.25,3.22-8.71,6.14-13.35,8.77-2.28,1.29-4.6,2.51-6.96,3.66-1.14.55-2.29,1.09-3.44,1.61-.57.26-1.15.51-1.73.76-.14.06-.29.12-.43.18-.03.01-.04.02-.06.02-.03.01-.05.02-.1.04-.35.14-.69.29-1.04.43-4.62,1.88-9.36,3.48-14.2,4.71-2.3.59-4.63,1.1-6.97,1.51-1.09.19-2.18.36-3.28.51-.14.02-.47.06-.55.07-.27.03-.55.07-.82.1-.6.07-1.2.13-1.79.18-4.21.38-8.47.41-12.68-.07-.19-.02-.38-.05-.57-.07-.04,0-.41-.06-.52-.07-.47-.07-.94-.15-1.42-.23-.97-.17-1.93-.38-2.88-.62-.88-.22-1.76-.47-2.63-.76-.42-.14-.85-.29-1.27-.44-.21-.08-.41-.16-.62-.24-.08-.03-.42-.17-.53-.22-1.57-.68-3.1-1.48-4.53-2.41-.35-.23-.7-.47-1.04-.71-.15-.11-.3-.22-.46-.34,0,0-.02-.02-.03-.02-.08-.06-.15-.12-.23-.18-.72-.59-1.42-1.21-2.09-1.87-5.71-5.69-9.29-13.19-10.83-21.05-3.35-17.08,3.7-34.34,14.01-47.72,10.15-13.18,24.07-23.58,39.62-29.49,8.71-3.31,17.91-5.3,27.21-5.85,9.04-.54,18.45.06,27.19,2.53,3.89,1.1,7.7,2.73,10.81,5.38.78.66,1.91.76,2.67,0,.68-.68.78-2,0-2.67-7.1-6.05-16.76-7.8-25.78-8.7-9.66-.97-19.47-.41-28.97,1.56-17.51,3.63-33.79,12.37-46.64,24.79-12.84,12.42-22.97,28.97-24.55,47.06-.74,8.55.75,17.28,4.37,25.06,2.72,5.83,6.79,11.3,12.09,15.01ZM690.07,113.08c.78,1.18,1.56,2.36,2.34,3.54-.85,5.49-2.26,10.86-4.15,16.06-3.65-3.66-7.3-7.32-10.95-10.98,2.28-8.72,2.55-17.84.83-26.66.06.09.11.17.17.26,3.92,5.93,7.84,11.85,11.76,17.78ZM676.08,125.81c3.56,3.57,7.13,7.14,10.69,10.71-3.42,8.23-8.01,16-13.42,23.1-3.35-3.62-6.7-7.24-10.06-10.86,5.48-6.9,9.97-14.6,12.79-22.96ZM660.86,151.69c3.36,3.63,6.72,7.26,10.08,10.89.02.02.04.03.05.05-1.46,1.79-2.96,3.54-4.51,5.23-4.98,5.43-10.42,10.37-16.39,14.66-2.87-4.47-5.74-8.94-8.61-13.4,7.1-5.03,13.68-10.83,19.37-17.42ZM637.48,171.84c.3-.2.6-.41.9-.6,2.59,4.04,5.18,8.07,7.78,12.11-.05.55.12,1.13.5,1.52-.6.39-1.2.79-1.81,1.17-8.19,5.08-17.05,9.08-26.25,11.92-1.38.43-2.78.83-4.18,1.2-.03-.03-.05-.07-.08-.1-3.68-3.92-7.36-7.85-11.04-11.77,1.77-.48,3.53-1.01,5.27-1.57,10.18-3.31,19.95-8.02,28.92-13.86ZM580.18,190.34c6.34.14,12.7-.64,18.91-2.03,3.71,3.96,7.42,7.91,11.13,11.87-7.3,1.64-14.77,2.48-22.25,2.2-3.05-2.33-6.1-4.65-9.15-6.98-2.64-2.01-5.28-4.02-7.91-6.04,3.07.61,6.2.91,9.27.98ZM558.6,180.08c-.1-.07-.22-.18,0,0h0Z" fill="#231f20" stroke-width="0"/>
  <path d="M599.31,88.66c6.31-2.42,12.94-3.97,19.68-4.51,1.02-.08,1.89-.81,1.89-1.89,0-.96-.87-1.97-1.89-1.89-12.63,1.01-24.95,5.22-35.5,12.26-10.25,6.84-18.68,16.25-24.39,27.16-3.2,6.12-5.57,12.68-6.96,19.45-.2,1,.29,2.04,1.32,2.32.93.26,2.12-.32,2.32-1.32,2.33-11.36,7.45-22.14,14.88-31.06,7.62-9.14,17.54-16.27,28.65-20.54Z" fill="#231f20" stroke-width="0"/>
  <path d="M621.01,170.48c14.82-6.31,27.76-16.63,37.45-29.47,2.73-3.61,5.17-7.44,7.32-11.42,1.15-2.14-2.1-4.05-3.26-1.9-7.38,13.69-18.38,25.31-31.63,33.45-3.77,2.32-7.72,4.35-11.8,6.08-.94.4-1.15,1.78-.68,2.58.57.97,1.64,1.08,2.58.68Z" fill="#231f20" stroke-width="0"/>
  <path d="M382.8,30.02c1.54.43,2.99,1.05,4.37,1.86,2.1,1.23,4-2.03,1.9-3.26-6.45-3.77-14.31-3.95-21.03-1.33-1.61-2.5-3.22-5-4.84-7.5-1.31-2.03-4.58-.14-3.26,1.9,1.56,2.41,3.11,4.82,4.67,7.24-4.68,2.69-8.46,6.86-10.28,12.22-2.24,6.6-1.36,14.18,2.02,20.24,3.77,6.77,10.6,10.68,18.07,12.12,6.51,1.26,13.15,1.04,19.75,1.25,8.62,13.37,17.24,26.74,25.86,40.11,3.4,5.27,6.79,10.53,10.19,15.8-2.15,2.61-4.8,4.83-7.86,6.49-5.86,3.19-12.95,4.36-19.45,2.66-1.61-.42-3.15-1.01-4.62-1.77-2.15-1.12-4.06,2.14-1.9,3.26,11.97,6.21,27.15,2.46,35.98-7.31,1.54,2.39,3.08,4.78,4.63,7.18,1.31,2.03,4.58.14,3.26-1.9-1.81-2.8-3.61-5.6-5.42-8.41,0-.01.02-.03.03-.04,4.38-6.45,6.15-14.56,5.49-22.28-.68-7.96-3.79-15.38-8.94-21.47-4.99-5.91-11.66-10.27-18.88-12.95-5.27-1.96-10.71-2.69-16.22-3-5.38-8.34-10.76-16.68-16.13-25.02-3.35-5.2-6.7-10.4-10.05-15.59,4.07-1.41,8.53-1.65,12.69-.48ZM420.21,82.19c6.12,4.02,11.32,9.82,14.03,16.68,2.78,7.03,3.27,14.93,1.08,22.18-.67,2.23-1.61,4.34-2.78,6.3-7.45-11.55-14.9-23.11-22.35-34.66-3.8-5.89-7.6-11.79-11.4-17.68,7.63.6,15,2.97,21.41,7.18ZM389.98,68.29c.57.88,1.14,1.77,1.71,2.65-1-.03-2-.04-3-.06-7.65-.14-15.85-.28-22.55-4.46-5.57-3.47-8.87-9.79-9.23-16.27-.36-6.46,2.19-12.87,7.54-16.73.7-.5,1.42-.96,2.17-1.37,7.79,12.08,15.57,24.15,23.36,36.23Z" fill="#231f20" stroke-width="0"/>
  <path d="M312.43,95.54c3.65,10.52,8.41,20.68,14.37,30.1,1.06,1.67,2.16,3.3,3.29,4.92.03.25.11.48.23.69.2.34.47.57.77.72,5.6,7.8,12.04,14.99,19.26,21.31,4.98,4.35,10.31,8.32,15.91,11.84,3.16,1.98,6.42,3.78,9.69,5.57,3.85,2.11,7.72,4.17,11.73,5.96,4.02,1.79,8.15,3.33,12.45,4.28,1.04.23,2.08.43,3.13.59.53.08,1.03.18,1.56.06.25-.06.49-.14.74-.21l9.39-2.69c8.13-2.33,16.26-4.65,24.38-6.98.53-.15,1.06-.3,1.59-.46.18-.05.34-.13.48-.22,6.19-1.92,11.89-5.36,16.16-10.29,5.34-6.15,8.49-13.99,9.63-22.01,1.36-9.58.14-19.26-1.99-28.63-3.41-14.98-8.94-29.52-16.1-43.11-7.09-13.47-15.91-26.15-26.53-37.08-10-10.3-21.73-19.04-35.03-24.58-3.06-1.28-6.2-2.37-9.4-3.25-2.34-.65-3.34,2.99-1,3.64,12.99,3.6,24.78,10.65,34.92,19.44,10.97,9.5,20.18,20.93,27.8,33.25,7.79,12.6,13.98,26.18,18.37,40.32,4.85,15.62,8.84,33.36,2.7,49.18-2.74,7.07-7.63,13.18-14.31,16.86-6.66,3.67-14.48,4.86-22,4.27-8.31-.66-16.33-3.63-23.68-7.44-7.02-3.64-13.66-8.05-19.94-12.84-11.77-8.99-22.27-19.77-31.05-31.69-8.83-11.99-16.05-25.21-21.22-39.18-2.6-7.02-4.7-14.22-6.25-21.54-1.85-8.7-3.03-17.89-1.15-26.69,1.57-7.36,5.24-14.48,11.47-18.93,6-4.3,13.39-6.02,20.64-6.62,3.7-.31,7.41-.35,11.11-.28,2.43.05,2.43-3.73,0-3.77-7.84-.15-15.9.17-23.45,2.51-3.46,1.07-6.7,2.59-9.61,4.57-.13.05-.27.11-.4.2-6.2,3.95-12.4,7.89-18.6,11.84-1.37.87-2.74,1.74-4.11,2.61-.54.34-1.14.66-1.57,1.14-1,1.12-1.44,2.72-1.79,4.14-1.26,5.1-1.48,10.52-1.52,15.74-.06,8.08.65,16.15,1.87,24.13,1.49,9.73,3.84,19.33,7.06,28.62ZM412.24,170.37c3.38,1.05,6.83,1.8,10.33,2.21-4.77,1.37-9.55,2.73-14.32,4.1l-4.1,1.17c-6.34-1-12.33-3.31-18.08-6.11,2.72-2.81,5.44-5.62,8.16-8.44.23-.24.38-.53.47-.85,5.57,3.23,11.4,6.01,17.55,7.93ZM388.76,158.8c.94.61,1.88,1.21,2.84,1.79-.01.01-.03.02-.04.03-3.01,3.11-6.02,6.22-9.02,9.32-4.85-2.49-9.65-5.13-14.26-8.02-2.63-1.65-5.19-3.41-7.68-5.25,4.14-2.7,8.29-5.4,12.43-8.09.33-.21.58-.51.74-.84,4.78,3.97,9.78,7.67,14.99,11.05ZM370.06,144.58c.31.28.63.55.95.82-4.49,2.92-8.99,5.85-13.48,8.77-.04.02-.07.05-.1.08-4.51-3.57-8.77-7.46-12.73-11.64-3.5-3.7-6.73-7.59-9.71-11.67,5-2.44,9.72-5.41,14.11-8.83,6.27,8.12,13.28,15.68,20.96,22.47ZM346.83,119.12c-4.35,3.4-9.07,6.31-14.05,8.71-1.71-2.48-3.34-5.03-4.89-7.65-4.27-7.23-7.77-14.68-10.65-22.41,3.94-3.05,7.88-6.1,11.82-9.15,3.21,7.2,6.94,14.17,11.15,20.82,2.09,3.3,4.3,6.53,6.62,9.68ZM321.26,67.1c1.73,6.11,3.83,12.12,6.28,17.99-.07.05-.14.09-.21.14-3.81,2.95-7.61,5.89-11.42,8.84-2.36-6.86-4.24-13.88-5.65-20.99-.36-1.81-.69-3.62-.99-5.44-.15-.91-.29-1.82-.43-2.74-.06-.42-.12-.84-.18-1.27-.02-.16-.04-.31-.06-.47,0-.04-.06-.43-.07-.53-.43-3.32-.76-6.65-.97-9.99-.03-.39-.05-.78-.07-1.16l10.1-.49c.87,5.53,2.22,10.97,3.67,16.1ZM309.74,25.24s-.05.13-.12.2c.07-.1.12-.19.12-.2ZM307.51,36.27c.07-1.07.17-2.14.29-3.2.03-.23.05-.47.08-.7.01-.12.03-.24.04-.35.07-.43.12-.87.2-1.3.23-1.39.51-2.8.96-4.14.04-.12.08-.24.13-.36.02-.05.07-.16.1-.24.06-.11.12-.24.15-.3,0-.02.06-.09.11-.16.48-.23.96-.65,1.37-.91,1.17-.75,2.35-1.49,3.52-2.24l7.28-4.63c-5.06,8.99-5.82,19.3-4.65,29.51-3.25.16-6.5.31-9.76.47-.12-3.81-.08-7.64.18-11.44Z" fill="#231f20" stroke-width="0"/>
  <path d="M346.57,92.06c-6.55-10.96-11.26-22.97-13.87-35.47-1.47-7.04-2.23-14.2-2.28-21.39-.02-2.43-3.79-2.43-3.77,0,.1,13.13,2.53,26.24,7.05,38.56,4.55,12.41,11.13,23.99,19.47,34.24,4.64,5.7,9.84,10.94,15.52,15.62.79.65,1.9.77,2.67,0,.67-.67.79-2.02,0-2.67-9.86-8.12-18.23-17.93-24.79-28.89Z" fill="#231f20" stroke-width="0"/>
  <path d="M444.98,151.14c-.62.81-.12,2.11.68,2.58.97.57,1.96.13,2.58-.68,6.12-7.96,8.91-17.98,9.33-27.91.47-10.92-2.04-21.73-5.58-32-2.12-6.14-4.6-12.14-7.09-18.14-.39-.94-1.25-1.61-2.32-1.32-.89.24-1.71,1.37-1.32,2.32,7.92,19.08,16.51,40.11,10.69,61.01-1.43,5.12-3.74,9.91-6.98,14.13Z" fill="#231f20" stroke-width="0"/>
  <path d="M460.96,439.52c.8-.47,1.3-1.77.68-2.58-3.45-4.54-5.94-9.67-7.32-15.2-.59-2.35-4.23-1.36-3.64,1,1.45,5.81,4.08,11.33,7.7,16.11.62.81,1.63,1.24,2.58.68Z" fill="#231f20" stroke-width="0"/>
  <path d="M513.27,415.59c-4.53-3.68-11.3-4.35-16.29-1.17-2.04,1.3-.15,4.57,1.9,3.26,3.04-1.94,7.02-2.03,10.21-.36,3.36,1.76,5.13,5.16,4.98,8.91,0,.23-.03.46-.06.69-1.49-.07-3-.01-4.48.18-2.71.34-5.96.97-7.45,3.55-1.55,2.68-.07,6.04,2.6,7.32,5.17,2.48,10.24-2.3,12.16-6.96,2.99.51,5.88,1.58,8.5,3.15,2.09,1.25,3.99-2.01,1.9-3.26-2.91-1.75-6.15-2.96-9.5-3.56.47-4.36-1.02-8.93-4.49-11.76ZM508.07,434.77c-1.13.21-3.28-.54-2.83-1.99.47-1.51,3.35-1.78,4.62-1.94,1.01-.12,2.03-.18,3.04-.17-1.01,2.01-2.64,3.69-4.83,4.1Z" fill="#231f20" stroke-width="0"/>
  <path d="M568.76,411.91c-1.64-1.18-3.44-1.75-5.31-1.93,1.04-.41,2.09-.77,3.16-1.07,1.84-.52,1.75-3.07,0-3.64-6.93-2.24-14.41-2.47-21.47-.72-2.36.58-1.36,4.22,1,3.64,4.46-1.1,9.06-1.31,13.56-.66-2.47,1.2-4.81,2.66-7,4.38-1.54,1.21.14,3.64,1.84,3.15,3.17-.91,6.73-2.03,10.01-1.06,2.07.61,4.33,2.42,4.35,4.75.01,2.34-2.19,3.9-4.13,4.73-2.82,1.2-6.13,1.36-9.14,1.08-1.64-.15-3.63-.4-5.07-1.24-.27-.16-.5-.32-.68-.59-.04-.06-.07-.21-.1-.34,1.73,1.01,3.92-1.39,2.28-2.96-1.62-1.55-4.4-1.18-5.58.77-1.28,2.12-.18,4.71,1.67,6.05,1.85,1.34,4.4,1.71,6.61,1.99,2.48.31,4.96.23,7.42-.16,3.64-.58,7.74-2.31,9.57-5.73,2.04-3.82.35-8.02-2.99-10.43Z" fill="#231f20" stroke-width="0"/>
  <path d="M401.51,342c2.89-.68,5.78-1.37,8.68-2.05.72-.17,1.45-.34,2.17-.51.3-.07.75-.07,1.08-.14-.15.57-.29,1.15-.44,1.73-.49,1.87-.99,3.75-1.48,5.62-2.53.46-5.07.92-7.6,1.38-1,.18-1.57,1.4-1.32,2.32.29,1.06,1.32,1.5,2.32,1.32,1.85-.34,3.69-.67,5.54-1.01-.67,2.54-1.34,5.07-2.01,7.61-.62,2.35,3.02,3.35,3.64,1,.82-3.12,1.65-6.24,2.47-9.36,1.95-.36,3.91-.71,5.86-1.07,1-.18,1.57-1.4,1.32-2.32-.29-1.06-1.31-1.5-2.32-1.32-1.27.23-2.53.46-3.8.69l.49-1.87c.4-1.53.98-3.11,1.12-4.7.13-1.58-.7-3.08-2.23-3.62-1.44-.51-2.95-.07-4.37.27-3.37.8-6.75,1.59-10.12,2.39-2.36.56-1.36,4.2,1,3.64ZM413.77,339.26s-.03-.02-.05-.03c.05,0,.08,0,.05.03ZM413.5,339.01c-.1-.04.04-.27,0,0h0Z" fill="#231f20" stroke-width="0"/>
  <path d="M455.85,339.19c1.23.24,2.48.25,3.73.2-1.73,3.95-2.28,8.41-1.18,12.63.69,2.67,2.33,5.37,4.99,6.43,3.06,1.22,6.17-.49,7.94-3.01.9-1.29,1.46-2.8,2-4.27.55-1.5,1.08-3.03,1.33-4.62.51-3.3-.3-6.51-3.02-8.61-.6-.46-1.23-.84-1.89-1.15.98-2.02.97-4.48-.23-6.47-1.69-2.8-4.94-3.87-8.04-3.12-1.53.37-2.98,1.14-4.28,2-1.3.86-2.69,1.79-3.68,3.01-1.05,1.29-1.64,2.93-.95,4.55.58,1.36,1.89,2.17,3.31,2.45ZM471.02,343.73c.42,2.84-3.11,14.83-7.36,10.43-1.99-2.06-2.18-5.46-1.96-8.15.19-2.35.92-4.7,2.1-6.77.66.02,1.31.06,1.96.18,2.36.44,4.88,1.69,5.27,4.31ZM457.43,333.62c.66-.52,1.36-1,2.07-1.44,1.28-.8,2.82-1.64,4.39-1.47,2.57.27,3.47,3.1,2.1,4.98-.12-.02-.23-.03-.35-.05-.05-.37-.2-.73-.51-1.04-.66-.66-2.03-.8-2.67,0-.23.29-.45.59-.67.89-1.44.05-2.88.15-4.32.1-.43-.02-1.45-.09-1.46-.41-.02-.52,1.09-1.3,1.42-1.57Z" fill="#231f20" stroke-width="0"/>
  <path d="M437.75,394.34c.18-.07.35-.13.53-.2.95-.36,1.61-1.28,1.32-2.32-.25-.92-1.36-1.68-2.32-1.32-.07.03-.15.05-.22.08-.53-3.4-.77-6.84-.69-10.31.05-2.01-2.5-2.39-3.52-.95-1.92,2.71-3.85,5.42-5.77,8.13-.93,1.3-1.85,2.61-2.78,3.91-.84,1.18-1.8,2.33-2.01,3.81-.22,1.57.65,3.1,2.26,3.46,1.52.34,3.08-.51,4.47-1.03,1.72-.65,3.44-1.29,5.17-1.94.62,2.67,1.41,5.29,2.38,7.86.36.95,1.27,1.61,2.32,1.32.91-.25,1.68-1.36,1.32-2.32-1.02-2.68-1.84-5.41-2.46-8.19ZM429.73,393.32c-1.01.38-2.01.77-3.02,1.14,1.99-2.84,4-5.67,6.02-8.5.14,2,.37,3.99.71,5.97-1.23.46-2.47.92-3.7,1.39Z" fill="#231f20" stroke-width="0"/>
  <path d="M490.37,368.19c-6.09,1.26-12.17,2.51-18.26,3.77-1.54.32-1.63,2.13-.83,3.15,1.7,2.19,2.76,4.95,3.01,7.7.14,1.59,1.98,2.54,3.22,1.33,2.19-2.12,5.04-3.83,8.15-4.01,2.69-.16,5.63.79,7.32,3,1.51,1.97,1.77,5,.31,7.07-1.53,2.17-5.05,2.94-7.44,2.98-.6.01-1.19-.01-1.69-.21-.33-.13-.57-.25-.57-.65,0-1.45,2.36-1.97,3.4-2.27,2.32-.68,1.34-4.33-1-3.64-2.22.65-4.57,1.56-5.63,3.79-1,2.1-.46,4.57,1.55,5.83,1.63,1.02,3.68,1.04,5.52.78,2.06-.29,4.14-.79,5.97-1.81,3.85-2.14,5.44-6.78,4.2-10.94-1.21-4.06-4.97-6.85-9.06-7.52-4-.65-7.87.58-11.11,2.82-.41-1.5-.99-2.93-1.75-4.29,5.23-1.08,10.46-2.16,15.69-3.24,1-.21,1.58-1.38,1.32-2.32-.28-1.04-1.32-1.52-2.32-1.32Z" fill="#231f20" stroke-width="0"/>
  <path d="M175,96.44c0-2.43-3.77-2.43-3.77,0,0,3.38,0,6.9.29,10.37-2.6-1.1-5.2-2.2-7.8-3.31-.94-.4-2.02-.28-2.58.68-.46.79-.27,2.18.68,2.58,3.4,1.44,6.81,2.89,10.21,4.33.84,5.19,2.53,10.15,5.97,14.32,2.74,3.31,6.56,5.98,10.77,7.02,4.61,1.14,9.04.03,12.96-2.52,1.88-1.23,3.63-2.65,5.5-3.9,13.42,5.69,26.84,11.38,40.26,17.06,1.16.49,2.32.98,3.48,1.47.96,5,.66,10.23-1.06,15.1-.34.96.38,2.06,1.32,2.32,1.04.29,1.98-.35,2.32-1.32,1.63-4.62,2.08-9.55,1.5-14.38,5.57,2.36,11.15,4.73,16.72,7.09.94.4,2.02.28,2.58-.68.46-.79.27-2.18-.68-2.58-6.49-2.75-12.97-5.5-19.46-8.25-.56-2.19-1.32-4.34-2.29-6.38-3.78-7.99-10.77-14-19.23-16.54-8.49-2.55-18.09-1.64-25.79,2.82-.01,0-.03.02-.04.02-6.28-2.66-12.57-5.33-18.85-7.99-4.18-1.77-8.36-3.54-12.54-5.32-.47-4.05-.46-8.21-.45-12.04ZM213.16,123c4.08-1.44,8.41-1.94,12.71-1.56,8.23.74,15.91,5.05,20.52,11.95,1.37,2.05,2.47,4.26,3.29,6.56-6.34-2.69-12.69-5.38-19.03-8.07-6.42-2.72-12.85-5.45-19.27-8.17.58-.26,1.17-.5,1.77-.71ZM203.19,124.31c-2.53,1.88-5.05,3.82-8.12,4.56-3.93.95-8.03-.56-11.16-2.95-4.35-3.33-6.58-7.98-7.72-13.05,9,3.81,18,7.63,27,11.44Z" fill="#231f20" stroke-width="0"/>
  <path d="M148.04,111.88c.93-.26,1.66-1.35,1.32-2.32-2.01-5.75,1.17-11.67,5.87-15,5.5-3.9,12.29-5.01,18.8-6.09,1.01-.17,1.57-1.41,1.32-2.32-.29-1.07-1.31-1.48-2.32-1.32-5.84.97-11.76,2.01-17.03,4.82-4.72,2.52-8.73,6.51-10.33,11.71-.92,2.97-.97,6.25.06,9.2.34.96,1.29,1.6,2.32,1.32Z" fill="#231f20" stroke-width="0"/>
  <path d="M263.97,120.18c7.94,5.73,14.96,12.81,20.6,20.81,2.76,3.92,5.56,8.3,6.14,13.17.48,4.02-.92,7.89-3.71,10.8-3.04,3.18-7.3,4.95-11.71,4.44-1.01-.12-1.89.95-1.89,1.89,0,1.12.87,1.77,1.89,1.89,9.36,1.09,18.39-6.71,19.23-15.96.5-5.51-1.99-10.9-4.88-15.43-2.92-4.58-6.35-8.89-10.07-12.86-4.16-4.45-8.77-8.45-13.71-12.01-.83-.6-2.1-.14-2.58.68-.56.95-.15,1.98.68,2.58Z" fill="#231f20" stroke-width="0"/>
</svg>