<?xml version="1.0" encoding="UTF-8"?>
<svg id="a" data-name="Layer 1" xmlns="http://www.w3.org/2000/svg" viewBox="0 0 750 613.23">
  <path d="M126.61,276.03c6.24-6.11,17.32-5.77,23.26.6,1.75,1.88,4.55-.94,2.81-2.81-7.4-7.95-21.14-8.18-28.87-.6-1.83,1.79.98,4.6,2.81,2.81Z" fill="#231f20" stroke-width="0"/>
  <path d="M202,310.16c1.3-.3,1.76-1.83,1.19-2.92-7.62-14.51-15.25-29.02-22.87-43.52-2.17-4.14-4.35-8.27-6.52-12.41-1.19-2.26-4.62-.26-3.43,2.01,7.62,14.51,15.25,29.02,22.87,43.52,1.76,3.35,3.52,6.7,5.28,10.05-7.63,1.74-15.26,3.48-22.89,5.22-.92.21-1.37,1.06-1.46,1.92-.72,7,.71,13.88,2.03,20.74-7.98.02-15.96.04-23.93.05-1.62,0-2.76,2.24-1.4,3.39,8.39,7.14,16.79,14.28,25.18,21.42-.22.52-.45,1.03-.71,1.53-2.96,5.67-8.47,9.01-14.63,10.24-6.46,1.29-13.18.16-19.15-2.49-8.11-3.58-15-9.27-21.75-14.9-.82-.69-2-.81-2.81,0-.71.71-.83,2.12,0,2.81,11.78,9.82,25.4,20.74,41.76,18.87,6.98-.8,13.69-3.75,18.04-9.43,4.78-6.26,5.59-14.54,4.87-22.15-.17-1.8-.43-3.6-.72-5.39,1.7,0,3.4,0,5.1-.01,2.56,0,2.56-3.98,0-3.97-1.94,0-3.87,0-5.81.01-1.2-6.34-2.56-12.66-2.19-19.12,7.99-1.82,15.99-3.65,23.98-5.47ZM177.3,355.5c-6.56-5.58-13.11-11.15-19.67-16.73,6.43-.01,12.86-.03,19.29-.04.08.48.16.95.24,1.43.8,4.93,1.2,10.34.14,15.35Z" fill="#231f20" stroke-width="0"/>
  <path d="M34.62,310.88c4.47,2.35,9.51,3.32,13.98,5.65,4.99,2.6,7.76,7.38,10.8,11.9,7.03,10.43,14.05,20.86,21.08,31.3l5.1,7.58c1.42,2.11,4.86.12,3.43-2.01-6.51-9.66-13.02-19.33-19.52-28.99-3.2-4.75-6.36-9.54-9.61-14.26-1.41-2.05-2.9-4.09-4.73-5.78-1.76-1.63-3.8-2.89-5.98-3.87-4.18-1.88-8.72-2.9-12.77-5.08-3.4-1.83-6.39-4.28-8.94-7.17-4.95-5.62-8.11-13-8.7-20.47-.44-5.51.4-11.99,3.38-16.97,2.13,3.98,5.58,7.1,10.22,7.69,4.3.55,9.16-1.59,10.18-6.15.96-4.32-1.81-8.59-5.43-10.74-4.14-2.46-9.11-1.69-12.89,1.1-.25.18-.48.39-.72.59-.11-.39-.21-.78-.31-1.16-2.49-9.57-3.96-20.67.27-30,3.26-7.18,10.12-13.61,18.36-13.84,2.42-.07,4.88.61,7.08,1.8.1,1.75.35,3.51.77,5.24,1.15,4.75,3.49,9.16,6.73,12.82,1.09,1.24,2.8.39,3.32-.88,2.91-7.16-.93-15.11-6.92-19.45.05-2.17.38-4.34,1.03-6.43,2.4-7.68,9.52-13.56,17.48-14.66,3.36-.46,6.8.02,9.47,1.54,2.24,1.28,4.19,2.96,5.97,4.89-.54,2.62-.91,5.31-.86,7.98.05,2.46.42,5.4,2.27,7.21,1.83,1.79,4.86,1.85,7.01.55,2.55-1.54,2.3-4.9,1.5-7.35-1.13-3.43-3.19-6.52-5.46-9.3-.05-.06-.09-.11-.14-.16.09-.37.17-.74.27-1.11.41-1.56.89-3.1,1.43-4.62.55-1.55,1.01-2.69,1.64-4.05.6-1.28,1.25-2.53,2-3.73.3-.49.63-.96.96-1.42.02-.03.13-.17.18-.23.06-.08.13-.15.19-.23.39-.47.8-.92,1.23-1.36,2.78-2.85,6.27-4.98,10.06-6.2,7.47-2.41,16.04-1.42,22.07,3.86.07.06.13.13.2.19-1.22,2.06-2.17,4.28-2.87,6.58-.84,2.75-1.34,5.59-1.73,8.44-.33,2.44-.69,4.89-.49,7.36.35,4.14,2.11,8.83,6.81,9.37,5.33.6,8.53-5.02,9.5-9.47.99-4.53.63-9.32-.91-13.69-1.17-3.33-2.97-6.4-5.24-9.03,1.3-1.6,2.85-2.98,4.64-4.01,8.01-4.56,16.9,1.36,20.86,8.49.25.46.48.92.71,1.39-7.25,2.51-12.53,9.13-13.8,16.75-.69,4.15-.29,8.39,1.58,12.19,2.08,4.21,6.47,8.15,11.41,7.99,5.67-.18,9.15-5.46,9.79-10.62.38-3.08-.1-6.16-.56-9.2-.43-2.84-.86-5.67-1.46-8.48-.41-1.92-.91-3.85-1.53-5.74,4.53-.4,9.25.81,13.19,3.1,7.5,4.35,11.66,12.33,12.13,20.87.49,8.9-2.6,17.8-8.18,24.71-5.37,6.65-12.73,11.65-20.98,13.95-8.71,2.44-18.15,1.68-26.48-1.8-4.03-1.68-7.8-4.04-11.07-6.93-1.91-1.69-4.73,1.11-2.81,2.81,7.88,6.98,18.12,10.99,28.64,11.3,9.98.3,19.87-3,27.78-9.06,7.98-6.11,14.01-14.77,16.18-24.66,2.22-10.1.54-21.43-6.57-29.29-5.76-6.37-14.75-10.01-23.31-8.84-.85-1.9-1.88-3.71-3.12-5.37-3.06-4.07-7.38-7.43-12.39-8.65-5-1.22-10.1-.02-14.16,3.11-1.23.95-2.32,2.04-3.3,3.21-3.32-2.84-7.33-4.86-11.78-5.63-9.28-1.61-19.3,1.53-25.82,8.4-4.09,4.3-6.52,10.17-8.12,15.91-1.55-1.45-3.24-2.76-5.07-3.8-8.01-4.56-18.31-1.73-25.02,3.88-5.2,4.35-8.1,10.49-8.76,16.98-8.83-3.64-18.63.56-24.54,7.52-7.27,8.56-8.48,19.96-6.97,30.74.59,4.2,1.43,8.53,2.86,12.59-1.77,2.32-3.09,5-4,7.76-5.45,16.61,2.89,36.55,18.3,44.67ZM26.15,258.07c2.92-2.27,6.52-2.9,9.56-.72,1.25.9,2.34,2.26,2.77,3.62.42,1.32.4,2.6-.52,3.79-2.01,2.58-6.16,2.07-8.72.4-2.09-1.37-3.45-3.55-4.43-5.91.42-.42.86-.82,1.34-1.18ZM56.66,223.03c.02.28.02.55.02.83-1.58-2.55-2.72-5.38-3.35-8.32,1.86,2.12,3.12,4.71,3.33,7.49ZM164.06,184.19c1.01,2.94,1.67,6.01,2.21,9.05.45,2.5.86,5.02,1.17,7.54.32,2.58.5,5.3-.32,7.81-.57,1.75-1.72,3.4-3.35,4.3-1.77.97-3.8.58-5.48-.4-3.17-1.84-5-5.12-5.67-8.59-.61-3.17-.13-6.66,1.12-9.81,1.17-2.97,3.31-5.91,5.94-7.76,1.37-.96,2.84-1.66,4.37-2.16ZM134.09,178.09c3.84,4.91,5.85,11.38,4.71,17.53-.35,1.91-.92,3.82-2.1,5.39-.99,1.3-2.41,2.17-3.83,1.76-.49-.14-.92-.44-1.35-.99-.26-.33-.65-1.12-.83-1.7-.55-1.7-.65-3.36-.57-5.16.21-4.87,1.16-10.04,2.94-14.58.3-.77.66-1.52,1.04-2.26ZM93.05,207.44s.02-.01.02-.02c0,0,0,.01,0,.02,0,0-.01,0-.02,0ZM93.07,207.43s0-.01.01-.02c.04,0,.05,0-.01.02ZM89.86,201.44c.04-.87.1-1.56.18-2.23.26.39.52.79.78,1.2.4.65.77,1.32,1.12,2,.15.29.28.59.42.88.02.05.04.08.05.11,0,0,0,0,0,.02.08.19.16.39.23.59.21.57.39,1.14.51,1.73.02.1.04.2.06.29,0,.02,0,.02,0,.03t0,0c.02.26.02.52.03.79,0,.05,0,.08,0,.11,0,.02-.01.03-.03.07-.02.07-.06.18-.08.26-.01.03-.03.05-.05.08-.01.01-.02.02-.04.04,0,0,0,0,0,0,0,0,0,0,0,0,0,0-.02.01-.02.02,0,0-.02,0-.03,0-.02.01-.04.02-.05.02-.01,0-.01,0-.02,0-.08.02-.16.05-.24.08-.22.07-.44.11-.67.16-.1,0-.23,0-.33.01-.06,0-.14-.01-.21,0,0,0-.01,0-.02,0-.27-.1-.54-.3-.1,0-.04-.03-.19-.12-.3-.18-.09-.08-.22-.2-.26-.23-.05-.05-.09-.11-.14-.16.08.08.12.13.15.16-.05-.06-.12-.14-.15-.21-.09-.16-.17-.32-.26-.48,0,0,0,0,0,0-.03-.1-.07-.2-.1-.3-.16-.51-.27-1.02-.36-1.55,0,0,0,0,0,0-.01-.13-.03-.26-.04-.39-.02-.27-.04-.54-.05-.81-.03-.7-.02-1.4,0-2.1Z" fill="#231f20" stroke-width="0"/>
  <path d="M92.93,207.47s.03-.01.05-.02c.01,0,.02,0,.03,0,.02,0,.03-.02.05-.03-.11.02-.3.06-.12.05Z" fill="#231f20" stroke-width="0"/>
  <path d="M338.63,323.85c2.39,1.56,4.95,2.79,7.61,3.84,2.81,1.1,5.72,2,8.35,3.5,5.03,2.86,7.65,8.1,9.77,13.26,3.05,7.39,5.99,14.83,8.98,22.25.4.99,1.32,1.7,2.44,1.39.94-.26,1.79-1.44,1.39-2.44-2.68-6.64-5.36-13.28-8.04-19.92-2.21-5.48-4.47-11.34-8.97-15.39-4.63-4.16-10.83-5.21-16.22-7.99-4.76-2.45-8.91-5.94-12.24-10.12-3.75-4.7-6.28-10.32-7.39-16.22-.2-1.05-1.47-1.66-2.44-1.39-1.11.3-1.59,1.39-1.39,2.44,2.07,10.92,8.87,20.74,18.15,26.79Z" fill="#231f20" stroke-width="0"/>
  <path d="M298.28,313.03c-.94-.26-2.28.32-2.44,1.39-1.98,12.82,4.65,26.23,15.93,32.63,3.01,1.71,6.25,2.7,9.59,3.5,3.28.79,6.78,1.57,9.27,4.03,4.53,4.48,4.61,11.69,6.08,17.49,1.69,6.63,5.86,14,13.45,14.47,2.55.16,2.54-3.82,0-3.97-5.43-.33-8.31-6.61-9.55-11.29-1.58-5.94-1.79-12.52-5.59-17.64-2.15-2.9-5.08-4.7-8.49-5.81-3.21-1.04-6.59-1.5-9.74-2.74-5.35-2.1-9.88-6.21-12.92-11.04-3.43-5.46-5.19-12.13-4.19-18.57.16-1.06-.27-2.14-1.39-2.44Z" fill="#231f20" stroke-width="0"/>
  <path d="M299.63,375.94c1.31,1.48,2.17,3.36,2.94,5.16,1.8,4.2,3.31,8.61,7.32,11.24,2.14,1.41,4.14-2.03,2.01-3.43-3.12-2.05-4.3-6.05-5.68-9.32-.75-1.77-1.56-3.54-2.69-5.1-1.36-1.86-3.04-3.36-4.99-4.58-3.79-2.39-8.15-3.69-11.92-6.13-3.52-2.27-6.62-5.27-9.02-8.7-2.78-3.98-4.68-8.45-5.56-13.22-.2-1.06-1.47-1.65-2.44-1.39-1.11.3-1.58,1.39-1.39,2.44,1.68,9.04,6.91,17.2,14.21,22.75,3.68,2.8,7.9,4.37,11.98,6.47,1.95,1,3.79,2.15,5.25,3.8Z" fill="#231f20" stroke-width="0"/>
  <path d="M291.4,438.59c.17,1.06,1.49,1.65,2.44,1.39,1.13-.31,1.56-1.38,1.39-2.44-1.7-10.6-12.19-15.76-20.42-20.76-7.91-4.81-14.36-11.49-18.73-19.67-2.44-4.57-4.12-9.49-5.05-14.59-.19-1.06-1.47-1.65-2.44-1.39-1.11.31-1.58,1.38-1.39,2.44,1.69,9.25,5.92,17.92,11.97,25.11,3.02,3.59,6.52,6.75,10.38,9.42,4.34,3.01,9.16,5.28,13.44,8.39,4.07,2.96,7.6,7.01,8.41,12.1Z" fill="#231f20" stroke-width="0"/>
  <path d="M271.81,453.25c-4.78-11.76-14.33-20.77-23.3-29.48-3.32-3.22-6.63-6.44-9.95-9.66-1.84-1.78-4.65,1.02-2.81,2.81,5.4,5.24,10.85,10.43,16.17,15.75,4.6,4.6,9.06,9.41,12.55,14.93,1.93,3.06,3.53,6.31,4.64,9.76.55,1.71,2.65,1.87,3.63.47.39-.55.77-1.1,1.16-1.65.62-.88.16-2.21-.71-2.72-.45-.26-.92-.31-1.37-.22Z" fill="#231f20" stroke-width="0"/>
  <path d="M463.12,392.49s0,0,0-.01c-.03.03-.06.06-.07.08.02-.02.04-.05.06-.07Z" fill="#231f20" stroke-width="0"/>
  <path d="M536.05,265.84c-.13-.04-.27-.06-.41-.08-.49-.07-.89-.11-1.36.09-.15.06-.29.12-.43.21-.38.23-.75.51-1.06.83-.41.41-.74.9-1,1.42-.34.44-.59.95-.78,1.47-.25.68-.28,1.42-.18,2.13.12.87.48,1.64,1.08,2.29,1.12,1.21,2.98,1.54,4.52,1.09,1.55-.46,2.91-1.66,3.33-3.26.45-1.74-.17-3.62-1.44-4.86-.63-.61-1.41-1.09-2.26-1.33Z" fill="#231f20" stroke-width="0"/>
  <path d="M544.1,257.23c-7-2.04-14.68-1.07-21.05,2.42-2.24,1.23-.24,4.66,2.01,3.43,5.45-2.99,12-3.76,17.99-2.02,5.49,1.6,10.29,5.25,13.35,10.07,1.36,2.15,4.8.16,3.43-2.01-3.61-5.7-9.23-10.01-15.72-11.9Z" fill="#231f20" stroke-width="0"/>
  <path d="M749.05,578.08c-.36-.21-.83-.28-1.28-.23-3.37-19.5-6.81-38.99-11.1-58.31-4.58-20.65-10.15-41.13-17.62-60.94-6.64-17.62-14.77-34.68-24.9-50.57-3.34-5.23-6.89-10.34-10.65-15.29.3-.02.6-.09.89-.23,13.56-6.22,22.36-20.69,23.04-35.42.23-5.07-.58-10.15-2.37-14.87,9.22-1.4,17.92-6.37,23.2-14.18,3.68-5.45,5.03-12,4.08-18.48-1-6.78-4.6-12.97-9.14-18.01-10.49-11.65-25.9-16.09-40.1-21.44-12.45-4.7-25.92-11.28-32.23-23.73-.48-.95-.9-1.93-1.26-2.93.65-8.38.52-16.79-1.13-25.07-2.29-11.42-7.94-22.33-16.93-29.91-4.26-3.59-9.19-6.41-14.59-7.88-5.74-1.57-11.67-1.4-17.5-.43-6.01,1-11.83,2.83-17.71,4.37-5.56,1.46-11.27,2.74-17.06,2.41-5.48-.31-10.3-2.44-14.67-5.66-4.34-3.2-8.14-7.07-12.51-10.24-4.46-3.24-9.67-5.55-15.28-5.38-6.05.18-11.66,2.92-16.26,6.73-9.42,7.81-14.24,20.44-14.3,32.49-.03,6.25,1.26,12.37,3.72,17.99-.24,4.97.07,9.96.94,14.87.79,4.43,2.07,8.76,3.81,12.91.42.99,1.31,1.7,2.44,1.39.93-.26,1.81-1.45,1.39-2.44-2.61-6.22-4.12-12.82-4.55-19.5,1.63,2.36,3.51,4.58,5.61,6.6.71.68,1.45,1.33,2.2,1.96-3.43,18.76-11.17,36.31-16.49,54.55-1.52,5.22-2.83,10.49-3.8,15.84-.25,1.36.55,2.38,1.92,2.51,5.75.59,11.5,1.18,17.26,1.76-18.32,48.28,13.56,61.48,17.21,63.12-7.53,3.13-14.63,7.24-21.1,12.2.58-3.1.73-6.23.06-9.45-.84-4.07-3.05-7.7-6.45-10.1-.91-.64-1.9-1.17-2.95-1.57.6-10.31.23-20.67-1.13-30.91-.54-4.05-.83-8.76-3.64-11.99-2.74-3.15-7.32-2.74-9.85.42-2.74,3.42-3.45,8.21-4.34,12.38-1.07,5.01-1.88,10.08-2.43,15.18-1.51-1.32-3.46-2.11-5.52-1.88-4.57.51-6.9,4.65-8.06,8.84-.66-.87-1.41-1.66-2.31-2.33-2.71-2.01-6.33-1.9-9.13-.13-3,1.89-4.62,5.14-5.36,8.51,0,0,0,.02,0,.03-.32-.49-.65-.96-1.01-1.42-1.87-2.38-4.55-4.65-7.71-4.79-3.26-.15-5.83,2.25-6.7,5.25-.87,3.02-.39,6.31-.08,9.38.72,7.13,1.94,14.22,3.67,21.18,2.52,10.13,6.1,20.02,10.65,29.42-17.18-.34-34.37.75-51.38,3.24-3.8.56-7.59,1.19-11.37,1.89.03-2.52-.07-5.04-.32-7.55-.87-8.6-3.28-16.94-7.23-24.63-.11-.22-.26-.39-.41-.54.86-.73,1.73-1.47,2.6-2.19,8.7-7.13,18.1-13.41,27.99-18.78,5.59-3.03,11.34-5.78,17.23-8.18,1.47-.6,1.86-2.07.88-3.32-9.89-12.63-19.79-25.26-29.68-37.88-9.85-12.58-19.71-25.15-29.56-37.73-4.72-6.02-9.43-12.04-14.15-18.06,1.33-.57,2.66-1.13,4-1.67.99-.4,1.7-1.32,1.39-2.44-.26-.94-1.44-1.79-2.44-1.39-1.83.74-3.65,1.51-5.46,2.29-.02-.03-.04-.06-.07-.08-.66-.85-2.12-.69-2.81,0-.48.48-.62,1.05-.53,1.61-10.58,4.79-20.8,10.36-30.56,16.68-12.36,8.02-23.99,17.18-34.7,27.29-10.8,10.19-20.65,21.37-29.46,33.32-8.7,11.81-16.35,24.39-22.78,37.58-6.48,13.29-11.75,27.18-15.6,41.45-.48,1.76-.93,3.53-1.36,5.3-.61,2.48,3.22,3.54,3.83,1.06.57-2.34,1.2-4.67,1.84-6.99,7.34,10.6,14.67,21.21,22.01,31.81-7.46,5.19-14.93,10.39-22.39,15.58-5.41-8.62-11.17-17.01-17.47-25.04-10.94-13.94-23.74-27.13-38.36-37.53-.9-6.8-3.46-13.4-7.47-18.96-5.57-7.73-13.59-12.99-22.4-16.37-9.42-3.62-19.73-5.1-29.79-4.38-4.95.36-10.15,1.03-14.8,2.86-3.9,1.53-7.18,3.94-9.73,7.27-4.91,6.41-6.34,15.17-3.47,22.7-3.17,2.63-6.13,5.53-8.87,8.57-9.04,10.04-16.45,21.67-23.08,33.41-6.92,12.25-12.83,25.08-17.71,38.27C6.5,509.62.98,537.7.12,565.92c-.11,3.45-.14,6.91-.11,10.36.02,2.56,4,2.56,3.97,0-.25-27.65,4.02-55.25,12.49-81.56,8.29-25.74,20.54-50.75,36.8-72.42,7.42-9.88,16.39-19.19,27.74-24.46,12.34-5.73,26.26-5,38.99-.99,10.67,3.36,20.65,8.83,29.85,15.24.11,1.37.16,2.74.13,4.12-.07,2.56,3.91,2.56,3.97,0,.01-.39,0-.77,0-1.16.43.32.86.64,1.29.96,10.55,8.01,20.02,17.42,28.57,27.52,18.61,22,32.58,47.44,45.87,72.87,1.72,3.28,3.42,6.57,5.13,9.86.58,1.11,2.28,1.31,3.12.4l49.33-53.59c4.68-5.08,9.36-10.17,14.04-15.25,1.73-1.88-1.07-4.7-2.81-2.81-12.04,13.08-24.07,26.15-36.11,39.23-.03-.24-.12-.48-.26-.69-8.33-12.04-16.66-24.08-24.98-36.11.22-.53.22-1.14-.11-1.71-.34-.59-1.06-.98-1.76-.99-4.11-5.95-8.23-11.9-12.34-17.84-3.68-5.32-7.36-10.64-11.04-15.95-.19-.28-.44-.5-.72-.67,3.02-10.02,6.72-19.84,11.1-29.35,6.09-13.24,13.4-25.9,21.77-37.82,8.34-11.87,17.76-22.98,28.08-33.18,10.31-10.19,21.53-19.47,33.51-27.63,11.13-7.58,22.91-14.19,35.18-19.72,9.34,11.92,18.67,23.84,28.01,35.75,9.85,12.58,19.71,25.15,29.56,37.73,5,6.38,10,12.76,15,19.14-9.8,4.18-19.23,9.16-28.15,14.99-9.7,6.33-18.82,13.59-27.15,21.63-3.74,3.61-7.31,7.39-10.71,11.3-.07-.56-.15-1.11-.24-1.66-.53-3.38-1.63-6.85-3.93-9.46-2.57-2.93-6.68-3.85-10.31-2.47-4.23,1.61-6.84,5.32-8.75,9.25-4.04,8.33-7.13,17.19-9.32,26.19-2.25,9.21-3.52,18.67-3.83,28.14-2-1.85-4-3.69-6-5.54-1.88-1.73-4.69,1.07-2.81,2.81,11.38,10.52,22.76,21.03,34.14,31.55,2.86,2.64,5.72,5.29,8.59,7.93-11.14,15.88-22.42,31.77-35.88,45.8-9.76,10.17-20.79,19.4-33.1,26.36-3.72-1.19-7.42-2.49-11.06-3.91-2.25-.88-4.49-1.8-6.71-2.77-2.32-1.01-4.35,2.41-2.01,3.43,4.92,2.15,9.92,4.08,14.98,5.8-2.38,1.2-4.81,2.32-7.29,3.33-3.79,1.55-7.68,2.87-11.63,3.93-.39-.16-.79-.31-1.18-.47-2.65-1.08-5.28-2.21-7.88-3.39-2.31-1.04-4.34,2.38-2.01,3.43,1.47.66,2.96,1.31,4.44,1.95-2.81.53-5.64.94-8.49,1.17-9.44.77-18.93-.06-28.16-2.15-.23-3.41-.46-6.81-.7-10.22-.07-1.07-.86-1.99-1.99-1.99-1.02,0-2.06.91-1.99,1.99.21,3.08.42,6.15.63,9.23-17.67-4.72-33.91-13.73-48.44-24.75-16-12.14-30.01-26.69-43.71-41.3-1.68-1.79-3.36-3.59-5.04-5.39-1.75-1.87-4.55.94-2.81,2.81,13.95,14.95,27.97,29.96,43.88,42.87,15.62,12.67,33.1,23.21,52.51,28.88,1.29.38,2.59.73,3.9,1.05.5,7.3,1,14.59,1.49,21.89.07,1.07.86,1.99,1.99,1.99,1.02,0,2.06-.91,1.99-1.99-.48-6.99-.95-13.98-1.43-20.96,14.15,2.98,28.73,3,42.78-.5,17.56,6.94,35.84,11.9,54.48,15.03,22.62,3.8,45.63,5.03,68.55,4.22,23.5-.84,46.89-3.84,69.96-8.33,24.16-4.69,47.99-11,71.54-18.13,14.59-4.42,29.08-9.15,43.53-14.03,17.66,1.73,35.48-1.11,51.74-8.26,16.3-7.16,30.75-18.65,40.87-33.34,1.24-1.8,2.41-3.65,3.51-5.54,1.29-2.21-2.14-4.22-3.43-2.01-8.71,14.96-21.96,26.85-37.3,34.76-13.97,7.2-29.53,10.91-45.2,10.92,5.52-1.89,11.04-3.79,16.56-5.7,2.87-.99,5.74-1.99,8.61-2.98,2.4-.83,1.37-4.67-1.06-3.83-11.58,4.02-23.17,8.03-34.78,11.96-9.06-.95-17.98-3.08-26.54-6.22,5.33-2.5,10.47-5.37,15.35-8.72,1.89-1.3,3.73-2.67,5.53-4.09.85-.67.69-2.11,0-2.81-.82-.84-1.97-.66-2.81,0-7.12,5.6-14.98,10.01-23.23,13.58-5.61-2.36-11.03-5.15-16.21-8.32-16.01-9.8-29.47-23.34-39.7-39.04-10.21-15.67-17.25-33.28-21.12-51.56-.3-1.42-.57-2.84-.84-4.26.37.04.78-.04,1.19-.29,11.45-6.99,22.91-13.97,34.37-20.96,3.26-1.99,6.51-3.97,9.77-5.96,2.18-1.33.19-4.77-2.01-3.43-.15.09-.31.19-.46.28.14-.43.27-.86.41-1.29,1.38-4.24,2.77-8.47,4.15-12.71,1.05-3.24,2.08-6.48,3.08-9.73,6.21-5.38,13.14-9.92,20.59-13.44,2.66-1.26,5.38-2.36,8.15-3.34,2.34.5,4.73.66,7.13.49,2.76,14.1,7.21,27.83,13.23,40.88,1.77,3.83,3.68,7.6,5.72,11.3.17.32.39.54.64.7-.97,2.57-1.91,5.16-2.79,7.76-.07.19-.13.39-.19.58-7.38-11.44-12.83-24.03-16.07-37.26-.95-3.85-1.7-7.75-2.27-11.68-.16-1.06-1.5-1.65-2.44-1.39-1.14.31-1.54,1.38-1.39,2.44,2.07,14.15,6.59,27.9,13.27,40.54,1.91,3.61,4,7.12,6.25,10.53.35.53.82.8,1.32.88-2.3,7.19-4.26,14.49-5.9,21.86-.5-.12-1-.24-1.5-.37-10.15-2.71-19.47-8.22-26.94-15.59-7.46-7.36-13.09-16.6-15.69-26.79-.33-1.27-.6-2.56-.84-3.86-.19-1.06-1.48-1.65-2.44-1.39-1.11.31-1.58,1.38-1.39,2.44,2,11.02,7.38,21.23,14.83,29.54,7.46,8.32,17.08,14.73,27.66,18.33,1.8.61,3.63,1.13,5.48,1.56-.07.33-.14.66-.21.99-.21,1.05.3,2.15,1.39,2.44.98.27,2.23-.33,2.44-1.39.09-.43.18-.85.27-1.28,7.84,1.27,15.9.93,23.64-1.08,10.82-2.81,20.81-8.64,28.81-16.42,7.98-7.77,14.06-17.62,16.91-28.43.35-1.32.64-2.65.89-3.99.2-1.05-.29-2.14-1.39-2.44-.97-.27-2.25.33-2.44,1.39-1.93,10.35-6.89,19.93-13.94,27.72-7.04,7.78-16.03,13.84-25.99,17.18-6.46,2.16-13.2,3.1-19.92,2.78,3.67-15.85,9.37-31.19,16.93-45.59,7.65-14.56,17.11-28.15,28.19-40.31,6.25-6.87,13-13.27,20.19-19.16.83-.68.71-2.1,0-2.81-.82-.82-1.98-.68-2.81,0-12.99,10.64-24.51,23-34.34,36.6-9.8,13.57-17.82,28.38-23.9,43.97-3.41,8.75-6.17,17.75-8.25,26.91,0,.01,0,.02,0,.03-.58-.07-1.16-.15-1.73-.24,3.77-16.93,9.31-33.47,16.52-49.25,7.92-17.33,17.8-33.78,29.4-48.9,6.49-8.47,13.57-16.5,21.11-24.05,1.81-1.81-1-4.62-2.81-2.81-.4.4-.79.82-1.19,1.23-.18-1.14-.35-2.29-.53-3.43,15.07,6.47,28.98,15.56,41.3,26.37,13.13,11.52,24.54,24.92,34.27,39.41,10.15,15.12,18.48,31.4,25.23,48.31,7.79,19.51,13.63,39.75,18.4,60.2,4.78,20.47,8.49,41.16,12.08,61.87.44,2.55.88,5.09,1.32,7.64.28,1.63,2.94,1.99,3.63.47.47-1.04.94-2.07,1.41-3.11.44-.98.28-2.14-.71-2.72ZM129.62,396.2c-12.89-5.47-27.35-8.45-41.2-5.12-7.04,1.69-13.44,4.99-19.21,9.24-1.76-5.53-.56-11.81,2.58-16.65,1.72-2.64,4.08-4.82,6.9-6.25,4.07-2.07,8.93-2.81,13.44-3.25,9.36-.92,18.84.11,27.77,3.09,8.1,2.7,15.81,7.07,21.35,13.67,3.8,4.52,6.43,9.95,7.76,15.69-6.16-4.02-12.61-7.54-19.38-10.42ZM247.65,479.61c3.68,5.32,7.36,10.64,11.04,15.95.38.55.97.92,1.59.97-3.71,4.03-7.41,8.05-11.12,12.08-4.06,4.41-8.12,8.82-12.18,13.23-8.09-15.58-16.27-31.17-25.45-46.14,7.52-5.23,15.03-10.46,22.55-15.69,4.52,6.53,9.04,13.07,13.56,19.6ZM463.14,392.46s0,0,0,.02c.02-.02.03-.04.06-.06,0,0-.03.03-.06.07-.02.03-.03.05-.04.07,0,0-.02,0-.03.01,0,0,0-.01,0-.02,0,0-.02.02-.02.03-.06.03-.12.07-.14.09-.01,0-.03,0-.04.01-.1-.2-.21-.39-.32-.59,0-.02-.01-.02-.02-.04,0-.01,0-.02-.01-.03-.06-.16-.12-.31-.17-.47-.55-1.59-.85-3.26-1.09-4.92-.1-.7-.24-1.88-.33-2.86-.1-1.11-.18-2.21-.25-3.32-.1-1.83-.14-3.66-.15-5.49.18.55.37,1.09.55,1.65.69,2.16,1.3,4.34,1.79,6.55.45,2.04.73,3.53.82,5.5.03.75.02,1.51-.05,2.26-.02.06-.1.56-.14.7-.04.15-.09.3-.13.45-.11.38-.02.05-.01.05-.07.12-.14.24-.2.36ZM463.07,392.56s-.04.04-.03.02c0,0,.02-.01.03-.02ZM463.02,392.6s-.04.04-.06.06c0,0-.01,0-.02,0,.01-.02.04-.03.08-.06ZM462.82,392.72s-.03.01-.04.02h0s.03-.01.04-.02c0,0,0,0,0,0ZM314.77,466.61c.07-.2.12-.43.13-.68.21-17.14,3.73-34.23,10.39-50.03,1.5-3.57,3.01-7.65,5.75-10.47,2.19-2.25,5.73-3.58,8.42-1.53,2.12,1.62,3.08,4.7,3.61,7.3.79,3.87.9,7.98.93,11.93.07,9.83-1.47,19.59-4.49,28.94-.79,2.44,3.05,3.48,3.83,1.06,2.92-9.01,4.48-18.48,4.63-27.95.03-2.17,0-4.35-.11-6.53,5.66-6.77,11.81-13.11,18.39-18.97,4.86,9.48,7.24,20.21,6.99,30.87-.84.17-1.69.33-2.53.5-1.05.22-1.66,1.46-1.39,2.44.3,1.09,1.39,1.61,2.44,1.39.41-.09.83-.16,1.24-.25-.2,2.25-.5,4.49-.93,6.71-2.55,12.97-9.22,24.82-18.78,33.92-4.93,4.69-10.58,8.55-16.72,11.48-7.27-6.72-14.54-13.44-21.81-20.15ZM527.92,556.79c7.52,3.03,15.33,5.31,23.31,6.75-8.77,2.92-17.57,5.78-26.39,8.54-23.18,7.24-46.59,13.77-70.34,18.85-23.07,4.93-46.45,8.48-70.01,9.89-22.64,1.35-45.48.82-67.97-2.25-19.85-2.72-39.45-7.41-58.24-14.37.1-.03.2-.06.29-.09,6.17-2.06,12.1-4.71,17.79-7.81,12.2,3.8,24.75,6.46,37.45,8.14,20.08,2.66,40.4,2.91,60.6,1.59,21.56-1.41,42.98-4.55,64.26-8.27,10.66-1.86,21.3-3.87,31.93-5.89,9.08-1.72,18.15-3.45,27.14-5.59,10.22-2.43,20.44-5.41,30.17-9.49ZM449.19,445.58c-.1.06-.18.13-.26.2-.51-.4-1.23-.56-1.82-.4-1.12.31-1.57,1.38-1.39,2.44,3.2,18.97,9.73,37.44,19.52,54.02,9.84,16.65,23.02,31.27,38.99,42.24,5.86,4.02,12.07,7.54,18.53,10.5-6.62,2.56-13.44,4.65-20.29,6.43-18.78,4.88-38.06,8.09-57.15,11.54-20.82,3.76-41.74,7.1-62.83,8.89-20.09,1.71-40.33,2-60.4-.02-13.86-1.39-27.64-3.93-41.02-7.83,9.12-5.52,17.56-12.21,25.24-19.57,14.89-14.27,27.15-31,39-47.81,1.47-2.08,2.93-4.17,4.39-6.25,1.07-1.52-.45-2.98-1.93-2.87-2.68-2.48-5.37-4.96-8.05-7.44,11.36-5.69,21.02-14.68,27.67-25.51,5.62-9.16,8.89-19.62,9.65-30.29,19.19-3.61,38.7-5.38,58.22-5.29,2.24.01,4.48.06,6.72.12,1.02,1.96,2.08,3.9,3.19,5.81,1.74,3,3.58,5.94,5.53,8.81.26.39.6.64.96.77-.82.5-1.64,1-2.46,1.5ZM497.09,392.82s-.02.08-.04.11c-.32.28-.64.56-.96.85-2.72,2.48-5.29,5.13-7.69,7.92-.7.81-.8,2.01,0,2.81.72.72,2.11.82,2.81,0,1.09-1.27,2.22-2.5,3.38-3.71-1.79,5.6-3.66,11.19-5.47,16.78-.46,1.42-.93,2.84-1.36,4.27-.02.08-.05.15-.07.23-9.58,5.84-19.16,11.69-28.74,17.53-1.5.92-3,1.83-4.51,2.75,0-.34-.09-.7-.34-1.07-2.72-4.03-5.25-8.18-7.56-12.45,2.28.1,4.55.21,6.82.35,2.55.16,2.54-3.81,0-3.97-2.98-.19-5.96-.33-8.94-.43-2.82-5.6-5.27-11.39-7.34-17.31-4.17-11.93-6.89-24.43-7.81-37.03-.14-1.95-.4-4.9,1.21-6.37,1.65-1.5,3.8-.16,5.2,1.16,1.69,1.6,2.77,3.58,3.81,5.63.27.53.53,1.07.79,1.6-.14,2.99-.04,6,.15,8.95.33,5.08.94,10.25,2.31,15.16.77,2.76,2.17,7.55,5.74,7.69,3.67.14,4.59-3.79,4.4-6.69-.29-4.4-1.7-8.75-3.17-12.88-1.56-4.4-3.38-8.73-5.39-12.95.02-.31.03-.63.06-.94.2-2.56.53-5.32,1.76-7.61,1.05-1.97,3.22-3.91,5.62-3.43,2.43.49,3.79,3.21,4.76,5.23.12.26.23.52.35.78-.42,4.27-.46,8.59-.29,12.87.17,4.49.42,9.27,1.78,13.59.45,1.44,1.08,3.05,2.39,3.92,1.32.88,3.17.62,4.43-.26,3.22-2.25,2.59-7.26,2.09-10.6-.72-4.88-2.24-9.66-3.95-14.27-.74-2-1.55-3.98-2.42-5.93.15-1.57.33-2.93.83-4.64.56-1.93,1.57-4.21,3.21-5.27.72-.46,1.44-.68,2.4-.46,1.01.23,1.82.97,2.38,1.81.78,1.17,1.08,2.51,1.15,3.89-.05.89-.08,1.78-.11,2.67-.08.7-.18,1.4-.28,2.06-.07.51-.01,1.02.19,1.45-.07,6.78.31,13.57,1.19,20.3.14,1.06.81,1.99,1.99,1.99.97,0,2.13-.92,1.99-1.99-1.04-8.02-1.4-16.11-1.1-24.19.04-.54.07-1.08.07-1.61.05-.94.09-1.88.16-2.81.32-4.72.88-9.42,1.68-14.08.77-4.47,1.57-9.12,3.02-13.43.46-1.38,1.12-2.89,2.26-3.85.85-.71,1.91-.81,2.84-.08.92.72,1.54,2.24,1.91,3.49.57,1.96.8,4.02,1.08,6.04,1.29,9.35,1.7,18.84,1.32,28.27-.03.67-.07,1.33-.11,2-1.38-.08-2.77.05-4.11.46-2.44.73-1.4,4.57,1.06,3.83.92-.28,1.86-.36,2.79-.31-.68,8.68-2.07,17.29-4.16,25.75-.61,2.48,3.22,3.54,3.83,1.06,2.08-8.44,3.48-17.04,4.21-25.69.53.28,1.05.61,1.53.98,2.64,2.06,4.07,5.27,4.52,8.53.56,4.05-.42,7.73-1.57,11.54ZM448.71,400.19s-.02.04-.04.06c-.08-.09-.16-.19-.22-.25,0,0,0,0,0,0,0,0,0,0,0,0-.07-.11-.14-.21-.21-.32-.19-.3-.35-.61-.51-.93-.07-.14-.13-.28-.2-.42-.02-.04-.03-.06-.04-.08,0-.03-.02-.07-.05-.13-.15-.39-.29-.78-.42-1.18-.62-1.88-1.06-3.81-1.42-5.75-.57-3.05-.93-6.15-1.14-9.26.92,2.32,1.77,4.68,2.52,7.06.6,1.92,1.15,3.86,1.55,5.83.08.41.16.82.22,1.23.01.08.05.35.07.45.01.1.05.44.06.51.07.68.1,1.37.06,2.06,0,.14-.02.27-.03.41,0,0,0,0,0,.02-.06.23-.13.47-.19.71ZM448.73,400.16c.05-.13.11-.17,0,0h0ZM577.94,387.22c-7.88,12.7-14.63,26.1-20.18,39.98-6.56-12.26-11.67-25.26-15.16-38.72-.87-3.36-1.63-6.74-2.31-10.14,5.19-1.15,10.06-3.69,14.47-6.58,4.53-2.96,8.83-6.31,12.83-9.94,8.92-8.09,16.42-17.76,22.05-28.4,1.19-2.26-2.23-4.27-3.43-2.01-4.77,9.02-10.86,17.26-18.11,24.45-3.55,3.52-7.36,6.8-11.41,9.74-4.21,3.06-8.73,5.92-13.62,7.79-21.98,8.37-44.25-16.43-38.26-41.82.25.27.57.49.94.63,11.58,4.26,24.34,4.5,36.09,1.03-7.01,8.4-16.21,14.99-26.46,18.82-1,.38-1.69,1.34-1.39,2.44.27.96,1.43,1.76,2.44,1.39,10.24-3.83,19.52-10.07,26.83-18.22,2.11-2.36,4.06-4.87,5.83-7.5.49-.72.28-1.81-.31-2.41-.67-.67-1.59-.67-2.41-.31-12.46,5.38-26.87,5.6-39.58.93-.42-.15-.86-.1-1.25.07,1.41-5.52,3.3-10.92,5.2-16.28.47-1.33-.73-2.39-1.92-2.51-5.87-.6-11.74-1.2-17.6-1.8,3.59-18.05,10.98-35.03,16.12-52.65,1.33-4.56,2.49-9.18,3.4-13.84,7.4,5.09,16.29,8.03,25.31,7.87,11.67-.21,23.21-5.36,31.21-13.85,1.34-1.42,2.57-2.94,3.7-4.53-3.76,8.17-2.2,18.37,4.4,24.68,2.71,2.59,5.98,4.38,9.45,5.32.09,9.77.17,19.53.26,29.3.04,4.76.08,9.53.13,14.29.02,2.57,3.87,2.55,3.97,0,.31-7.54,1.85-14.99,4.53-22.05,1.26-3.33,2.74-6.71,4.7-9.7,1.64-2.51,4.35-5.06,7.6-4.71,5.16.56,6.28,7.99,6.91,12.22.82,5.54,1.5,13.96-5.09,16.36-2.65.96-5.47-.26-6.25-3.1-.77-2.82,1.54-5.58,4.4-5.64,2.55-.06,2.56-4.03,0-3.97-3.92.09-7.68,2.96-8.38,6.91-.64,3.58,1.16,7.46,4.41,9.16,2.25,14.61,4.5,29.22,6.75,43.83-.13.34-.16.75-.03,1.2.16.57.31,1.14.47,1.71-11.76,12.43-22.25,26.06-31.27,40.6ZM681.53,390.17c-6.44-8.25-13.46-16.05-21.1-23.19-12.83-11.99-27.41-22.19-43.39-29.5-1.85-.85-3.72-1.65-5.6-2.42-1.76-11.41-3.52-22.82-5.27-34.22,2.46-.07,4.86-1.17,6.78-2.86,3.14-2.76,4.37-6.85,4.51-10.91.13-3.96-.5-8.14-1.42-11.99-.75-3.14-2-6.52-4.47-8.72-3.08-2.73-7.25-2.98-10.87-1.16-3.88,1.95-6.17,5.92-8,9.67-1.42,2.9-2.64,5.89-3.66,8.94-.07-7.43-.13-14.85-.2-22.28,3.76.3,7.6-.37,11.13-2.1,4.4-2.15,8.11-5.88,10.15-10.34.45-.98.28-2.14-.71-2.72-.85-.5-2.27-.27-2.72.71-3.05,6.67-10.01,11.09-17.39,10.58-.17-.01-.33-.04-.5-.06-.01-1.2-.02-2.4-.03-3.6-.04-4.76-.08-9.53-.13-14.29-.02-2.56-4-2.56-3.97,0,.05,5.67.1,11.34.15,17.01-5.52-1.93-9.96-6.55-11.38-12.33-1.05-4.28-.51-8.91,1.59-12.8,1.02-1.89-1.22-3.59-2.69-2.77.06-.09.12-.18.17-.27,1.35-2.18-2.09-4.18-3.43-2.01-5.69,9.2-15.28,15.62-25.81,17.86-10.56,2.25-21.5-.31-30.34-6.39-5.88-4.05-10.5-9.55-13.48-15.89.36-5.73,1.51-11.41,3.45-16.85,1.43-4.03,3.33-7.87,5.6-11.49,1.36-2.17-2.07-4.17-3.43-2.01-4.2,6.68-7.04,14.11-8.52,21.81-.16-.73-.3-1.46-.41-2.19-1.72-10.95,1.12-23.2,8.28-31.79,3.5-4.2,8.07-7.74,13.38-9.25,4.98-1.41,9.97-.57,14.43,1.97,4.39,2.5,8.04,6.06,11.89,9.29,4.11,3.45,8.48,6.61,13.68,8.15,11.19,3.33,22.84-.87,33.65-3.72,5.48-1.45,11.07-2.72,16.76-2.66,5.15.05,10.16,1.4,14.67,3.88,9.1,5.01,15.91,13.92,19.44,23.6,3.53,9.69,4.16,20.09,3.53,30.34-.49.43-.76,1.09-.5,1.91.09.29.21.57.3.86-.17,2.06-.38,4.11-.63,6.14-.4,3.26-.89,6.5-1.43,9.74-.17,1.06.28,2.14,1.39,2.44.95.26,2.27-.32,2.44-1.39.55-3.34,1.06-6.71,1.48-10.09,5.47,8.82,14.68,15.12,24.06,19.39,13.61,6.2,29.01,9.24,41.16,18.35,9.8,7.35,17.83,20.06,13.3,32.56-3.55,9.79-13.84,16.18-23.98,17.38-.45-.88-.94-1.74-1.46-2.59-3.96-6.35-9.75-11.55-16.4-14.96-7.66-3.92-16.34-5.48-24.85-4.04-1.63.28-1.7,2.29-.88,3.32,8.79,11.02,21.07,20.23,35.36,22.11,1.9.25,3.83.32,5.75.25,1.62,3.84,2.51,7.96,2.57,12.19.1,6.67-1.68,13.31-4.94,19.12-3.71,6.6-9.27,12-16.17,15.16-.45.21-.73.62-.87,1.08ZM698.98,338.71c-12.92-.35-24.62-8.17-33.09-17.45-.26-.29-.51-.58-.77-.88,12.34-.74,24.95,5.61,32.1,15.6.63.88,1.21,1.79,1.76,2.72Z" fill="#231f20" stroke-width="0"/>
  <path d="M492.05,88.24c-2.05-.29-4.13-.49-6.21-.57-2.56-.1-2.55,3.88,0,3.97,6.75.26,13.38,1.77,19.57,4.4-5,.35-9.99.7-14.99,1.05-.98.07-1.83.7-1.95,1.72-.11.92.44,1.97,1.42,2.18,1.78.37,3.49.97,5.19,1.62-1.03.09-2.05.22-3.02.49-1.37.38-2.03,2.32-.88,3.32.38.33.76.68,1.14,1.02-.63.07-1.26.22-1.89.46-2.96,1.15-4.68,3.96-3.97,7.11.63,2.78,3.2,5.01,6.1,4.88,3-.13,5.78-2.36,6.38-5.33.13-.63-.01-1.26-.37-1.74.76.18,1.53.03,2.06-.67.56-.74.6-1.95-.16-2.61-1.14-1-2.25-2.03-3.36-3.07.57-.03,1.14-.06,1.7-.1,2.06-.12,4.25-.12,6.25-.67,1.82-.5,1.97-3.42,0-3.83-1.66-.35-3.26-.89-4.85-1.49,4.17-.29,8.35-.58,12.52-.87,1.9-.13,2.79-2.66,1-3.7-2.11-1.24-4.3-2.34-6.54-3.31,8.2-3.28,15.53-8.67,21.01-15.61,5.62-7.12,10.9-16.98,8.61-26.33-1.15-4.69-4.51-8.25-8.94-10.02-4.27-1.7-9.12-1.65-13.55-.67-9.02,2-17.1,8.01-21.73,15.98-5.71,9.83-5.78,22.36-.56,32.39ZM495.12,113.51c-.26,1.3-1.34,2.38-2.68,2.42-1.21.03-2.04-1.01-2.18-2.2-.03-.26.05-.87.31-1.23.42-.56,1.07-.86,1.73-1.03,1.46-.37,2.99.06,4.41.62-.74.13-1.44.65-1.59,1.41ZM494.54,60.8c3.25-7.46,9.78-13.46,17.46-16.13,6.77-2.35,17.19-2.68,20.47,5.25,1.52,3.66.95,7.89-.18,11.57-1.24,4.02-3.38,7.78-5.82,11.18-5.48,7.64-13.39,13.6-22.25,16.74-.68.24-1.2.77-1.38,1.42-2.34-.79-4.72-1.44-7.14-1.94.38-.55.5-1.27.09-2.03-4.32-7.88-4.85-17.79-1.25-26.05Z" fill="#231f20" stroke-width="0"/>
  <path d="M461.92,148.23c3.03,1.93,6.21,3.59,9.49,5.04-4.13,10.4-5.15,21.83-2.91,32.82.63,3.09,1.54,6.1,2.7,9.03-.02.49-.04.98-.05,1.47-.07,2.56,3.91,2.56,3.97,0,0-.25.02-.5.02-.76.19-.4.25-.85.08-1.27-.01-.03-.02-.06-.03-.08.3-8.42,1.15-16.96,4.25-24.84,3.22-8.18,9.38-14.69,17.59-17.92,18.03-7.1,37.7-.98,56.34-1.63,9.78-.34,19.62-2.57,27.51-8.64,7.08-5.44,11.92-13.14,15-21.44,6.33-17.07,5.49-36.71.33-53.97-5.29-17.69-15.6-34.04-29.9-45.8-14.56-11.98-32.87-18.9-51.66-20.07-18.39-1.14-37.07,3.48-52.34,13.91-14.74,10.06-26.16,24.76-32.25,41.54-6.06,16.68-6.18,35.02-.24,51.75,5.9,16.62,17.17,31.36,32.09,40.87ZM430.87,67.28c3.52-16.73,12.67-32.04,25.37-43.42,13.15-11.79,29.99-18.65,47.61-19.72,18.11-1.1,36.5,3.52,51.82,13.26,15.07,9.57,26.73,24.18,33.5,40.64,6.69,16.26,9.23,34.87,5.44,52.16-1.8,8.22-5.08,16.39-10.6,22.84-2.71,3.16-5.88,5.86-9.52,7.9-4.14,2.33-8.73,3.71-13.4,4.48-9.78,1.6-19.85.47-29.65-.38-9.05-.79-18.22-1.17-27.2.52-8.72,1.65-17.1,5.65-22.74,12.68-5.76,7.19-8.27,16.16-9.43,25.16-1.71-10.12-.56-20.71,3.62-30.15.56-1.28.09-2.39-1.19-2.92-15.7-6.42-28.48-18.95-36.37-33.85-7.96-15.03-10.78-32.51-7.27-49.2Z" fill="#231f20" stroke-width="0"/>
  <path d="M739.09,582.68c-23.68.19-47.36.37-71.03.56-23.68.19-47.36.37-71.03.56-13.36.11-26.72.21-40.08.32-2.56.02-2.56,3.99,0,3.97,23.68-.19,47.36-.37,71.03-.56,23.68-.19,47.36-.37,71.03-.56,13.36-.11,26.72-.21,40.08-.32,2.56-.02,2.56-3.99,0-3.97Z" fill="#231f20" stroke-width="0"/>
  <path d="M177.92,605.81c-22.24.45-44.49.9-66.73,1.35-22.11.45-44.22.9-66.34,1.34-12.45.25-24.89.5-37.34.76-2.55.05-2.56,4.03,0,3.97,22.24-.45,44.49-.9,66.73-1.35,22.11-.45,44.22-.9,66.34-1.34,12.45-.25,24.89-.5,37.34-.76,2.55-.05,2.56-4.02,0-3.97Z" fill="#231f20" stroke-width="0"/>
  <path d="M133.19,116.64c7.24,6.5,15.35,12.11,23.89,16.77,17.18,9.36,36.41,14.92,55.94,16.11,3.91.24,7.83.28,11.75.16-3.5,14.3-7.01,28.61-10.51,42.91-.58,2.38,2.9,3.44,3.73,1.34.28,0,.58-.08.88-.23,15.48-7.86,27.93-21.4,34.71-37.36,1.72-4.05,3.09-8.22,4.05-12.5,20.69,2.37,42.47,4.54,62.31-3.19,8.33-3.25,16.18-8.03,22.26-14.65,6.37-6.93,10.4-15.58,11.68-24.9,1.3-9.46,0-19.22-3.36-28.15-3.4-9.01-8.85-17.07-15.5-24-13.13-13.67-30.49-23.11-48.13-29.63-17.78-6.57-36.73-9.97-55.67-10.3-19.01-.33-38.14,2.45-56.23,8.32-9.03,2.93-17.82,6.63-26.21,11.07-8.21,4.35-16.23,9.36-23.06,15.71-6.51,6.06-11.93,13.63-13.98,22.4-2.18,9.34-.33,18.91,3.78,27.45,4.17,8.66,10.54,16.27,17.66,22.67ZM121.12,55.35c4.9-7.12,11.87-12.69,19.08-17.34,7.59-4.89,15.7-9.06,24.04-12.5,16.98-6.99,35.12-11.1,53.45-12.22,18.21-1.11,36.58.66,54.2,5.42,17.64,4.76,34.89,12.42,49.51,23.46,14.48,10.94,26.14,26.3,28.57,44.68,1.18,8.9.17,18.27-3.8,26.39-3.77,7.71-9.91,13.95-17.15,18.47-16.96,10.59-37.4,11.26-56.76,9.65-5.41-.45-10.8-1.07-16.19-1.69-.8-.09-1.76.68-1.92,1.46-3.28,16.37-12.5,31.2-25.52,41.61-2.94,2.35-6.11,4.42-9.4,6.25,3.34-13.63,6.67-27.25,10.01-40.88.29-1.19-.59-2.58-1.92-2.51-18.92.97-37.91-2.38-55.44-9.53-8.67-3.54-16.95-8.06-24.64-13.4-7.63-5.3-14.76-11.42-20.61-18.67-5.64-7-10.18-15.29-11.52-24.26-1.3-8.68,1.08-17.22,6.01-24.39Z" fill="#231f20" stroke-width="0"/>
  <path d="M189.83,35.51c22.82,2.59,45.64,5.18,68.47,7.77,6.43.73,12.85,1.46,19.28,2.19,1.07.12,1.99-1,1.99-1.99,0-1.17-.92-1.87-1.99-1.99-22.82-2.59-45.64-5.18-68.47-7.77-6.43-.73-12.85-1.46-19.28-2.19-1.07-.12-1.99,1-1.99,1.99,0,1.17.92,1.87,1.99,1.99Z" fill="#231f20" stroke-width="0"/>
  <path d="M161.54,56.62c19.52-.69,39.07-.39,58.56.91,19.38,1.29,38.68,3.57,57.83,6.83,10.83,1.85,21.61,4.01,32.31,6.47,2.49.57,3.55-3.26,1.06-3.83-19.21-4.42-38.64-7.84-58.2-10.28-19.38-2.42-38.88-3.85-58.41-4.29-11.05-.25-22.1-.17-33.15.22-2.55.09-2.56,4.06,0,3.97Z" fill="#231f20" stroke-width="0"/>
  <path d="M158.22,77.92c22.05,2.76,44.1,5.51,66.16,8.27,21.92,2.74,43.84,5.48,65.76,8.22,12.34,1.54,24.68,3.08,37.02,4.63,1.07.13,1.99-1.01,1.99-1.99,0-1.18-.92-1.85-1.99-1.99-22.05-2.76-44.1-5.51-66.16-8.27-21.92-2.74-43.84-5.48-65.76-8.22-12.34-1.54-24.68-3.08-37.02-4.63-1.07-.13-1.99,1.01-1.99,1.99,0,1.18.92,1.85,1.99,1.99Z" fill="#231f20" stroke-width="0"/>
  <path d="M298.08,113.17c-16.22-1.38-32.43-2.76-48.65-4.14s-32.43-2.76-48.65-4.14c-9.1-.77-18.19-1.55-27.29-2.32-1.07-.09-1.99.98-1.99,1.99,0,1.15.91,1.9,1.99,1.99,16.22,1.38,32.43,2.76,48.65,4.14s32.43,2.76,48.65,4.14c9.1.77,18.19,1.55,27.29,2.32,1.07.09,1.99-.98,1.99-1.99,0-1.15-.91-1.9-1.99-1.99Z" fill="#231f20" stroke-width="0"/>
  <path d="M460.33,79.31c5.62-.68,11.23-1.35,16.85-2.03,1.07-.13,1.99-.82,1.99-1.99,0-.97-.91-2.12-1.99-1.99-5.62.68-11.23,1.35-16.85,2.03-1.07.13-1.99.82-1.99,1.99,0,.97.91,2.12,1.99,1.99Z" fill="#231f20" stroke-width="0"/>
  <path d="M468.89,63.52c1.71.5,3.41.99,5.12,1.49,1,.29,2.21-.35,2.44-1.39.24-1.06-.32-2.13-1.39-2.44-1.71-.5-3.41-.99-5.12-1.49-1-.29-2.21.35-2.44,1.39-.24,1.06.32,2.13,1.39,2.44Z" fill="#231f20" stroke-width="0"/>
  <path d="M485.25,47.6c.73.79,2.07.74,2.81,0,.79-.79.73-2.02,0-2.81-4.17-4.51-8.34-9.03-12.51-13.54-.73-.79-2.07-.74-2.81,0-.79.79-.73,2.02,0,2.81,4.17,4.51,8.34,9.03,12.51,13.54Z" fill="#231f20" stroke-width="0"/>
  <path d="M498.88,34.78c.2.43.75.79,1.19.91.48.13,1.11.07,1.53-.2.97-.63,1.18-1.71.71-2.72-1.03-2.21-2.06-4.42-3.09-6.62-.2-.43-.75-.79-1.19-.91-.48-.13-1.11-.07-1.53.2-.97.63-1.18,1.71-.71,2.72,1.03,2.21,2.06,4.42,3.09,6.62Z" fill="#231f20" stroke-width="0"/>
  <path d="M517.37,31.83c.89.52,2.22.24,2.72-.71,2.27-4.39,4.54-8.79,6.8-13.18.49-.95.25-2.16-.71-2.72-.89-.52-2.22-.24-2.72.71l-6.8,13.18c-.49.95-.25,2.16.71,2.72Z" fill="#231f20" stroke-width="0"/>
  <path d="M538.44,39.78c2.38-.85,4.76-1.7,7.14-2.56.98-.35,1.74-1.37,1.39-2.44-.31-.96-1.4-1.76-2.44-1.39-2.38.85-4.76,1.7-7.14,2.56-.98.35-1.74,1.37-1.39,2.44.31.96,1.4,1.76,2.44,1.39Z" fill="#231f20" stroke-width="0"/>
  <path d="M548.93,55.82c10.11,2.44,20.22,4.87,30.32,7.31,2.48.6,3.54-3.23,1.06-3.83l-30.32-7.31c-2.48-.6-3.54,3.23-1.06,3.83Z" fill="#231f20" stroke-width="0"/>
  <path d="M553.33,75.08c.94.44,2.19.29,2.72-.71.47-.88.29-2.24-.71-2.72-2.89-1.37-5.78-2.73-8.67-4.1-.94-.44-2.19-.29-2.72.71-.47.88-.29,2.24.71,2.72,2.89,1.37,5.78,2.73,8.67,4.1Z" fill="#231f20" stroke-width="0"/>
  <path d="M538.98,79.11c-1.74-1.88-4.55.94-2.81,2.81,9.83,10.6,19.67,21.19,29.5,31.79,1.74,1.88,4.55-.94,2.81-2.81-9.83-10.6-19.67-21.19-29.5-31.79Z" fill="#231f20" stroke-width="0"/>
  <path d="M116,268.96c4.92-7.48,7.22-16.59,6.58-25.52-.39-5.35-1.76-10.53-4.07-15.37-.46-.97-1.85-1.22-2.72-.71-.99.58-1.18,1.75-.71,2.72,3.63,7.6,4.57,16.45,2.71,24.65-1.72,7.57-5.82,14.39-11.57,19.59-2.51,2.27-5.36,4.23-8.4,5.75-.83-1.73-1.75-3.4-2.79-4.97-2.91-4.4-7.5-8.27-13.08-8.06-4.88.19-8.58,3.66-10.6,7.89-2.21,4.64-2.97,10-2.89,15.1.09,5.39,1.23,10.71,3.34,15.66,1.87,4.39,4.84,9.41,9.79,10.74,5.03,1.36,9.5-2.41,10.74-7.12.87-3.29.3-6.75-.43-10-.66-2.93-1.68-5.89-4.2-7.74-2.25-1.64-5.66-1.99-7.76.11-1.89,1.9-2.23,4.95-.37,6.98,1.73,1.89,4.53-.92,2.81-2.81-.11-.12-.18-.39-.05-.73.22-.58.53-.88,1.16-.96,1.56-.18,2.81,1.3,3.44,2.52,1.02,1.97,1.44,4.5,1.73,6.68.26,1.98.3,4.15-.53,6.01-.64,1.43-1.78,2.79-3.34,3.22-1.59.44-3.17-.23-4.42-1.21-3.09-2.41-4.81-6.51-6-10.13-1.38-4.18-2.03-8.55-1.91-12.96.11-3.91.71-8.1,2.46-11.64,1.48-3,3.92-5.72,7.52-5.67,4.14.06,7.36,3.23,9.44,6.51.95,1.49,1.8,3.05,2.57,4.65-.19.39-.26.83-.12,1.33.16.59.7,1.15,1.32,1.38,2.82,6.92,4.11,14.56,4.01,21.91-.04,2.56,3.94,2.56,3.97,0,.08-5.65-.63-11.33-2.13-16.78-.58-2.12-1.28-4.25-2.1-6.34,6.72-3.35,12.46-8.4,16.62-14.72Z" fill="#231f20" stroke-width="0"/>
</svg>